SplineFontDB: 3.0
FontName: GentiumBookBasic-BoldItalic
FullName: Gentium Book Basic Bold Italic
FamilyName: Gentium Book Basic
Weight: Bold
Copyright: Copyright (c) SIL International, 2003-2008.
Version: 1.100
ItalicAngle: -8
UnderlinePosition: -200
UnderlineWidth: 100
Ascent: 1638
Descent: 410
sfntRevision: 0x00011999
LayerCount: 2
Layer: 0 1 "Back"  1
Layer: 1 1 "Fore"  0
XUID: [1021 288 713564382 4039788]
FSType: 0
OS2Version: 3
OS2_WeightWidthSlopeOnly: 0
OS2_UseTypoMetrics: 1
CreationTime: 1207161552
ModificationTime: 1309535472
PfmFamily: 17
TTFWeight: 700
TTFWidth: 5
LineGap: 0
VLineGap: 0
Panose: 2 0 6 6 8 0 0 2 0 4
OS2TypoAscent: 2219
OS2TypoAOffset: 0
OS2TypoDescent: -735
OS2TypoDOffset: 0
OS2TypoLinegap: 0
OS2WinAscent: 2219
OS2WinAOffset: 0
OS2WinDescent: 735
OS2WinDOffset: 0
HheadAscent: 2219
HheadAOffset: 0
HheadDescent: -735
HheadDOffset: 0
OS2SubXSize: 856
OS2SubYSize: 856
OS2SubXOff: 0
OS2SubYOff: 1200
OS2SupXSize: 856
OS2SupYSize: 856
OS2SupXOff: 0
OS2SupYOff: 1200
OS2StrikeYSize: 100
OS2StrikeYPos: 500
OS2Vendor: 'SIL '
OS2CodePages: 20000013.00000000
OS2UnicodeRanges: a000007f.4000204a.00000000.00000000
Lookup: 5 0 0 "'ccmp' Glyph Composition/Decomposition lookup 0"  {"'ccmp' Glyph Composition/Decomposition lookup 0 subtable"  } ['ccmp' ('cyrl' <'dflt' > 'latn' <'IPA ' 'VIT ' 'dflt' > ) ]
Lookup: 1 0 0 "Single Substitution lookup 1"  {"Single Substitution lookup 1 subtable"  } []
Lookup: 2 0 0 "Multiple Substitution lookup 2"  {"Multiple Substitution lookup 2 subtable"  } []
Lookup: 4 0 0 "'ccmp' Glyph Composition/Decomposition lookup 3"  {"'ccmp' Glyph Composition/Decomposition lookup 3 subtable"  } ['ccmp' ('cyrl' <'dflt' > 'latn' <'IPA ' 'VIT ' 'dflt' > ) ]
Lookup: 4 256 0 "'ccmp' Glyph Composition/Decomposition in Latin lookup 4"  {"'ccmp' Glyph Composition/Decomposition in Latin lookup 4 subtable"  } ['ccmp' ('latn' <'VIT ' > ) ]

StartChar: .notdef
Encoding: 65536 -1 0
Width: 1400
Flags: W
LayerCount: 2
Fore
SplineSet
150 50 m 1,0,-1
 1250 50 l 1,1,-1
 1250 1750 l 1,2,-1
 150 1750 l 1,3,-1
 150 50 l 1,0,-1
100 1800 m 1,4,-1
 1300 1800 l 1,5,-1
 1300 0 l 1,6,-1
 100 0 l 1,7,-1
 100 1800 l 1,4,-1
EndSplineSet
EndChar

StartChar: exclam
Encoding: 33 33 4
Width: 500
Flags: W
LayerCount: 2
Fore
SplineSet
373 172 m 0,0,1
 373 137 373 137 360.5 101 c 128,-1,2
 348 65 348 65 323 36 c 128,-1,3
 298 7 298 7 261 -12 c 128,-1,4
 224 -31 224 -31 175 -31 c 0,5,6
 105 -31 105 -31 73 2 c 128,-1,7
 41 35 41 35 41 88 c 0,8,9
 41 121 41 121 55 156 c 128,-1,10
 69 191 69 191 94.5 220 c 128,-1,11
 120 249 120 249 157 267.5 c 128,-1,12
 194 286 194 286 241 286 c 0,13,14
 308 286 308 286 340.5 253.5 c 128,-1,15
 373 221 373 221 373 172 c 0,0,1
316 419 m 1,16,17
 306 412 306 412 291.5 405 c 128,-1,18
 277 398 277 398 261.5 391.5 c 128,-1,19
 246 385 246 385 230.5 379.5 c 128,-1,20
 215 374 215 374 203 370 c 1,21,-1
 178 391 l 1,22,-1
 223 1314 l 1,23,24
 245 1326 245 1326 281.5 1344 c 128,-1,25
 318 1362 318 1362 357 1380 c 128,-1,26
 396 1398 396 1398 431 1413.5 c 128,-1,27
 466 1429 466 1429 486 1436 c 1,28,-1
 530 1401 l 1,29,-1
 316 419 l 1,16,17
EndSplineSet
EndChar

StartChar: quotedbl
Encoding: 34 34 5
Width: 923
Flags: W
LayerCount: 2
Fore
SplineSet
342 849 m 1,0,1
 334 844 334 844 319 840.5 c 128,-1,2
 304 837 304 837 287.5 834 c 128,-1,3
 271 831 271 831 255 829.5 c 128,-1,4
 239 828 239 828 228 828 c 1,5,-1
 211 1342 l 1,6,7
 219 1346 219 1346 238.5 1354 c 128,-1,8
 258 1362 258 1362 283 1371 c 128,-1,9
 308 1380 308 1380 336 1389.5 c 128,-1,10
 364 1399 364 1399 389.5 1407.5 c 128,-1,11
 415 1416 415 1416 434 1422 c 128,-1,12
 453 1428 453 1428 460 1430 c 1,13,-1
 507 1399 l 1,14,-1
 342 849 l 1,0,1
732 849 m 1,15,16
 724 844 724 844 709 840.5 c 128,-1,17
 694 837 694 837 677.5 834 c 128,-1,18
 661 831 661 831 645 829.5 c 128,-1,19
 629 828 629 828 618 828 c 1,20,-1
 601 1342 l 1,21,22
 609 1346 609 1346 628.5 1354 c 128,-1,23
 648 1362 648 1362 673 1371 c 128,-1,24
 698 1380 698 1380 726 1389.5 c 128,-1,25
 754 1399 754 1399 779.5 1407.5 c 128,-1,26
 805 1416 805 1416 824 1422 c 128,-1,27
 843 1428 843 1428 850 1430 c 1,28,-1
 897 1399 l 1,29,-1
 732 849 l 1,15,16
EndSplineSet
EndChar

StartChar: numbersign
Encoding: 35 35 6
Width: 968
Flags: W
LayerCount: 2
Fore
SplineSet
864 981 m 1,0,-1
 1008 981 l 1,1,-1
 1028 956 l 1,2,3
 1024 945 1024 945 1015.5 926.5 c 128,-1,4
 1007 908 1007 908 997 888.5 c 128,-1,5
 987 869 987 869 977.5 851.5 c 128,-1,6
 968 834 968 834 963 826 c 1,7,-1
 801 826 l 1,8,-1
 714 610 l 1,9,-1
 859 610 l 1,10,-1
 875 583 l 1,11,12
 872 573 872 573 864 555 c 128,-1,13
 856 537 856 537 846 517.5 c 128,-1,14
 836 498 836 498 827 481 c 128,-1,15
 818 464 818 464 814 455 c 1,16,-1
 652 455 l 1,17,-1
 537 170 l 1,18,19
 528 163 528 163 511.5 157 c 128,-1,20
 495 151 495 151 476.5 146 c 128,-1,21
 458 141 458 141 440 136 c 128,-1,22
 422 131 422 131 409 127 c 1,23,-1
 388 147 l 1,24,-1
 512 455 l 1,25,-1
 354 455 l 1,26,-1
 239 170 l 1,27,28
 230 163 230 163 213.5 157 c 128,-1,29
 197 151 197 151 179 146 c 2,30,-1
 143 136 l 2,31,32
 125 131 125 131 112 127 c 1,33,-1
 91 147 l 1,34,-1
 215 455 l 1,35,-1
 55 455 l 1,36,-1
 37 480 l 1,37,38
 41 490 41 490 49.5 507.5 c 128,-1,39
 58 525 58 525 67.5 544.5 c 128,-1,40
 77 564 77 564 86.5 582 c 128,-1,41
 96 600 96 600 102 610 c 1,42,-1
 277 610 l 1,43,-1
 364 826 l 1,44,-1
 207 826 l 1,45,-1
 187 850 l 1,46,47
 190 861 190 861 199 879 c 128,-1,48
 208 897 208 897 218 916.5 c 128,-1,49
 228 936 228 936 237.5 953.5 c 128,-1,50
 247 971 247 971 252 981 c 1,51,-1
 426 981 l 1,52,-1
 535 1251 l 1,53,54
 546 1259 546 1259 563 1264.5 c 128,-1,55
 580 1270 580 1270 598 1274 c 2,56,-1
 632 1283 l 2,57,58
 648 1287 648 1287 659 1292 c 1,59,-1
 683 1270 l 1,60,-1
 566 981 l 1,61,-1
 723 981 l 1,62,-1
 832 1251 l 1,63,64
 843 1259 843 1259 859.5 1264.5 c 128,-1,65
 876 1270 876 1270 894 1274.5 c 128,-1,66
 912 1279 912 1279 929 1283 c 128,-1,67
 946 1287 946 1287 957 1292 c 1,68,-1
 980 1270 l 1,69,-1
 864 981 l 1,0,-1
416 610 m 1,70,-1
 574 610 l 1,71,-1
 661 826 l 1,72,-1
 503 826 l 1,73,-1
 416 610 l 1,70,-1
EndSplineSet
EndChar

StartChar: dollar
Encoding: 36 36 7
Width: 968
Flags: W
LayerCount: 2
Fore
SplineSet
329 950 m 0,0,1
 329 926 329 926 334 905.5 c 128,-1,2
 339 885 339 885 352 866 c 128,-1,3
 365 847 365 847 387.5 828.5 c 128,-1,4
 410 810 410 810 446 792 c 1,5,-1
 490 1100 l 1,6,7
 454 1094 454 1094 424.5 1080.5 c 128,-1,8
 395 1067 395 1067 374 1047 c 128,-1,9
 353 1027 353 1027 341 1002 c 128,-1,10
 329 977 329 977 329 950 c 0,0,1
654 343 m 0,11,12
 654 395 654 395 625.5 434 c 128,-1,13
 597 473 597 473 534 509 c 1,14,-1
 480 125 l 1,15,16
 566 139 566 139 610 195 c 128,-1,17
 654 251 654 251 654 343 c 0,11,12
943 1144 m 0,18,19
 947 1141 947 1141 942.5 1123.5 c 128,-1,20
 938 1106 938 1106 928 1080 c 128,-1,21
 918 1054 918 1054 905 1024.5 c 128,-1,22
 892 995 892 995 878.5 968.5 c 128,-1,23
 865 942 865 942 853.5 923.5 c 128,-1,24
 842 905 842 905 836 901 c 1,25,-1
 768 911 l 1,26,27
 762 942 762 942 750 970 c 128,-1,28
 738 998 738 998 719.5 1021.5 c 128,-1,29
 701 1045 701 1045 675.5 1063 c 128,-1,30
 650 1081 650 1081 616 1091 c 1,31,-1
 567 741 l 1,32,33
 639 712 639 712 696.5 681 c 128,-1,34
 754 650 754 650 794.5 612 c 128,-1,35
 835 574 835 574 857 526.5 c 128,-1,36
 879 479 879 479 879 418 c 0,37,38
 879 340 879 340 854 268 c 128,-1,39
 829 196 829 196 777 137.5 c 128,-1,40
 725 79 725 79 646.5 37.5 c 128,-1,41
 568 -4 568 -4 460 -21 c 1,42,-1
 445 -128 l 1,43,44
 427 -143 427 -143 397.5 -157.5 c 128,-1,45
 368 -172 368 -172 344 -178 c 1,46,-1
 314 -147 l 1,47,-1
 330 -31 l 1,48,-1
 322 -31 l 2,49,50
 272 -31 272 -31 215 -14.5 c 128,-1,51
 158 2 158 2 108.5 27 c 128,-1,52
 59 52 59 52 26.5 81.5 c 128,-1,53
 -6 111 -6 111 -6 138 c 0,54,55
 -6 149 -6 149 1 171 c 128,-1,56
 8 193 8 193 19.5 219 c 128,-1,57
 31 245 31 245 45.5 272 c 128,-1,58
 60 299 60 299 75 321 c 128,-1,59
 90 343 90 343 104.5 357 c 128,-1,60
 119 371 119 371 129 371 c 0,61,62
 138 371 138 371 148 356.5 c 128,-1,63
 158 342 158 342 170 318.5 c 128,-1,64
 182 295 182 295 198 267 c 128,-1,65
 214 239 214 239 236 212 c 128,-1,66
 258 185 258 185 286.5 162.5 c 128,-1,67
 315 140 315 140 353 129 c 1,68,-1
 414 565 l 1,69,70
 405 569 405 569 395 572.5 c 128,-1,71
 385 576 385 576 375 581 c 1,72,73
 312 605 312 605 261.5 632.5 c 128,-1,74
 211 660 211 660 176 694.5 c 128,-1,75
 141 729 141 729 122 773 c 128,-1,76
 103 817 103 817 103 875 c 0,77,78
 103 930 103 930 125 986 c 128,-1,79
 147 1042 147 1042 195.5 1090 c 128,-1,80
 244 1138 244 1138 320.5 1173.5 c 128,-1,81
 397 1209 397 1209 507 1223 c 1,82,-1
 524 1338 l 1,83,84
 550 1354 550 1354 573 1371 c 128,-1,85
 596 1388 596 1388 622 1396 c 1,86,-1
 654 1364 l 1,87,-1
 635 1231 l 1,88,-1
 639 1231 l 2,89,90
 683 1231 683 1231 726 1223.5 c 128,-1,91
 769 1216 769 1216 808.5 1204 c 128,-1,92
 848 1192 848 1192 882 1176 c 128,-1,93
 916 1160 916 1160 943 1144 c 0,18,19
EndSplineSet
EndChar

StartChar: percent
Encoding: 37 37 8
Width: 1411
Flags: W
LayerCount: 2
Fore
SplineSet
1130 426 m 0,0,1
 1130 468 1130 468 1124.5 497.5 c 128,-1,2
 1119 527 1119 527 1109.5 545 c 128,-1,3
 1100 563 1100 563 1086.5 571 c 128,-1,4
 1073 579 1073 579 1058 579 c 0,5,6
 1028 579 1028 579 1005.5 557 c 128,-1,7
 983 535 983 535 967 500.5 c 128,-1,8
 951 466 951 466 940.5 422.5 c 128,-1,9
 930 379 930 379 923.5 336 c 128,-1,10
 917 293 917 293 914.5 254 c 128,-1,11
 912 215 912 215 912 190 c 0,12,13
 912 112 912 112 929 77 c 128,-1,14
 946 42 946 42 988 42 c 0,15,16
 1024 42 1024 42 1050.5 80.5 c 128,-1,17
 1077 119 1077 119 1095 177 c 128,-1,18
 1113 235 1113 235 1121.5 302 c 128,-1,19
 1130 369 1130 369 1130 426 c 0,0,1
1338 408 m 0,20,21
 1338 329 1338 329 1313 250.5 c 128,-1,22
 1288 172 1288 172 1239.5 109 c 128,-1,23
 1191 46 1191 46 1118.5 7 c 128,-1,24
 1046 -32 1046 -32 951 -32 c 0,25,26
 895 -32 895 -32 848 -12 c 128,-1,27
 801 8 801 8 767 42 c 128,-1,28
 733 76 733 76 714 120.5 c 128,-1,29
 695 165 695 165 695 213 c 0,30,31
 695 292 695 292 721 371 c 128,-1,32
 747 450 747 450 798 512 c 128,-1,33
 849 574 849 574 923 613 c 128,-1,34
 997 652 997 652 1093 652 c 0,35,36
 1144 652 1144 652 1189 635 c 128,-1,37
 1234 618 1234 618 1267 586.5 c 128,-1,38
 1300 555 1300 555 1319 510 c 128,-1,39
 1338 465 1338 465 1338 408 c 0,20,21
273 3 m 1,40,41
 261 -3 261 -3 241.5 -7.5 c 128,-1,42
 222 -12 222 -12 200.5 -16 c 128,-1,43
 179 -20 179 -20 158.5 -23.5 c 128,-1,44
 138 -27 138 -27 125 -30 c 1,45,-1
 106 0 l 1,46,-1
 1137 1203 l 1,47,48
 1147 1207 1147 1207 1166.5 1211.5 c 128,-1,49
 1186 1216 1186 1216 1208 1220.5 c 128,-1,50
 1230 1225 1230 1225 1250 1229 c 128,-1,51
 1270 1233 1270 1233 1281 1235 c 1,52,-1
 1301 1207 l 1,53,-1
 273 3 l 1,40,41
504 1013 m 0,54,55
 504 1055 504 1055 498.5 1084.5 c 128,-1,56
 493 1114 493 1114 483.5 1132 c 128,-1,57
 474 1150 474 1150 460.5 1158 c 128,-1,58
 447 1166 447 1166 432 1166 c 0,59,60
 402 1166 402 1166 379.5 1144 c 128,-1,61
 357 1122 357 1122 341 1087.5 c 128,-1,62
 325 1053 325 1053 314.5 1009.5 c 128,-1,63
 304 966 304 966 297.5 923 c 128,-1,64
 291 880 291 880 288.5 841 c 128,-1,65
 286 802 286 802 286 777 c 0,66,67
 286 699 286 699 303 664 c 128,-1,68
 320 629 320 629 362 629 c 0,69,70
 398 629 398 629 424.5 667.5 c 128,-1,71
 451 706 451 706 469 764 c 128,-1,72
 487 822 487 822 495.5 889 c 128,-1,73
 504 956 504 956 504 1013 c 0,54,55
712 995 m 0,74,75
 712 916 712 916 687 837.5 c 128,-1,76
 662 759 662 759 613.5 696 c 128,-1,77
 565 633 565 633 492.5 594 c 128,-1,78
 420 555 420 555 325 555 c 0,79,80
 269 555 269 555 222 575 c 128,-1,81
 175 595 175 595 141 629 c 128,-1,82
 107 663 107 663 88 707.5 c 128,-1,83
 69 752 69 752 69 800 c 0,84,85
 69 879 69 879 95 958 c 128,-1,86
 121 1037 121 1037 172 1099 c 128,-1,87
 223 1161 223 1161 297 1200 c 128,-1,88
 371 1239 371 1239 467 1239 c 0,89,90
 518 1239 518 1239 563 1222 c 128,-1,91
 608 1205 608 1205 641 1173.5 c 128,-1,92
 674 1142 674 1142 693 1097 c 128,-1,93
 712 1052 712 1052 712 995 c 0,74,75
EndSplineSet
EndChar

StartChar: ampersand
Encoding: 38 38 9
Width: 1327
Flags: W
LayerCount: 2
Fore
SplineSet
1401 748 m 1,0,1
 1387 733 1387 733 1370 712.5 c 128,-1,2
 1353 692 1353 692 1335.5 672 c 128,-1,3
 1318 652 1318 652 1301 635 c 128,-1,4
 1284 618 1284 618 1272 609 c 1,5,6
 1240 626 1240 626 1204.5 642 c 128,-1,7
 1169 658 1169 658 1137 660 c 1,8,9
 1153 634 1153 634 1154.5 603.5 c 128,-1,10
 1156 573 1156 573 1152 543 c 0,11,12
 1143 478 1143 478 1105.5 405 c 128,-1,13
 1068 332 1068 332 1008 262 c 1,14,15
 1022 247 1022 247 1034.5 233 c 128,-1,16
 1047 219 1047 219 1060 206 c 0,17,18
 1105 159 1105 159 1158.5 148 c 128,-1,19
 1212 137 1212 137 1258 148 c 1,20,-1
 1264 65 l 1,21,22
 1221 46 1221 46 1171.5 28.5 c 128,-1,23
 1122 11 1122 11 1077 -2 c 128,-1,24
 1032 -15 1032 -15 998.5 -22.5 c 128,-1,25
 965 -30 965 -30 955 -30 c 0,26,27
 931 -30 931 -30 889 -1.5 c 128,-1,28
 847 27 847 27 794 78 c 1,29,30
 714 28 714 28 624.5 -1 c 128,-1,31
 535 -30 535 -30 441 -30 c 0,32,33
 237 -30 237 -30 139.5 66.5 c 128,-1,34
 42 163 42 163 68 352 c 1,35,36
 81 454 81 454 155 557.5 c 128,-1,37
 229 661 229 661 376 768 c 1,38,39
 355 846 355 846 347 922.5 c 128,-1,40
 339 999 339 999 349 1073 c 0,41,42
 360 1154 360 1154 400 1223 c 128,-1,43
 440 1292 440 1292 499 1342.5 c 128,-1,44
 558 1393 558 1393 632 1421.5 c 128,-1,45
 706 1450 706 1450 786 1450 c 0,46,47
 860 1450 860 1450 911.5 1429.5 c 128,-1,48
 963 1409 963 1409 993 1375 c 128,-1,49
 1023 1341 1023 1341 1034 1296.5 c 128,-1,50
 1045 1252 1045 1252 1038 1204 c 0,51,52
 1031 1152 1031 1152 996 1096.5 c 128,-1,53
 961 1041 961 1041 910 988 c 128,-1,54
 859 935 859 935 797.5 887 c 128,-1,55
 736 839 736 839 676 802 c 1,56,-1
 659 791 l 1,57,58
 705 681 705 681 772 574.5 c 128,-1,59
 839 468 839 468 911 376 c 1,60,61
 930 408 930 408 942 439.5 c 128,-1,62
 954 471 954 471 959 502 c 0,63,64
 965 544 965 544 958 576.5 c 128,-1,65
 951 609 951 609 934.5 630.5 c 128,-1,66
 918 652 918 652 894.5 663.5 c 128,-1,67
 871 675 871 675 844 675 c 1,68,-1
 819 713 l 1,69,-1
 837 731 l 2,70,71
 849 743 849 743 863.5 756 c 128,-1,72
 878 769 878 769 892.5 779.5 c 128,-1,73
 907 790 907 790 917 794 c 1,74,-1
 1377 794 l 1,75,-1
 1401 748 l 1,0,1
527 124 m 0,76,77
 572 124 572 124 616.5 138 c 128,-1,78
 661 152 661 152 704 176 c 1,79,80
 632 262 632 262 561 371.5 c 128,-1,81
 490 481 490 481 436 603 c 1,82,83
 392 547 392 547 371 491.5 c 128,-1,84
 350 436 350 436 342 373 c 0,85,86
 332 303 332 303 345.5 255.5 c 128,-1,87
 359 208 359 208 386.5 178.5 c 128,-1,88
 414 149 414 149 451.5 136.5 c 128,-1,89
 489 124 489 124 527 124 c 0,76,77
596 1130 m 0,90,91
 589 1080 589 1080 594.5 1026.5 c 128,-1,92
 600 973 600 973 615 917 c 1,93,94
 656 942 656 942 685.5 973.5 c 128,-1,95
 715 1005 715 1005 735.5 1038.5 c 128,-1,96
 756 1072 756 1072 767 1106 c 128,-1,97
 778 1140 778 1140 783 1171 c 0,98,99
 788 1206 788 1206 783.5 1232.5 c 128,-1,100
 779 1259 779 1259 768 1277 c 128,-1,101
 757 1295 757 1295 741.5 1304 c 128,-1,102
 726 1313 726 1313 708 1313 c 0,103,104
 685 1313 685 1313 667 1299 c 128,-1,105
 649 1285 649 1285 635 1260.5 c 128,-1,106
 621 1236 621 1236 611.5 1202.5 c 128,-1,107
 602 1169 602 1169 596 1130 c 0,90,91
EndSplineSet
EndChar

StartChar: quotesingle
Encoding: 39 39 10
Width: 500
Flags: W
LayerCount: 2
Fore
SplineSet
342 849 m 1,0,1
 334 844 334 844 319 840.5 c 128,-1,2
 304 837 304 837 287.5 834 c 128,-1,3
 271 831 271 831 255 829.5 c 128,-1,4
 239 828 239 828 228 828 c 1,5,-1
 211 1342 l 1,6,7
 219 1346 219 1346 238.5 1354 c 128,-1,8
 258 1362 258 1362 283 1371 c 128,-1,9
 308 1380 308 1380 336 1389.5 c 128,-1,10
 364 1399 364 1399 389.5 1407.5 c 128,-1,11
 415 1416 415 1416 434 1422 c 128,-1,12
 453 1428 453 1428 460 1430 c 1,13,-1
 507 1399 l 1,14,-1
 342 849 l 1,0,1
EndSplineSet
EndChar

StartChar: parenleft
Encoding: 40 40 11
Width: 641
Flags: W
LayerCount: 2
Fore
SplineSet
762 1519 m 1,0,1
 696 1462 696 1462 636.5 1384.5 c 128,-1,2
 577 1307 577 1307 528 1204 c 128,-1,3
 479 1101 479 1101 441.5 971.5 c 128,-1,4
 404 842 404 842 382 682 c 0,5,6
 361 536 361 536 356.5 405 c 128,-1,7
 352 274 352 274 367 159 c 128,-1,8
 382 44 382 44 418.5 -53.5 c 128,-1,9
 455 -151 455 -151 516 -230 c 1,10,-1
 449 -315 l 1,11,12
 348 -252 348 -252 272.5 -152.5 c 128,-1,13
 197 -53 197 -53 151.5 72.5 c 128,-1,14
 106 198 106 198 92.5 345 c 128,-1,15
 79 492 79 492 102 651 c 0,16,17
 125 815 125 815 179.5 962 c 128,-1,18
 234 1109 234 1109 314 1231.5 c 128,-1,19
 394 1354 394 1354 496.5 1449 c 128,-1,20
 599 1544 599 1544 719 1604 c 1,21,-1
 762 1519 l 1,0,1
EndSplineSet
EndChar

StartChar: parenright
Encoding: 41 41 12
Width: 641
Flags: W
LayerCount: 2
Fore
SplineSet
559 638 m 0,0,1
 536 474 536 474 481.5 327 c 128,-1,2
 427 180 427 180 347 57.5 c 128,-1,3
 267 -65 267 -65 164.5 -160 c 128,-1,4
 62 -255 62 -255 -58 -315 c 1,5,-1
 -101 -230 l 1,6,7
 -35 -173 -35 -173 24.5 -95.5 c 128,-1,8
 84 -18 84 -18 133 85 c 128,-1,9
 182 188 182 188 219 317 c 128,-1,10
 256 446 256 446 279 607 c 0,11,12
 300 753 300 753 304.5 884 c 128,-1,13
 309 1015 309 1015 294 1130 c 128,-1,14
 279 1245 279 1245 242.5 1342.5 c 128,-1,15
 206 1440 206 1440 145 1519 c 1,16,-1
 212 1604 l 1,17,18
 313 1541 313 1541 388.5 1441.5 c 128,-1,19
 464 1342 464 1342 509.5 1216.5 c 128,-1,20
 555 1091 555 1091 568.5 944 c 128,-1,21
 582 797 582 797 559 638 c 0,0,1
EndSplineSet
EndChar

StartChar: asterisk
Encoding: 42 42 13
Width: 746
Flags: W
LayerCount: 2
Fore
SplineSet
453 1230 m 1,0,-1
 666 1410 l 1,1,2
 674 1404 674 1404 691.5 1387.5 c 128,-1,3
 709 1371 709 1371 728 1352.5 c 128,-1,4
 747 1334 747 1334 763 1316.5 c 128,-1,5
 779 1299 779 1299 785 1291 c 1,6,-1
 766 1231 l 1,7,-1
 494 1136 l 1,8,-1
 720 1051 l 1,9,10
 718 1039 718 1039 711 1012.5 c 128,-1,11
 704 986 704 986 695.5 956.5 c 128,-1,12
 687 927 687 927 679 901 c 128,-1,13
 671 875 671 875 667 864 c 1,14,-1
 610 845 l 1,15,-1
 431 1038 l 1,16,-1
 446 775 l 1,17,18
 435 769 435 769 410.5 759 c 128,-1,19
 386 749 386 749 358.5 738 c 128,-1,20
 331 727 331 727 306 718.5 c 128,-1,21
 281 710 281 710 271 707 c 1,22,-1
 234 748 l 1,23,-1
 327 1037 l 1,24,-1
 115 858 l 1,25,26
 106 864 106 864 88.5 880.5 c 128,-1,27
 71 897 71 897 52 915.5 c 128,-1,28
 33 934 33 934 16.5 951.5 c 128,-1,29
 0 969 0 969 -6 977 c 1,30,-1
 15 1037 l 1,31,-1
 288 1132 l 1,32,-1
 60 1217 l 1,33,34
 63 1229 63 1229 70 1255.5 c 128,-1,35
 77 1282 77 1282 85 1311.5 c 128,-1,36
 93 1341 93 1341 101 1367 c 128,-1,37
 109 1393 109 1393 114 1404 c 1,38,-1
 170 1423 l 1,39,-1
 349 1229 l 1,40,-1
 335 1493 l 1,41,42
 346 1499 346 1499 370.5 1509 c 128,-1,43
 395 1519 395 1519 422.5 1530 c 128,-1,44
 450 1541 450 1541 474 1549.5 c 128,-1,45
 498 1558 498 1558 509 1561 c 1,46,-1
 547 1520 l 1,47,-1
 453 1230 l 1,0,-1
EndSplineSet
EndChar

StartChar: plus
Encoding: 43 43 14
Width: 835
Flags: W
LayerCount: 2
Fore
SplineSet
785 606 m 1,0,1
 781 595 781 595 772.5 578 c 128,-1,2
 764 561 764 561 754 543 c 128,-1,3
 744 525 744 525 735 509 c 128,-1,4
 726 493 726 493 722 485 c 1,5,-1
 488 485 l 1,6,-1
 452 221 l 1,7,8
 443 216 443 216 428 210 c 128,-1,9
 413 204 413 204 396.5 198 c 128,-1,10
 380 192 380 192 364 187 c 128,-1,11
 348 182 348 182 338 180 c 1,12,-1
 312 212 l 1,13,-1
 349 485 l 1,14,-1
 81 485 l 1,15,-1
 55 519 l 1,16,17
 59 530 59 530 67 546.5 c 128,-1,18
 75 563 75 563 84.5 580.5 c 128,-1,19
 94 598 94 598 103 614 c 128,-1,20
 112 630 112 630 117 640 c 1,21,-1
 370 640 l 1,22,-1
 407 906 l 1,23,24
 416 909 416 909 431 914.5 c 128,-1,25
 446 920 446 920 462.5 926 c 128,-1,26
 479 932 479 932 495 937 c 128,-1,27
 511 942 511 942 521 945 c 1,28,-1
 546 912 l 1,29,-1
 509 640 l 1,30,-1
 757 640 l 1,31,-1
 785 606 l 1,0,1
EndSplineSet
EndChar

StartChar: comma
Encoding: 44 44 15
Width: 500
Flags: W
LayerCount: 2
Fore
SplineSet
399 122 m 0,0,1
 399 76 399 76 383 25.5 c 128,-1,2
 367 -25 367 -25 340.5 -75.5 c 128,-1,3
 314 -126 314 -126 279 -174 c 128,-1,4
 244 -222 244 -222 205.5 -264.5 c 128,-1,5
 167 -307 167 -307 128 -340.5 c 128,-1,6
 89 -374 89 -374 54 -395 c 1,7,-1
 -10 -340 l 1,8,9
 28 -300 28 -300 57 -258 c 128,-1,10
 86 -216 86 -216 105 -175.5 c 128,-1,11
 124 -135 124 -135 133.5 -98 c 128,-1,12
 143 -61 143 -61 143 -30 c 0,13,14
 143 -12 143 -12 136 7 c 128,-1,15
 129 26 129 26 115 41 c 128,-1,16
 101 56 101 56 80 65 c 128,-1,17
 59 74 59 74 30 71 c 1,18,-1
 27 159 l 1,19,20
 39 169 39 169 61.5 181 c 128,-1,21
 84 193 84 193 112 205.5 c 128,-1,22
 140 218 140 218 171 229 c 128,-1,23
 202 240 202 240 231 249 c 128,-1,24
 260 258 260 258 285 263.5 c 128,-1,25
 310 269 310 269 326 269 c 1,26,27
 361 249 361 249 380 216.5 c 128,-1,28
 399 184 399 184 399 122 c 0,0,1
EndSplineSet
EndChar

StartChar: period
Encoding: 46 46 17
Width: 500
Flags: W
LayerCount: 2
Fore
SplineSet
373 172 m 0,0,1
 373 137 373 137 360.5 101 c 128,-1,2
 348 65 348 65 323 36 c 128,-1,3
 298 7 298 7 261 -12 c 128,-1,4
 224 -31 224 -31 175 -31 c 0,5,6
 105 -31 105 -31 73 2 c 128,-1,7
 41 35 41 35 41 88 c 0,8,9
 41 121 41 121 55 156 c 128,-1,10
 69 191 69 191 94.5 220 c 128,-1,11
 120 249 120 249 157 267.5 c 128,-1,12
 194 286 194 286 241 286 c 0,13,14
 308 286 308 286 340.5 253.5 c 128,-1,15
 373 221 373 221 373 172 c 0,0,1
EndSplineSet
EndChar

StartChar: slash
Encoding: 47 47 18
Width: 911
Flags: W
LayerCount: 2
Fore
SplineSet
121 -265 m 1,0,1
 111 -272 111 -272 84 -282.5 c 128,-1,2
 57 -293 57 -293 26.5 -303.5 c 128,-1,3
 -4 -314 -4 -314 -32 -323 c 128,-1,4
 -60 -332 -60 -332 -72 -336 c 1,5,-1
 -111 -301 l 1,6,-1
 785 1530 l 1,7,8
 798 1539 798 1539 824 1549.5 c 128,-1,9
 850 1560 850 1560 878 1569.5 c 128,-1,10
 906 1579 906 1579 932 1587 c 128,-1,11
 958 1595 958 1595 973 1599 c 1,12,-1
 1014 1567 l 1,13,-1
 121 -265 l 1,0,1
EndSplineSet
EndChar

StartChar: zero
Encoding: 48 48 19
Width: 968
GlyphClass: 2
Flags: W
AnchorPoint: "Anchor-4" 968 870 basechar 0
AnchorPoint: "Anchor-3" 385 -100 basechar 0
AnchorPoint: "Anchor-2" 385 -100 basechar 0
AnchorPoint: "Anchor-1" 385 -100 basechar 0
AnchorPoint: "Anchor-0" 585 1320 basechar 0
LayerCount: 2
Fore
SplineSet
660 816 m 0,0,1
 660 895 660 895 650.5 949 c 128,-1,2
 641 1003 641 1003 624 1036.5 c 128,-1,3
 607 1070 607 1070 583.5 1085 c 128,-1,4
 560 1100 560 1100 532 1100 c 0,5,6
 481 1100 481 1100 443.5 1059.5 c 128,-1,7
 406 1019 406 1019 379.5 954.5 c 128,-1,8
 353 890 353 890 336.5 810 c 128,-1,9
 320 730 320 730 310.5 650 c 128,-1,10
 301 570 301 570 297.5 498.5 c 128,-1,11
 294 427 294 427 294 380 c 0,12,13
 294 235 294 235 325.5 170.5 c 128,-1,14
 357 106 357 106 428 106 c 0,15,16
 471 106 471 106 504.5 139 c 128,-1,17
 538 172 538 172 564 227.5 c 128,-1,18
 590 283 590 283 608 356 c 128,-1,19
 626 429 626 429 637.5 507.5 c 128,-1,20
 649 586 649 586 654.5 666 c 128,-1,21
 660 746 660 746 660 816 c 0,0,1
928 784 m 0,22,23
 928 704 928 704 921 633 c 128,-1,24
 914 562 914 562 898 495 c 128,-1,25
 882 428 882 428 855.5 364 c 128,-1,26
 829 300 829 300 791 236 c 0,27,28
 758 180 758 180 715 131.5 c 128,-1,29
 672 83 672 83 619.5 47 c 128,-1,30
 567 11 567 11 505.5 -10 c 128,-1,31
 444 -31 444 -31 374 -31 c 0,32,33
 297 -31 297 -31 233 6.5 c 128,-1,34
 169 44 169 44 123 106.5 c 128,-1,35
 77 169 77 169 52 251 c 128,-1,36
 27 333 27 333 27 422 c 0,37,38
 27 507 27 507 34 577 c 128,-1,39
 41 647 41 647 57 710 c 128,-1,40
 73 773 73 773 98 834 c 128,-1,41
 123 895 123 895 158 961 c 0,42,43
 189 1018 189 1018 233 1068 c 128,-1,44
 277 1118 277 1118 331 1155 c 128,-1,45
 385 1192 385 1192 448.5 1213.5 c 128,-1,46
 512 1235 512 1235 583 1235 c 0,47,48
 653 1235 653 1235 715.5 1204 c 128,-1,49
 778 1173 778 1173 825.5 1114.5 c 128,-1,50
 873 1056 873 1056 900.5 972.5 c 128,-1,51
 928 889 928 889 928 784 c 0,22,23
EndSplineSet
EndChar

StartChar: one
Encoding: 49 49 20
Width: 968
GlyphClass: 2
Flags: W
AnchorPoint: "Anchor-4" 968 870 basechar 0
AnchorPoint: "Anchor-3" 385 -100 basechar 0
AnchorPoint: "Anchor-2" 385 -100 basechar 0
AnchorPoint: "Anchor-1" 385 -100 basechar 0
AnchorPoint: "Anchor-0" 585 1320 basechar 0
LayerCount: 2
Fore
SplineSet
806 0 m 1,0,-1
 71 0 l 1,1,-1
 83 93 l 1,2,3
 158 102 158 102 208 113.5 c 128,-1,4
 258 125 258 125 288.5 137 c 128,-1,5
 319 149 319 149 332.5 160.5 c 128,-1,6
 346 172 346 172 348 183 c 2,7,-1
 446 900 l 2,8,9
 451 940 451 940 451.5 962 c 128,-1,10
 452 984 452 984 442 998 c 0,11,12
 437 1004 437 1004 423.5 1008 c 128,-1,13
 410 1012 410 1012 382.5 1011 c 128,-1,14
 355 1010 355 1010 311.5 1004 c 128,-1,15
 268 998 268 998 205 984 c 1,16,-1
 190 1075 l 1,17,18
 217 1080 217 1080 259 1092 c 128,-1,19
 301 1104 301 1104 349.5 1119.5 c 128,-1,20
 398 1135 398 1135 449.5 1153 c 128,-1,21
 501 1171 501 1171 548.5 1188 c 128,-1,22
 596 1205 596 1205 635.5 1220 c 128,-1,23
 675 1235 675 1235 700 1245 c 1,24,-1
 738 1200 l 1,25,-1
 599 183 l 2,26,27
 597 173 597 173 605.5 161.5 c 128,-1,28
 614 150 614 150 638.5 138 c 128,-1,29
 663 126 663 126 706 114 c 128,-1,30
 749 102 749 102 818 93 c 1,31,-1
 806 0 l 1,0,-1
EndSplineSet
EndChar

StartChar: two
Encoding: 50 50 21
Width: 968
GlyphClass: 2
Flags: W
AnchorPoint: "Anchor-4" 968 870 basechar 0
AnchorPoint: "Anchor-3" 385 -100 basechar 0
AnchorPoint: "Anchor-2" 385 -100 basechar 0
AnchorPoint: "Anchor-1" 385 -100 basechar 0
AnchorPoint: "Anchor-0" 585 1320 basechar 0
LayerCount: 2
Fore
SplineSet
921 1026 m 0,0,1
 921 984 921 984 910 941.5 c 128,-1,2
 899 899 899 899 872 848.5 c 128,-1,3
 845 798 845 798 799 736 c 128,-1,4
 753 674 753 674 682.5 595 c 128,-1,5
 612 516 612 516 514 416.5 c 128,-1,6
 416 317 416 317 286 190 c 1,7,-1
 641 190 l 2,8,9
 657 190 657 190 671.5 199 c 128,-1,10
 686 208 686 208 697.5 222.5 c 128,-1,11
 709 237 709 237 718.5 255.5 c 128,-1,12
 728 274 728 274 736 294 c 0,13,14
 754 340 754 340 764 399 c 1,15,-1
 848 377 l 1,16,-1
 781 0 l 1,17,-1
 6 0 l 1,18,-1
 -10 74 l 1,19,20
 168 255 168 255 293 395 c 128,-1,21
 418 535 418 535 497 643.5 c 128,-1,22
 576 752 576 752 612 833 c 128,-1,23
 648 914 648 914 648 977 c 0,24,25
 648 1049 648 1049 620.5 1080 c 128,-1,26
 593 1111 593 1111 539 1111 c 0,27,28
 502 1111 502 1111 477 1093.5 c 128,-1,29
 452 1076 452 1076 437 1048 c 128,-1,30
 422 1020 422 1020 416.5 985 c 128,-1,31
 411 950 411 950 413 914 c 1,32,33
 397 905 397 905 365.5 893.5 c 128,-1,34
 334 882 334 882 298.5 872 c 128,-1,35
 263 862 263 862 229.5 854.5 c 128,-1,36
 196 847 196 847 175 845 c 1,37,-1
 149 925 l 1,38,39
 156 977 156 977 196.5 1032 c 128,-1,40
 237 1087 237 1087 301 1132 c 128,-1,41
 365 1177 365 1177 448 1206 c 128,-1,42
 531 1235 531 1235 623 1235 c 0,43,44
 680 1235 680 1235 734 1224.5 c 128,-1,45
 788 1214 788 1214 829.5 1190 c 128,-1,46
 871 1166 871 1166 896 1126 c 128,-1,47
 921 1086 921 1086 921 1026 c 0,0,1
EndSplineSet
EndChar

StartChar: three
Encoding: 51 51 22
Width: 968
GlyphClass: 2
Flags: W
AnchorPoint: "Anchor-4" 968 870 basechar 0
AnchorPoint: "Anchor-3" 385 -100 basechar 0
AnchorPoint: "Anchor-2" 385 -100 basechar 0
AnchorPoint: "Anchor-1" 385 -100 basechar 0
AnchorPoint: "Anchor-0" 585 1320 basechar 0
LayerCount: 2
Fore
SplineSet
873 1001 m 0,0,1
 873 947 873 947 855.5 900.5 c 128,-1,2
 838 854 838 854 807 815.5 c 128,-1,3
 776 777 776 777 734 747.5 c 128,-1,4
 692 718 692 718 644 698 c 1,5,6
 697 692 697 692 735.5 668 c 128,-1,7
 774 644 774 644 799.5 607 c 128,-1,8
 825 570 825 570 837 524 c 128,-1,9
 849 478 849 478 849 428 c 0,10,11
 849 334 849 334 809 250.5 c 128,-1,12
 769 167 769 167 700.5 104.5 c 128,-1,13
 632 42 632 42 541.5 5.5 c 128,-1,14
 451 -31 451 -31 350 -31 c 0,15,16
 315 -31 315 -31 269.5 -19 c 128,-1,17
 224 -7 224 -7 177.5 15 c 128,-1,18
 131 37 131 37 86.5 68.5 c 128,-1,19
 42 100 42 100 8 139 c 1,20,-1
 67 246 l 1,21,22
 140 177 140 177 212.5 149.5 c 128,-1,23
 285 122 285 122 354 122 c 0,24,25
 399 122 399 122 439 141.5 c 128,-1,26
 479 161 479 161 509.5 197 c 128,-1,27
 540 233 540 233 558 284.5 c 128,-1,28
 576 336 576 336 576 401 c 0,29,30
 576 501 576 501 530.5 547 c 128,-1,31
 485 593 485 593 412 593 c 2,32,-1
 391 593 l 2,33,34
 383 593 383 593 374.5 592 c 128,-1,35
 366 591 366 591 356.5 590 c 128,-1,36
 347 589 347 589 333 586 c 1,37,-1
 327 686 l 1,38,39
 605 754 605 754 605 990 c 0,40,41
 605 1053 605 1053 584 1082 c 128,-1,42
 563 1111 563 1111 520 1111 c 0,43,44
 496 1111 496 1111 475 1100.5 c 128,-1,45
 454 1090 454 1090 439 1069.5 c 128,-1,46
 424 1049 424 1049 416.5 1019.5 c 128,-1,47
 409 990 409 990 412 953 c 1,48,49
 391 941 391 941 360 927 c 128,-1,50
 329 913 329 913 294.5 901.5 c 128,-1,51
 260 890 260 890 227.5 882.5 c 128,-1,52
 195 875 195 875 171 874 c 1,53,-1
 145 945 l 1,54,55
 151 987 151 987 187 1037.5 c 128,-1,56
 223 1088 223 1088 280.5 1132 c 128,-1,57
 338 1176 338 1176 414 1205.5 c 128,-1,58
 490 1235 490 1235 576 1235 c 0,59,60
 663 1235 663 1235 720 1215.5 c 128,-1,61
 777 1196 777 1196 811 1163.5 c 128,-1,62
 845 1131 845 1131 859 1088.5 c 128,-1,63
 873 1046 873 1046 873 1001 c 0,0,1
EndSplineSet
EndChar

StartChar: four
Encoding: 52 52 23
Width: 968
GlyphClass: 2
Flags: W
AnchorPoint: "Anchor-4" 968 870 basechar 0
AnchorPoint: "Anchor-3" 385 -100 basechar 0
AnchorPoint: "Anchor-2" 385 -100 basechar 0
AnchorPoint: "Anchor-1" 385 -100 basechar 0
AnchorPoint: "Anchor-0" 585 1320 basechar 0
LayerCount: 2
Fore
SplineSet
911 450 m 1,0,1
 899 434 899 434 883.5 416.5 c 128,-1,2
 868 399 868 399 852 382.5 c 128,-1,3
 836 366 836 366 821 352.5 c 128,-1,4
 806 339 806 339 794 330 c 1,5,-1
 737 330 l 1,6,-1
 711 144 l 2,7,8
 710 136 710 136 715 129.5 c 128,-1,9
 720 123 720 123 733.5 115.5 c 128,-1,10
 747 108 747 108 771 100 c 128,-1,11
 795 92 795 92 833 83 c 1,12,-1
 822 0 l 1,13,-1
 255 0 l 1,14,-1
 266 83 l 1,15,16
 328 94 328 94 367.5 103.5 c 128,-1,17
 407 113 407 113 430 121.5 c 128,-1,18
 453 130 453 130 462 138 c 128,-1,19
 471 146 471 146 472 155 c 2,20,-1
 496 330 l 1,21,-1
 61 330 l 1,22,-1
 27 373 l 1,23,-1
 578 1164 l 1,24,25
 602 1172 602 1172 634 1182.5 c 128,-1,26
 666 1193 666 1193 699 1204 c 2,27,-1
 763 1225 l 2,28,29
 795 1236 795 1236 819 1245 c 1,30,-1
 856 1200 l 1,31,-1
 757 481 l 1,32,-1
 891 481 l 1,33,-1
 911 450 l 1,0,1
255 481 m 1,34,-1
 516 481 l 1,35,-1
 582 960 l 1,36,-1
 255 481 l 1,34,-1
EndSplineSet
EndChar

StartChar: five
Encoding: 53 53 24
Width: 968
GlyphClass: 2
Flags: W
AnchorPoint: "Anchor-4" 968 870 basechar 0
AnchorPoint: "Anchor-3" 385 -100 basechar 0
AnchorPoint: "Anchor-2" 385 -100 basechar 0
AnchorPoint: "Anchor-1" 385 -100 basechar 0
AnchorPoint: "Anchor-0" 585 1320 basechar 0
LayerCount: 2
Fore
SplineSet
948 1184 m 1,0,1
 937 1166 937 1166 915 1139 c 128,-1,2
 893 1112 893 1112 869 1085 c 128,-1,3
 845 1058 845 1058 823 1035.5 c 128,-1,4
 801 1013 801 1013 789 1004 c 1,5,-1
 376 1004 l 1,6,7
 370 975 370 975 361.5 940.5 c 128,-1,8
 353 906 353 906 344 872 c 128,-1,9
 335 838 335 838 326.5 807 c 128,-1,10
 318 776 318 776 311 754 c 1,11,12
 348 774 348 774 405 787 c 128,-1,13
 462 800 462 800 523 800 c 0,14,15
 611 800 611 800 675 771.5 c 128,-1,16
 739 743 739 743 780.5 697.5 c 128,-1,17
 822 652 822 652 842 594 c 128,-1,18
 862 536 862 536 862 477 c 0,19,20
 862 417 862 417 848 356.5 c 128,-1,21
 834 296 834 296 806.5 239.5 c 128,-1,22
 779 183 779 183 737.5 133.5 c 128,-1,23
 696 84 696 84 640.5 47.5 c 128,-1,24
 585 11 585 11 515 -10 c 128,-1,25
 445 -31 445 -31 362 -31 c 0,26,27
 317 -31 317 -31 269.5 -20 c 128,-1,28
 222 -9 222 -9 176 12 c 128,-1,29
 130 33 130 33 87.5 64 c 128,-1,30
 45 95 45 95 10 134 c 1,31,-1
 71 231 l 1,32,33
 116 196 116 196 155.5 173 c 128,-1,34
 195 150 195 150 231 136.5 c 128,-1,35
 267 123 267 123 299.5 117.5 c 128,-1,36
 332 112 332 112 364 112 c 0,37,38
 412 112 412 112 455.5 136 c 128,-1,39
 499 160 499 160 532 202 c 128,-1,40
 565 244 565 244 584.5 301 c 128,-1,41
 604 358 604 358 604 424 c 0,42,43
 604 473 604 473 591 513 c 128,-1,44
 578 553 578 553 554 581 c 128,-1,45
 530 609 530 609 495.5 624.5 c 128,-1,46
 461 640 461 640 419 640 c 0,47,48
 338 640 338 640 278 615 c 128,-1,49
 218 590 218 590 165 550 c 1,50,-1
 123 583 l 1,51,52
 136 619 136 619 151 669.5 c 128,-1,53
 166 720 166 720 182 777 c 128,-1,54
 198 834 198 834 214 895 c 128,-1,55
 230 956 230 956 243.5 1012.5 c 128,-1,56
 257 1069 257 1069 268.5 1119 c 128,-1,57
 280 1169 280 1169 286 1204 c 1,58,-1
 805 1204 l 2,59,60
 830 1204 830 1204 850.5 1206.5 c 128,-1,61
 871 1209 871 1209 885 1213 c 0,62,63
 902 1217 902 1217 915 1223 c 1,64,-1
 948 1184 l 1,0,1
EndSplineSet
EndChar

StartChar: six
Encoding: 54 54 25
Width: 968
GlyphClass: 2
Flags: W
AnchorPoint: "Anchor-4" 968 870 basechar 0
AnchorPoint: "Anchor-3" 385 -100 basechar 0
AnchorPoint: "Anchor-2" 385 -100 basechar 0
AnchorPoint: "Anchor-1" 385 -100 basechar 0
AnchorPoint: "Anchor-0" 585 1320 basechar 0
LayerCount: 2
Fore
SplineSet
506 639 m 0,0,1
 471 639 471 639 426 611 c 128,-1,2
 381 583 381 583 333 535 c 1,3,4
 328 495 328 495 326 455 c 128,-1,5
 324 415 324 415 324 373 c 0,6,7
 324 298 324 298 335 247 c 128,-1,8
 346 196 346 196 365 164.5 c 128,-1,9
 384 133 384 133 410.5 119.5 c 128,-1,10
 437 106 437 106 467 106 c 256,11,12
 497 106 497 106 521 122.5 c 128,-1,13
 545 139 545 139 563.5 167 c 128,-1,14
 582 195 582 195 594.5 231 c 128,-1,15
 607 267 607 267 615.5 305 c 128,-1,16
 624 343 624 343 627.5 381.5 c 128,-1,17
 631 420 631 420 631 452 c 0,18,19
 631 510 631 510 620 546.5 c 128,-1,20
 609 583 609 583 591 603.5 c 128,-1,21
 573 624 573 624 550.5 631.5 c 128,-1,22
 528 639 528 639 506 639 c 0,0,1
900 1150 m 1,23,24
 782 1129 782 1129 693 1086 c 128,-1,25
 604 1043 604 1043 539 983 c 128,-1,26
 474 923 474 923 431.5 848.5 c 128,-1,27
 389 774 389 774 364 689 c 1,28,29
 425 738 425 738 485.5 764 c 128,-1,30
 546 790 546 790 599 790 c 0,31,32
 666 790 666 790 721 767 c 128,-1,33
 776 744 776 744 815 703.5 c 128,-1,34
 854 663 854 663 875.5 606.5 c 128,-1,35
 897 550 897 550 897 483 c 0,36,37
 897 429 897 429 882.5 369.5 c 128,-1,38
 868 310 868 310 840.5 253 c 128,-1,39
 813 196 813 196 772 144.5 c 128,-1,40
 731 93 731 93 678.5 54 c 128,-1,41
 626 15 626 15 562.5 -8 c 128,-1,42
 499 -31 499 -31 425 -31 c 0,43,44
 349 -31 349 -31 281.5 -2.5 c 128,-1,45
 214 26 214 26 163 77.5 c 128,-1,46
 112 129 112 129 82.5 201 c 128,-1,47
 53 273 53 273 53 360 c 0,48,49
 53 468 53 468 77 571.5 c 128,-1,50
 101 675 101 675 148 768.5 c 128,-1,51
 195 862 195 862 265 943 c 128,-1,52
 335 1024 335 1024 427.5 1087 c 128,-1,53
 520 1150 520 1150 635 1192 c 128,-1,54
 750 1234 750 1234 886 1249 c 1,55,-1
 900 1150 l 1,23,24
EndSplineSet
EndChar

StartChar: seven
Encoding: 55 55 26
Width: 968
GlyphClass: 2
Flags: W
AnchorPoint: "Anchor-4" 968 870 basechar 0
AnchorPoint: "Anchor-3" 385 -100 basechar 0
AnchorPoint: "Anchor-2" 385 -100 basechar 0
AnchorPoint: "Anchor-1" 385 -100 basechar 0
AnchorPoint: "Anchor-0" 585 1320 basechar 0
LayerCount: 2
Fore
SplineSet
1005 1167 m 1,0,1
 947 1059 947 1059 891 950 c 128,-1,2
 835 841 835 841 782 735 c 128,-1,3
 729 629 729 629 681 529 c 128,-1,4
 633 429 633 429 591.5 341.5 c 128,-1,5
 550 254 550 254 516.5 180.5 c 128,-1,6
 483 107 483 107 460 54 c 1,7,8
 442 42 442 42 411.5 29.5 c 128,-1,9
 381 17 381 17 347 6 c 128,-1,10
 313 -5 313 -5 280 -14.5 c 128,-1,11
 247 -24 247 -24 223 -30 c 1,12,-1
 181 13 l 1,13,14
 249 115 249 115 306 204.5 c 128,-1,15
 363 294 363 294 413 376 c 128,-1,16
 463 458 463 458 507.5 534.5 c 128,-1,17
 552 611 552 611 594.5 687.5 c 128,-1,18
 637 764 637 764 679 842 c 128,-1,19
 721 920 721 920 767 1005 c 1,20,-1
 344 1005 l 2,21,22
 330 1005 330 1005 313.5 1001 c 128,-1,23
 297 997 297 997 277.5 980.5 c 128,-1,24
 258 964 258 964 234.5 931 c 128,-1,25
 211 898 211 898 183 840 c 1,26,-1
 115 868 l 1,27,28
 119 883 119 883 126.5 910 c 128,-1,29
 134 937 134 937 143 969.5 c 128,-1,30
 152 1002 152 1002 161.5 1037 c 128,-1,31
 171 1072 171 1072 180 1104.5 c 128,-1,32
 189 1137 189 1137 197 1163 c 128,-1,33
 205 1189 205 1189 211 1204 c 1,34,-1
 979 1204 l 1,35,-1
 1005 1167 l 1,0,1
EndSplineSet
EndChar

StartChar: eight
Encoding: 56 56 27
Width: 968
GlyphClass: 2
Flags: W
AnchorPoint: "Anchor-4" 968 870 basechar 0
AnchorPoint: "Anchor-3" 385 -100 basechar 0
AnchorPoint: "Anchor-2" 385 -100 basechar 0
AnchorPoint: "Anchor-1" 385 -100 basechar 0
AnchorPoint: "Anchor-0" 585 1320 basechar 0
LayerCount: 2
Fore
SplineSet
417 940 m 0,0,1
 417 905 417 905 429.5 879 c 128,-1,2
 442 853 442 853 463.5 832 c 128,-1,3
 485 811 485 811 514 793.5 c 128,-1,4
 543 776 543 776 576 760 c 1,5,6
 615 800 615 800 644 852 c 128,-1,7
 673 904 673 904 673 975 c 0,8,9
 673 1041 673 1041 642.5 1076 c 128,-1,10
 612 1111 612 1111 556 1111 c 0,11,12
 527 1111 527 1111 502 1096 c 128,-1,13
 477 1081 477 1081 458 1056.5 c 128,-1,14
 439 1032 439 1032 428 1001.5 c 128,-1,15
 417 971 417 971 417 940 c 0,0,1
622 342 m 0,16,17
 622 390 622 390 608.5 425.5 c 128,-1,18
 595 461 595 461 571.5 488 c 128,-1,19
 548 515 548 515 517 535.5 c 128,-1,20
 486 556 486 556 452 574 c 1,21,22
 421 543 421 543 395 509.5 c 128,-1,23
 369 476 369 476 349.5 439 c 128,-1,24
 330 402 330 402 319 361 c 128,-1,25
 308 320 308 320 308 274 c 0,26,27
 308 231 308 231 319.5 198.5 c 128,-1,28
 331 166 331 166 350 144 c 128,-1,29
 369 122 369 122 393.5 111 c 128,-1,30
 418 100 418 100 444 100 c 0,31,32
 484 100 484 100 517 121 c 128,-1,33
 550 142 550 142 573 176.5 c 128,-1,34
 596 211 596 211 609 254 c 128,-1,35
 622 297 622 297 622 342 c 0,16,17
933 1001 m 256,36,37
 933 950 933 950 911 907.5 c 128,-1,38
 889 865 889 865 854 828.5 c 128,-1,39
 819 792 819 792 776 761 c 128,-1,40
 733 730 733 730 690 704 c 1,41,42
 730 683 730 683 767.5 656 c 128,-1,43
 805 629 805 629 833.5 593 c 128,-1,44
 862 557 862 557 879 509 c 128,-1,45
 896 461 896 461 896 397 c 0,46,47
 896 312 896 312 855 234.5 c 128,-1,48
 814 157 814 157 746.5 98 c 128,-1,49
 679 39 679 39 591.5 4 c 128,-1,50
 504 -31 504 -31 411 -31 c 0,51,52
 312 -31 312 -31 240.5 -8 c 128,-1,53
 169 15 169 15 123 54 c 128,-1,54
 77 93 77 93 55 143.5 c 128,-1,55
 33 194 33 194 33 250 c 0,56,57
 33 314 33 314 59.5 369.5 c 128,-1,58
 86 425 86 425 129 472.5 c 128,-1,59
 172 520 172 520 227.5 559 c 128,-1,60
 283 598 283 598 342 629 c 1,61,62
 307 648 307 648 275.5 670.5 c 128,-1,63
 244 693 244 693 220.5 723 c 128,-1,64
 197 753 197 753 183 793.5 c 128,-1,65
 169 834 169 834 169 889 c 0,66,67
 169 962 169 962 205 1025.5 c 128,-1,68
 241 1089 241 1089 302 1135.5 c 128,-1,69
 363 1182 363 1182 444 1208.5 c 128,-1,70
 525 1235 525 1235 615 1235 c 0,71,72
 699 1235 699 1235 759 1217.5 c 128,-1,73
 819 1200 819 1200 858 1169 c 128,-1,74
 897 1138 897 1138 915 1095 c 128,-1,75
 933 1052 933 1052 933 1001 c 256,36,37
EndSplineSet
EndChar

StartChar: nine
Encoding: 57 57 28
Width: 968
GlyphClass: 2
Flags: W
AnchorPoint: "Anchor-4" 968 870 basechar 0
AnchorPoint: "Anchor-3" 385 -100 basechar 0
AnchorPoint: "Anchor-2" 385 -100 basechar 0
AnchorPoint: "Anchor-1" 385 -100 basechar 0
AnchorPoint: "Anchor-0" 585 1320 basechar 0
LayerCount: 2
Fore
SplineSet
474 575 m 0,0,1
 526 575 526 575 572.5 602.5 c 128,-1,2
 619 630 619 630 658 673 c 1,3,4
 667 757 667 757 667 856 c 0,5,6
 667 929 667 929 658.5 976.5 c 128,-1,7
 650 1024 650 1024 634 1051.5 c 128,-1,8
 618 1079 618 1079 596 1089.5 c 128,-1,9
 574 1100 574 1100 547 1100 c 0,10,11
 494 1100 494 1100 458.5 1069 c 128,-1,12
 423 1038 423 1038 402 990 c 128,-1,13
 381 942 381 942 372 883.5 c 128,-1,14
 363 825 363 825 363 770 c 0,15,16
 363 716 363 716 373 679 c 128,-1,17
 383 642 383 642 399 618.5 c 128,-1,18
 415 595 415 595 434.5 585 c 128,-1,19
 454 575 454 575 474 575 c 0,0,1
942 862 m 0,20,21
 942 691 942 691 889 537 c 128,-1,22
 836 383 836 383 730 261.5 c 128,-1,23
 624 140 624 140 466.5 60 c 128,-1,24
 309 -20 309 -20 100 -43 c 1,25,-1
 87 56 l 1,26,27
 208 84 208 84 299.5 125.5 c 128,-1,28
 391 167 391 167 457 224 c 128,-1,29
 523 281 523 281 565.5 355 c 128,-1,30
 608 429 608 429 632 522 c 1,31,32
 580 475 580 475 517 444.5 c 128,-1,33
 454 414 454 414 381 414 c 0,34,35
 306 414 306 414 252.5 440 c 128,-1,36
 199 466 199 466 164.5 509 c 128,-1,37
 130 552 130 552 114 608 c 128,-1,38
 98 664 98 664 98 725 c 0,39,40
 98 817 98 817 136 908 c 128,-1,41
 174 999 174 999 240 1072 c 128,-1,42
 306 1145 306 1145 395.5 1190 c 128,-1,43
 485 1235 485 1235 589 1235 c 0,44,45
 670 1235 670 1235 735 1212.5 c 128,-1,46
 800 1190 800 1190 846 1144 c 128,-1,47
 892 1098 892 1098 917 1027.5 c 128,-1,48
 942 957 942 957 942 862 c 0,20,21
EndSplineSet
EndChar

StartChar: colon
Encoding: 58 58 29
Width: 500
Flags: W
LayerCount: 2
Fore
SplineSet
466 847 m 0,0,1
 466 812 466 812 453.5 776 c 128,-1,2
 441 740 441 740 416 711 c 128,-1,3
 391 682 391 682 354 663 c 128,-1,4
 317 644 317 644 268 644 c 0,5,6
 198 644 198 644 166 677 c 128,-1,7
 134 710 134 710 134 763 c 0,8,9
 134 796 134 796 148 831 c 128,-1,10
 162 866 162 866 187.5 895 c 128,-1,11
 213 924 213 924 250 942.5 c 128,-1,12
 287 961 287 961 334 961 c 0,13,14
 401 961 401 961 433.5 928.5 c 128,-1,15
 466 896 466 896 466 847 c 0,0,1
373 172 m 0,16,17
 373 137 373 137 360.5 101 c 128,-1,18
 348 65 348 65 323 36 c 128,-1,19
 298 7 298 7 261 -12 c 128,-1,20
 224 -31 224 -31 175 -31 c 0,21,22
 105 -31 105 -31 73 2 c 128,-1,23
 41 35 41 35 41 88 c 0,24,25
 41 121 41 121 55 156 c 128,-1,26
 69 191 69 191 94.5 220 c 128,-1,27
 120 249 120 249 157 267.5 c 128,-1,28
 194 286 194 286 241 286 c 0,29,30
 308 286 308 286 340.5 253.5 c 128,-1,31
 373 221 373 221 373 172 c 0,16,17
EndSplineSet
EndChar

StartChar: semicolon
Encoding: 59 59 30
Width: 500
Flags: W
LayerCount: 2
Fore
SplineSet
468 847 m 0,0,1
 468 812 468 812 455.5 776 c 128,-1,2
 443 740 443 740 418 711 c 128,-1,3
 393 682 393 682 356 663 c 128,-1,4
 319 644 319 644 270 644 c 0,5,6
 200 644 200 644 168 677 c 128,-1,7
 136 710 136 710 136 763 c 0,8,9
 136 796 136 796 150 831 c 128,-1,10
 164 866 164 866 189.5 895 c 128,-1,11
 215 924 215 924 252 942.5 c 128,-1,12
 289 961 289 961 336 961 c 0,13,14
 403 961 403 961 435.5 928.5 c 128,-1,15
 468 896 468 896 468 847 c 0,0,1
399 122 m 0,16,17
 399 76 399 76 383 25.5 c 128,-1,18
 367 -25 367 -25 340.5 -75.5 c 128,-1,19
 314 -126 314 -126 279 -174 c 128,-1,20
 244 -222 244 -222 205.5 -264.5 c 128,-1,21
 167 -307 167 -307 128 -340.5 c 128,-1,22
 89 -374 89 -374 54 -395 c 1,23,-1
 -10 -340 l 1,24,25
 28 -300 28 -300 57 -258 c 128,-1,26
 86 -216 86 -216 105 -175.5 c 128,-1,27
 124 -135 124 -135 133.5 -98 c 128,-1,28
 143 -61 143 -61 143 -30 c 0,29,30
 143 -12 143 -12 136 7 c 128,-1,31
 129 26 129 26 115 41 c 128,-1,32
 101 56 101 56 80 65 c 128,-1,33
 59 74 59 74 30 71 c 1,34,-1
 27 159 l 1,35,36
 39 169 39 169 61.5 181 c 128,-1,37
 84 193 84 193 112 205.5 c 128,-1,38
 140 218 140 218 171 229 c 128,-1,39
 202 240 202 240 231 249 c 128,-1,40
 260 258 260 258 285 263.5 c 128,-1,41
 310 269 310 269 326 269 c 1,42,43
 361 249 361 249 380 216.5 c 128,-1,44
 399 184 399 184 399 122 c 0,16,17
EndSplineSet
EndChar

StartChar: less
Encoding: 60 60 31
Width: 900
Flags: W
LayerCount: 2
Fore
SplineSet
867 892 m 1,0,1
 863 881 863 881 855.5 862 c 128,-1,2
 848 843 848 843 840 822 c 128,-1,3
 832 801 832 801 824.5 782 c 128,-1,4
 817 763 817 763 813 754 c 1,5,-1
 321 569 l 1,6,-1
 773 382 l 1,7,-1
 791 336 l 1,8,9
 780 326 780 326 766 312.5 c 128,-1,10
 752 299 752 299 736.5 285 c 128,-1,11
 721 271 721 271 705 258 c 128,-1,12
 689 245 689 245 674 236 c 1,13,-1
 85 480 l 1,14,-1
 60 525 l 1,15,16
 65 538 65 538 72 555 c 128,-1,17
 79 572 79 572 86.5 590 c 128,-1,18
 94 608 94 608 101.5 625 c 128,-1,19
 109 642 109 642 115 654 c 1,20,-1
 839 927 l 1,21,-1
 867 892 l 1,0,1
EndSplineSet
EndChar

StartChar: equal
Encoding: 61 61 32
Width: 900
Flags: W
LayerCount: 2
Fore
SplineSet
850 756 m 1,0,1
 846 745 846 745 837.5 728 c 128,-1,2
 829 711 829 711 819 693 c 128,-1,3
 809 675 809 675 800 659 c 128,-1,4
 791 643 791 643 787 635 c 1,5,-1
 107 635 l 1,6,-1
 81 669 l 1,7,8
 85 680 85 680 93 696.5 c 128,-1,9
 101 713 101 713 110.5 730.5 c 128,-1,10
 120 748 120 748 129 764 c 128,-1,11
 138 780 138 780 144 790 c 1,12,-1
 823 790 l 1,13,-1
 850 756 l 1,0,1
809 456 m 1,14,15
 805 445 805 445 796.5 428 c 128,-1,16
 788 411 788 411 778 393 c 128,-1,17
 768 375 768 375 759 359 c 128,-1,18
 750 343 750 343 746 335 c 1,19,-1
 66 335 l 1,20,-1
 40 369 l 1,21,22
 44 380 44 380 52 396.5 c 128,-1,23
 60 413 60 413 69.5 430.5 c 128,-1,24
 79 448 79 448 88 464 c 128,-1,25
 97 480 97 480 103 490 c 1,26,-1
 782 490 l 1,27,-1
 809 456 l 1,14,15
EndSplineSet
EndChar

StartChar: greater
Encoding: 62 62 33
Width: 900
Flags: W
LayerCount: 2
Fore
SplineSet
831 638 m 1,0,1
 826 624 826 624 819 606.5 c 128,-1,2
 812 589 812 589 804.5 571.5 c 128,-1,3
 797 554 797 554 789.5 537.5 c 128,-1,4
 782 521 782 521 776 509 c 1,5,-1
 51 236 l 1,6,-1
 25 271 l 1,7,8
 28 281 28 281 35.5 300.5 c 128,-1,9
 43 320 43 320 51 341 c 128,-1,10
 59 362 59 362 67 381 c 128,-1,11
 75 400 75 400 79 409 c 1,12,-1
 570 594 l 1,13,-1
 118 781 l 1,14,-1
 101 827 l 1,15,16
 112 837 112 837 126 850.5 c 128,-1,17
 140 864 140 864 155 878 c 128,-1,18
 170 892 170 892 186 905 c 128,-1,19
 202 918 202 918 217 927 c 1,20,-1
 805 683 l 1,21,-1
 831 638 l 1,0,1
EndSplineSet
EndChar

StartChar: question
Encoding: 63 63 34
Width: 900
Flags: W
LayerCount: 2
Fore
SplineSet
543 172 m 0,0,1
 543 137 543 137 530.5 101 c 128,-1,2
 518 65 518 65 493 36 c 128,-1,3
 468 7 468 7 431 -12 c 128,-1,4
 394 -31 394 -31 345 -31 c 0,5,6
 275 -31 275 -31 243 2 c 128,-1,7
 211 35 211 35 211 88 c 0,8,9
 211 121 211 121 225 156 c 128,-1,10
 239 191 239 191 264.5 220 c 128,-1,11
 290 249 290 249 327 267.5 c 128,-1,12
 364 286 364 286 411 286 c 0,13,14
 478 286 478 286 510.5 253.5 c 128,-1,15
 543 221 543 221 543 172 c 0,0,1
919 1186 m 0,16,17
 919 1103 919 1103 889.5 1038 c 128,-1,18
 860 973 860 973 815 918.5 c 128,-1,19
 770 864 770 864 716.5 816 c 128,-1,20
 663 768 663 768 615.5 720 c 128,-1,21
 568 672 568 672 533 620 c 128,-1,22
 498 568 498 568 490 505 c 2,23,-1
 479 419 l 1,24,25
 470 412 470 412 455.5 404.5 c 128,-1,26
 441 397 441 397 424.5 390.5 c 128,-1,27
 408 384 408 384 392 378 c 128,-1,28
 376 372 376 372 364 368 c 1,29,-1
 341 389 l 1,30,-1
 346 515 l 2,31,32
 349 577 349 577 371.5 631 c 128,-1,33
 394 685 394 685 426.5 734 c 128,-1,34
 459 783 459 783 496.5 829 c 128,-1,35
 534 875 534 875 565.5 922.5 c 128,-1,36
 597 970 597 970 618 1020.5 c 128,-1,37
 639 1071 639 1071 639 1128 c 0,38,39
 639 1166 639 1166 631.5 1200 c 128,-1,40
 624 1234 624 1234 610 1259.5 c 128,-1,41
 596 1285 596 1285 574.5 1300 c 128,-1,42
 553 1315 553 1315 525 1315 c 0,43,44
 495 1315 495 1315 472.5 1297.5 c 128,-1,45
 450 1280 450 1280 437 1249 c 128,-1,46
 424 1218 424 1218 421.5 1177 c 128,-1,47
 419 1136 419 1136 428 1088 c 1,48,49
 406 1078 406 1078 371.5 1066.5 c 128,-1,50
 337 1055 337 1055 300 1045.5 c 128,-1,51
 263 1036 263 1036 228.5 1028.5 c 128,-1,52
 194 1021 194 1021 172 1019 c 1,53,-1
 142 1060 l 1,54,55
 142 1124 142 1124 177 1189.5 c 128,-1,56
 212 1255 212 1255 275 1308.5 c 128,-1,57
 338 1362 338 1362 426 1396 c 128,-1,58
 514 1430 514 1430 621 1430 c 0,59,60
 692 1430 692 1430 747.5 1411 c 128,-1,61
 803 1392 803 1392 841 1359 c 128,-1,62
 879 1326 879 1326 899 1281.5 c 128,-1,63
 919 1237 919 1237 919 1186 c 0,16,17
EndSplineSet
EndChar

StartChar: at
Encoding: 64 64 35
Width: 1729
Flags: W
LayerCount: 2
Fore
SplineSet
948 334 m 1,0,1
 952 373 952 373 960.5 427 c 128,-1,2
 969 481 969 481 978 537 c 128,-1,3
 987 593 987 593 996.5 645 c 128,-1,4
 1006 697 1006 697 1012 733 c 1,5,6
 989 753 989 753 965 767 c 128,-1,7
 941 781 941 781 918 781 c 0,8,9
 880 781 880 781 849 762 c 128,-1,10
 818 743 818 743 793.5 711.5 c 128,-1,11
 769 680 769 680 751.5 639 c 128,-1,12
 734 598 734 598 722 553.5 c 128,-1,13
 710 509 710 509 704.5 463.5 c 128,-1,14
 699 418 699 418 699 379 c 0,15,16
 699 326 699 326 706 287.5 c 128,-1,17
 713 249 713 249 723.5 224 c 128,-1,18
 734 199 734 199 746 187.5 c 128,-1,19
 758 176 758 176 768 176 c 0,20,21
 781 176 781 176 798.5 184 c 128,-1,22
 816 192 816 192 838.5 210 c 128,-1,23
 861 228 861 228 888.5 258.5 c 128,-1,24
 916 289 916 289 948 334 c 1,0,1
1659 549 m 0,25,26
 1647 462 1647 462 1611.5 385 c 128,-1,27
 1576 308 1576 308 1526.5 242.5 c 128,-1,28
 1477 177 1477 177 1418 124.5 c 128,-1,29
 1359 72 1359 72 1300 35 c 128,-1,30
 1241 -2 1241 -2 1187 -21.5 c 128,-1,31
 1133 -41 1133 -41 1094 -41 c 0,32,33
 1079 -41 1079 -41 1058.5 -32.5 c 128,-1,34
 1038 -24 1038 -24 1017.5 -1.5 c 128,-1,35
 997 21 997 21 979 60.5 c 128,-1,36
 961 100 961 100 952 162 c 1,37,38
 926 121 926 121 892 84 c 128,-1,39
 858 47 858 47 821 19 c 128,-1,40
 784 -9 784 -9 746 -25 c 128,-1,41
 708 -41 708 -41 675 -41 c 0,42,43
 641 -41 641 -41 600.5 -22 c 128,-1,44
 560 -3 560 -3 524.5 38.5 c 128,-1,45
 489 80 489 80 465.5 145.5 c 128,-1,46
 442 211 442 211 442 305 c 0,47,48
 442 384 442 384 462 459.5 c 128,-1,49
 482 535 482 535 520.5 604 c 128,-1,50
 559 673 559 673 614 733.5 c 128,-1,51
 669 794 669 794 740 842 c 0,52,53
 767 860 767 860 804 877 c 128,-1,54
 841 894 841 894 880.5 907 c 128,-1,55
 920 920 920 920 959 928 c 128,-1,56
 998 936 998 936 1030 936 c 0,57,58
 1071 936 1071 936 1110.5 918 c 128,-1,59
 1150 900 1150 900 1185 880 c 1,60,61
 1221 896 1221 896 1255 910 c 128,-1,62
 1289 924 1289 924 1315 936 c 1,63,-1
 1350 861 l 1,64,65
 1333 847 1333 847 1321 836 c 128,-1,66
 1309 825 1309 825 1300 810.5 c 128,-1,67
 1291 796 1291 796 1284.5 775 c 128,-1,68
 1278 754 1278 754 1271 720 c 0,69,70
 1256 648 1256 648 1244.5 583.5 c 128,-1,71
 1233 519 1233 519 1225.5 465 c 128,-1,72
 1218 411 1218 411 1214 371 c 128,-1,73
 1210 331 1210 331 1210 309 c 0,74,75
 1210 247 1210 247 1226 215.5 c 128,-1,76
 1242 184 1242 184 1266 184 c 0,77,78
 1317 184 1317 184 1355.5 262 c 128,-1,79
 1394 340 1394 340 1420 510 c 0,80,81
 1445 679 1445 679 1417.5 804 c 128,-1,82
 1390 929 1390 929 1324 1011 c 128,-1,83
 1258 1093 1258 1093 1162 1133.5 c 128,-1,84
 1066 1174 1066 1174 955 1174 c 0,85,86
 835 1174 835 1174 729 1120 c 128,-1,87
 623 1066 623 1066 540.5 974 c 128,-1,88
 458 882 458 882 402 760.5 c 128,-1,89
 346 639 346 639 327 504 c 0,90,91
 310 383 310 383 324 283.5 c 128,-1,92
 338 184 338 184 375 105 c 128,-1,93
 412 26 412 26 468.5 -32.5 c 128,-1,94
 525 -91 525 -91 593.5 -129.5 c 128,-1,95
 662 -168 662 -168 738.5 -187 c 128,-1,96
 815 -206 815 -206 893 -206 c 0,97,98
 948 -206 948 -206 1002.5 -195.5 c 128,-1,99
 1057 -185 1057 -185 1109 -168 c 128,-1,100
 1161 -151 1161 -151 1208.5 -129.5 c 128,-1,101
 1256 -108 1256 -108 1296.5 -85 c 128,-1,102
 1337 -62 1337 -62 1369 -40.5 c 128,-1,103
 1401 -19 1401 -19 1422 -2 c 1,104,-1
 1458 -107 l 1,105,106
 1420 -145 1420 -145 1357 -191.5 c 128,-1,107
 1294 -238 1294 -238 1210.5 -279 c 128,-1,108
 1127 -320 1127 -320 1025.5 -347.5 c 128,-1,109
 924 -375 924 -375 809 -375 c 0,110,111
 693 -375 693 -375 588 -348.5 c 128,-1,112
 483 -322 483 -322 393.5 -271 c 128,-1,113
 304 -220 304 -220 234 -147 c 128,-1,114
 164 -74 164 -74 119.5 19.5 c 128,-1,115
 75 113 75 113 58.5 225 c 128,-1,116
 42 337 42 337 60 465 c 0,117,118
 76 577 76 577 119 685.5 c 128,-1,119
 162 794 162 794 228.5 890 c 128,-1,120
 295 986 295 986 382 1067.5 c 128,-1,121
 469 1149 469 1149 572.5 1208 c 128,-1,122
 676 1267 676 1267 794 1300 c 128,-1,123
 912 1333 912 1333 1039 1333 c 0,124,125
 1183 1333 1183 1333 1308 1281 c 128,-1,126
 1433 1229 1433 1229 1520 1128.5 c 128,-1,127
 1607 1028 1607 1028 1646.5 882 c 128,-1,128
 1686 736 1686 736 1659 549 c 0,25,26
EndSplineSet
EndChar

StartChar: A
Encoding: 65 65 36
Width: 1210
GlyphClass: 2
Flags: W
AnchorPoint: "Anchor-4" 1210 870 basechar 0
AnchorPoint: "Anchor-3" 877 0 basechar 0
AnchorPoint: "Anchor-2" 920 0 basechar 0
AnchorPoint: "Anchor-1" 533 -100 basechar 0
AnchorPoint: "Anchor-0" 717 1320 basechar 0
LayerCount: 2
Fore
SplineSet
371 424 m 1,0,-1
 249 151 l 2,1,2
 236 120 236 120 265 106 c 128,-1,3
 294 92 294 92 369 83 c 1,4,-1
 358 0 l 1,5,-1
 -55 0 l 1,6,-1
 -44 83 l 1,7,8
 21 95 21 95 55.5 108 c 128,-1,9
 90 121 90 121 103 151 c 2,10,-1
 564 1197 l 1,11,12
 593 1220 593 1220 625.5 1238.5 c 128,-1,13
 658 1257 658 1257 691.5 1272 c 128,-1,14
 725 1287 725 1287 758 1298 c 128,-1,15
 791 1309 791 1309 820 1317 c 1,16,-1
 1050 151 l 2,17,18
 1053 137 1053 137 1058.5 126 c 128,-1,19
 1064 115 1064 115 1075 107 c 128,-1,20
 1086 99 1086 99 1105 93 c 128,-1,21
 1124 87 1124 87 1154 83 c 1,22,-1
 1143 0 l 1,23,-1
 657 0 l 1,24,-1
 668 83 l 1,25,26
 741 88 741 88 768.5 103 c 128,-1,27
 796 118 796 118 790 151 c 2,28,-1
 737 424 l 1,29,-1
 371 424 l 1,0,-1
712 555 m 1,30,-1
 623 1003 l 1,31,-1
 429 555 l 1,32,-1
 712 555 l 1,30,-1
EndSplineSet
EndChar

StartChar: B
Encoding: 66 66 37
Width: 1114
GlyphClass: 2
Flags: W
AnchorPoint: "Anchor-4" 1114 870 basechar 0
AnchorPoint: "Anchor-3" 468 -100 basechar 0
AnchorPoint: "Anchor-2" 468 -100 basechar 0
AnchorPoint: "Anchor-1" 468 -100 basechar 0
AnchorPoint: "Anchor-0" 653 1320 basechar 0
LayerCount: 2
Fore
SplineSet
533 1176 m 1,0,-1
 472 745 l 1,1,-1
 505 745 l 2,2,3
 552 745 552 745 599.5 759 c 128,-1,4
 647 773 647 773 685.5 802.5 c 128,-1,5
 724 832 724 832 748 878 c 128,-1,6
 772 924 772 924 772 987 c 0,7,8
 772 1041 772 1041 753.5 1077 c 128,-1,9
 735 1113 735 1113 706 1135 c 128,-1,10
 677 1157 677 1157 641 1166.5 c 128,-1,11
 605 1176 605 1176 571 1176 c 2,12,-1
 533 1176 l 1,0,-1
558 629 m 0,13,14
 537 629 537 629 522 628 c 128,-1,15
 507 627 507 627 495.5 625 c 128,-1,16
 484 623 484 623 474 621 c 128,-1,17
 464 619 464 619 454 616 c 1,18,-1
 388 144 l 1,19,20
 385 135 385 135 404 121 c 1,21,22
 436 105 436 105 471.5 99 c 128,-1,23
 507 93 507 93 547 93 c 0,24,25
 604 93 604 93 647.5 114.5 c 128,-1,26
 691 136 691 136 720 173.5 c 128,-1,27
 749 211 749 211 763.5 262.5 c 128,-1,28
 778 314 778 314 778 375 c 0,29,30
 778 425 778 425 767.5 471 c 128,-1,31
 757 517 757 517 731.5 552 c 128,-1,32
 706 587 706 587 663.5 608 c 128,-1,33
 621 629 621 629 558 629 c 0,13,14
1054 410 m 0,34,35
 1054 312 1054 312 1011 231 c 128,-1,36
 968 150 968 150 893.5 92 c 128,-1,37
 819 34 819 34 718 1.5 c 128,-1,38
 617 -31 617 -31 501 -31 c 0,39,40
 481 -31 481 -31 450.5 -30 c 128,-1,41
 420 -29 420 -29 384 -26.5 c 128,-1,42
 348 -24 348 -24 309 -21.5 c 128,-1,43
 270 -19 270 -19 233 -16 c 0,44,45
 145 -9 145 -9 46 0 c 1,46,-1
 -10 0 l 1,47,-1
 -4 83 l 1,48,49
 59 97 59 97 92 113.5 c 128,-1,50
 125 130 125 130 127 144 c 2,51,-1
 269 1160 l 1,52,53
 229 1155 229 1155 195.5 1148.5 c 128,-1,54
 162 1142 162 1142 131 1135 c 1,55,-1
 131 1227 l 1,56,57
 177 1240 177 1240 233 1251.5 c 128,-1,58
 289 1263 289 1263 351.5 1271.5 c 128,-1,59
 414 1280 414 1280 481.5 1285 c 128,-1,60
 549 1290 549 1290 618 1290 c 0,61,62
 838 1290 838 1290 943 1223.5 c 128,-1,63
 1048 1157 1048 1157 1048 1040 c 0,64,65
 1048 935 1048 935 983 852 c 128,-1,66
 918 769 918 769 787 723 c 1,67,68
 845 716 845 716 894.5 688.5 c 128,-1,69
 944 661 944 661 979 619 c 128,-1,70
 1014 577 1014 577 1034 523.5 c 128,-1,71
 1054 470 1054 470 1054 410 c 0,34,35
EndSplineSet
EndChar

StartChar: C
Encoding: 67 67 38
Width: 1055
GlyphClass: 2
Flags: W
AnchorPoint: "Anchor-4" 1055 870 basechar 0
AnchorPoint: "Anchor-3" 521 -100 basechar 0
AnchorPoint: "Anchor-2" 495 0 basechar 0
AnchorPoint: "Anchor-1" 521 -100 basechar 0
AnchorPoint: "Anchor-0" 706 1320 basechar 0
LayerCount: 2
Fore
SplineSet
1096 1190 m 0,0,1
 1098 1187 1098 1187 1091.5 1170 c 128,-1,2
 1085 1153 1085 1153 1073 1128.5 c 128,-1,3
 1061 1104 1061 1104 1045.5 1075.5 c 128,-1,4
 1030 1047 1030 1047 1014 1021 c 128,-1,5
 998 995 998 995 984 974.5 c 128,-1,6
 970 954 970 954 961 947 c 1,7,-1
 891 965 l 1,8,9
 880 1000 880 1000 862 1033 c 128,-1,10
 844 1066 844 1066 818.5 1092 c 128,-1,11
 793 1118 793 1118 760 1133.5 c 128,-1,12
 727 1149 727 1149 686 1149 c 0,13,14
 646 1149 646 1149 613.5 1140 c 128,-1,15
 581 1131 581 1131 541 1100 c 0,16,17
 478 1051 478 1051 436.5 977 c 128,-1,18
 395 903 395 903 371 821.5 c 128,-1,19
 347 740 347 740 337 659.5 c 128,-1,20
 327 579 327 579 327 516 c 0,21,22
 327 407 327 407 354.5 336 c 128,-1,23
 382 265 382 265 423 223 c 128,-1,24
 464 181 464 181 512.5 164 c 128,-1,25
 561 147 561 147 603 146 c 0,26,27
 627 146 627 146 659 151 c 128,-1,28
 691 156 691 156 731.5 171 c 128,-1,29
 772 186 772 186 823.5 213.5 c 128,-1,30
 875 241 875 241 938 286 c 1,31,32
 943 284 943 284 949 273 c 128,-1,33
 955 262 955 262 960.5 249 c 128,-1,34
 966 236 966 236 970.5 225 c 128,-1,35
 975 214 975 214 977 211 c 1,36,37
 909 144 909 144 841.5 98.5 c 128,-1,38
 774 53 774 53 711 25 c 128,-1,39
 648 -3 648 -3 591 -15 c 128,-1,40
 534 -27 534 -27 487 -27 c 0,41,42
 397 -27 397 -27 318 5.5 c 128,-1,43
 239 38 239 38 181 100 c 128,-1,44
 123 162 123 162 89.5 252.5 c 128,-1,45
 56 343 56 343 56 459 c 0,46,47
 56 553 56 553 76 650.5 c 128,-1,48
 96 748 96 748 137 840.5 c 128,-1,49
 178 933 178 933 240.5 1016.5 c 128,-1,50
 303 1100 303 1100 387 1167 c 0,51,52
 423 1195 423 1195 469 1218 c 128,-1,53
 515 1241 515 1241 564.5 1257 c 128,-1,54
 614 1273 614 1273 665 1281.5 c 128,-1,55
 716 1290 716 1290 763 1290 c 0,56,57
 812 1290 812 1290 862 1282 c 128,-1,58
 912 1274 912 1274 957 1260.5 c 128,-1,59
 1002 1247 1002 1247 1038 1229 c 128,-1,60
 1074 1211 1074 1211 1096 1190 c 0,0,1
EndSplineSet
EndChar

StartChar: D
Encoding: 68 68 39
Width: 1238
GlyphClass: 2
Flags: W
AnchorPoint: "Anchor-4" 1238 870 basechar 0
AnchorPoint: "Anchor-3" 529 -100 basechar 0
AnchorPoint: "Anchor-2" 529 -100 basechar 0
AnchorPoint: "Anchor-1" 529 -100 basechar 0
AnchorPoint: "Anchor-0" 714 1320 basechar 0
LayerCount: 2
Fore
SplineSet
594 1176 m 0,0,1
 579 1176 579 1176 564 1174 c 128,-1,2
 549 1172 549 1172 534 1171 c 1,3,-1
 399 169 l 2,4,5
 395 140 395 140 421 127 c 128,-1,6
 447 114 447 114 515 114 c 0,7,8
 582 114 582 114 639.5 140 c 128,-1,9
 697 166 697 166 744 210.5 c 128,-1,10
 791 255 791 255 826.5 315 c 128,-1,11
 862 375 862 375 886 443 c 128,-1,12
 910 511 910 511 922.5 584 c 128,-1,13
 935 657 935 657 935 727 c 0,14,15
 935 834 935 834 917 917.5 c 128,-1,16
 899 1001 899 1001 858.5 1058.5 c 128,-1,17
 818 1116 818 1116 753 1146 c 128,-1,18
 688 1176 688 1176 594 1176 c 0,0,1
1217 755 m 0,19,20
 1217 667 1217 667 1195 577 c 128,-1,21
 1173 487 1173 487 1130.5 403 c 128,-1,22
 1088 319 1088 319 1027.5 245.5 c 128,-1,23
 967 172 967 172 889.5 117.5 c 128,-1,24
 812 63 812 63 719.5 31.5 c 128,-1,25
 627 0 627 0 521 0 c 2,26,-1
 -10 0 l 1,27,-1
 0 83 l 1,28,29
 63 97 63 97 96 113.5 c 128,-1,30
 129 130 129 130 131 144 c 2,31,-1
 270 1148 l 1,32,-1
 133 1126 l 1,33,-1
 133 1229 l 1,34,35
 190 1243 190 1243 255 1254 c 128,-1,36
 320 1265 320 1265 385 1273 c 128,-1,37
 450 1281 450 1281 512.5 1285.5 c 128,-1,38
 575 1290 575 1290 626 1290 c 0,39,40
 781 1290 781 1290 892.5 1253 c 128,-1,41
 1004 1216 1004 1216 1076 1146.5 c 128,-1,42
 1148 1077 1148 1077 1182.5 978 c 128,-1,43
 1217 879 1217 879 1217 755 c 0,19,20
EndSplineSet
EndChar

StartChar: E
Encoding: 69 69 40
Width: 1030
GlyphClass: 2
Flags: W
AnchorPoint: "Anchor-4" 1030 870 basechar 0
AnchorPoint: "Anchor-3" 668 0 basechar 0
AnchorPoint: "Anchor-2" 458 0 basechar 0
AnchorPoint: "Anchor-1" 444 -100 basechar 0
AnchorPoint: "Anchor-0" 628 1320 basechar 0
LayerCount: 2
Fore
SplineSet
977 324 m 1,0,1
 968 281 968 281 956 230.5 c 128,-1,2
 944 180 944 180 932.5 133.5 c 128,-1,3
 921 87 921 87 911 51 c 128,-1,4
 901 15 901 15 895 0 c 1,5,-1
 -10 0 l 1,6,-1
 1 83 l 1,7,8
 66 97 66 97 99.5 113.5 c 128,-1,9
 133 130 133 130 135 144 c 2,10,-1
 268 1115 l 2,11,12
 270 1127 270 1127 243 1145 c 128,-1,13
 216 1163 216 1163 151 1177 c 1,14,-1
 162 1260 l 1,15,-1
 1005 1260 l 1,16,-1
 1040 1225 l 1,17,18
 1035 1199 1035 1199 1025.5 1157 c 128,-1,19
 1016 1115 1016 1115 1004.5 1071 c 128,-1,20
 993 1027 993 1027 981.5 988 c 128,-1,21
 970 949 970 949 962 930 c 1,22,-1
 883 930 l 1,23,24
 891 1023 891 1023 879.5 1076.5 c 128,-1,25
 868 1130 868 1130 833 1130 c 2,26,-1
 530 1130 l 1,27,-1
 476 735 l 1,28,-1
 843 735 l 1,29,-1
 872 697 l 1,30,31
 863 683 863 683 849.5 663 c 128,-1,32
 836 643 836 643 821.5 622.5 c 128,-1,33
 807 602 807 602 792.5 585 c 128,-1,34
 778 568 778 568 767 560 c 1,35,36
 755 575 755 575 740.5 585 c 128,-1,37
 726 595 726 595 706 602 c 128,-1,38
 686 609 686 609 658 612 c 128,-1,39
 630 615 630 615 591 615 c 2,40,-1
 459 615 l 1,41,-1
 402 194 l 2,42,43
 400 179 400 179 405 167.5 c 128,-1,44
 410 156 410 156 429 147.5 c 128,-1,45
 448 139 448 139 484.5 134.5 c 128,-1,46
 521 130 521 130 583 130 c 2,47,-1
 666 130 l 2,48,49
 709 130 709 130 741 142.5 c 128,-1,50
 773 155 773 155 800 182 c 128,-1,51
 827 209 827 209 851.5 251 c 128,-1,52
 876 293 876 293 904 352 c 1,53,-1
 977 324 l 1,0,1
EndSplineSet
EndChar

StartChar: F
Encoding: 70 70 41
Width: 974
GlyphClass: 2
Flags: W
AnchorPoint: "Anchor-4" 974 870 basechar 0
AnchorPoint: "Anchor-3" 419 -100 basechar 0
AnchorPoint: "Anchor-2" 419 -100 basechar 0
AnchorPoint: "Anchor-1" 419 -100 basechar 0
AnchorPoint: "Anchor-0" 603 1320 basechar 0
LayerCount: 2
Fore
SplineSet
846 697 m 1,0,1
 835 679 835 679 821 658.5 c 128,-1,2
 807 638 807 638 793 618.5 c 128,-1,3
 779 599 779 599 765 583.5 c 128,-1,4
 751 568 751 568 740 560 c 1,5,6
 728 575 728 575 714 585 c 128,-1,7
 700 595 700 595 679.5 602 c 128,-1,8
 659 609 659 609 631 612 c 128,-1,9
 603 615 603 615 564 615 c 2,10,-1
 459 615 l 1,11,-1
 395 144 l 2,12,13
 394 138 394 138 400 131 c 128,-1,14
 406 124 406 124 422.5 116.5 c 128,-1,15
 439 109 439 109 467.5 100.5 c 128,-1,16
 496 92 496 92 541 83 c 1,17,-1
 530 0 l 1,18,-1
 -10 0 l 1,19,-1
 1 83 l 1,20,21
 66 97 66 97 99.5 113.5 c 128,-1,22
 133 130 133 130 135 144 c 2,23,-1
 268 1115 l 2,24,25
 270 1127 270 1127 243 1145 c 128,-1,26
 216 1163 216 1163 151 1177 c 1,27,-1
 162 1260 l 1,28,-1
 1014 1260 l 1,29,-1
 1047 1225 l 1,30,31
 1043 1199 1043 1199 1033.5 1157 c 128,-1,32
 1024 1115 1024 1115 1013 1071 c 128,-1,33
 1002 1027 1002 1027 990.5 988 c 128,-1,34
 979 949 979 949 971 930 c 1,35,-1
 890 930 l 1,36,37
 900 1023 900 1023 888 1076.5 c 128,-1,38
 876 1130 876 1130 841 1130 c 2,39,-1
 530 1130 l 1,40,-1
 476 735 l 1,41,-1
 815 735 l 1,42,-1
 846 697 l 1,0,1
EndSplineSet
EndChar

StartChar: G
Encoding: 71 71 42
Width: 1136
GlyphClass: 2
Flags: W
AnchorPoint: "Anchor-4" 1136 870 basechar 0
AnchorPoint: "Anchor-3" 557 -100 basechar 0
AnchorPoint: "Anchor-2" 550 0 basechar 0
AnchorPoint: "Anchor-1" 557 -100 basechar 0
AnchorPoint: "Anchor-0" 742 1320 basechar 0
LayerCount: 2
Fore
SplineSet
1140 549 m 1,0,1
 1086 533 1086 533 1062 511.5 c 128,-1,2
 1038 490 1038 490 1035 467 c 0,3,4
 1031 440 1031 440 1026 398 c 128,-1,5
 1021 356 1021 356 1015.5 312.5 c 128,-1,6
 1010 269 1010 269 1005.5 231 c 128,-1,7
 1001 193 1001 193 999 174 c 1,8,9
 923 113 923 113 856 73.5 c 128,-1,10
 789 34 789 34 730.5 10.5 c 128,-1,11
 672 -13 672 -13 622 -22 c 128,-1,12
 572 -31 572 -31 532 -31 c 0,13,14
 438 -31 438 -31 352 5.5 c 128,-1,15
 266 42 266 42 200 110.5 c 128,-1,16
 134 179 134 179 95 276 c 128,-1,17
 56 373 56 373 56 493 c 0,18,19
 56 588 56 588 77.5 679 c 128,-1,20
 99 770 99 770 138 852 c 128,-1,21
 177 934 177 934 231 1005.5 c 128,-1,22
 285 1077 285 1077 351 1133 c 0,23,24
 394 1170 394 1170 441 1199 c 128,-1,25
 488 1228 488 1228 543 1248 c 128,-1,26
 598 1268 598 1268 662 1279 c 128,-1,27
 726 1290 726 1290 803 1290 c 0,28,29
 840 1290 840 1290 887 1283 c 128,-1,30
 934 1276 934 1276 980.5 1263 c 128,-1,31
 1027 1250 1027 1250 1068 1231 c 128,-1,32
 1109 1212 1109 1212 1135 1188 c 0,33,34
 1139 1184 1139 1184 1133 1167 c 128,-1,35
 1127 1150 1127 1150 1115 1126 c 128,-1,36
 1103 1102 1103 1102 1086.5 1073.5 c 128,-1,37
 1070 1045 1070 1045 1053.5 1019.5 c 128,-1,38
 1037 994 1037 994 1022 974 c 128,-1,39
 1007 954 1007 954 998 947 c 1,40,-1
 930 963 l 1,41,42
 915 1002 915 1002 894.5 1037.5 c 128,-1,43
 874 1073 874 1073 845 1100.5 c 128,-1,44
 816 1128 816 1128 777 1144.5 c 128,-1,45
 738 1161 738 1161 687 1161 c 0,46,47
 641 1161 641 1161 593 1138 c 128,-1,48
 545 1115 545 1115 496 1065 c 0,49,50
 461 1029 461 1029 429.5 968 c 128,-1,51
 398 907 398 907 375 834.5 c 128,-1,52
 352 762 352 762 338.5 684 c 128,-1,53
 325 606 325 606 325 536 c 0,54,55
 325 429 325 429 351 353.5 c 128,-1,56
 377 278 377 278 418 230 c 128,-1,57
 459 182 459 182 509.5 160 c 128,-1,58
 560 138 560 138 610 138 c 0,59,60
 637 138 637 138 672.5 144 c 128,-1,61
 708 150 708 150 743 176 c 1,62,-1
 786 467 l 2,63,64
 787 477 787 477 783.5 487 c 128,-1,65
 780 497 780 497 759.5 507 c 128,-1,66
 739 517 739 517 696.5 527 c 128,-1,67
 654 537 654 537 579 549 c 1,68,-1
 585 632 l 1,69,-1
 1146 632 l 1,70,-1
 1140 549 l 1,0,1
EndSplineSet
EndChar

StartChar: H
Encoding: 72 72 43
Width: 1329
GlyphClass: 2
Flags: W
AnchorPoint: "Anchor-4" 1329 870 basechar 0
AnchorPoint: "Anchor-3" 600 -100 basechar 0
AnchorPoint: "Anchor-2" 295 0 basechar 0
AnchorPoint: "Anchor-1" 600 -100 basechar 0
AnchorPoint: "Anchor-0" 790 1320 basechar 0
LayerCount: 2
Fore
SplineSet
663 1177 m 1,0,1
 597 1163 597 1163 563.5 1146 c 128,-1,2
 530 1129 530 1129 528 1115 c 2,3,-1
 474 725 l 1,4,-1
 930 725 l 1,5,-1
 984 1115 l 2,6,7
 985 1127 985 1127 958.5 1145 c 128,-1,8
 932 1163 932 1163 867 1177 c 1,9,-1
 878 1260 l 1,10,-1
 1390 1260 l 1,11,-1
 1379 1177 l 1,12,13
 1313 1163 1313 1163 1279.5 1146 c 128,-1,14
 1246 1129 1246 1129 1244 1115 c 2,15,-1
 1111 144 l 2,16,17
 1109 132 1109 132 1136 114.5 c 128,-1,18
 1163 97 1163 97 1229 83 c 1,19,-1
 1218 0 l 1,20,-1
 706 0 l 1,21,-1
 717 83 l 1,22,23
 782 97 782 97 815.5 113.5 c 128,-1,24
 849 130 849 130 851 144 c 2,25,-1
 913 595 l 1,26,-1
 457 595 l 1,27,-1
 395 144 l 2,28,29
 393 132 393 132 419.5 114.5 c 128,-1,30
 446 97 446 97 513 83 c 1,31,-1
 502 0 l 1,32,-1
 -10 0 l 1,33,-1
 1 83 l 1,34,35
 66 97 66 97 99.5 113.5 c 128,-1,36
 133 130 133 130 135 144 c 2,37,-1
 268 1115 l 2,38,39
 270 1127 270 1127 243 1145 c 128,-1,40
 216 1163 216 1163 151 1177 c 1,41,-1
 162 1260 l 1,42,-1
 674 1260 l 1,43,-1
 663 1177 l 1,0,1
EndSplineSet
EndChar

StartChar: I
Encoding: 73 73 44
Width: 652
GlyphClass: 2
Flags: W
AnchorPoint: "Anchor-4" 652 870 basechar 0
AnchorPoint: "Anchor-3" 324 0 basechar 0
AnchorPoint: "Anchor-2" 255 0 basechar 0
AnchorPoint: "Anchor-1" 250 -100 basechar 0
AnchorPoint: "Anchor-0" 435 1320 basechar 0
LayerCount: 2
Fore
SplineSet
682 1177 m 1,0,1
 617 1163 617 1163 583.5 1146 c 128,-1,2
 550 1129 550 1129 548 1115 c 2,3,-1
 415 144 l 2,4,5
 413 132 413 132 439.5 114.5 c 128,-1,6
 466 97 466 97 532 83 c 1,7,-1
 521 0 l 1,8,-1
 10 0 l 1,9,-1
 21 83 l 1,10,11
 85 97 85 97 118.5 113.5 c 128,-1,12
 152 130 152 130 154 144 c 2,13,-1
 287 1115 l 2,14,15
 289 1127 289 1127 262.5 1145 c 128,-1,16
 236 1163 236 1163 171 1177 c 1,17,-1
 182 1260 l 1,18,-1
 693 1260 l 1,19,-1
 682 1177 l 1,0,1
EndSplineSet
EndChar

StartChar: J
Encoding: 74 74 45
Width: 658
GlyphClass: 2
Flags: W
AnchorPoint: "Anchor-4" 658 870 basechar 0
AnchorPoint: "Anchor-3" 205 -600 basechar 0
AnchorPoint: "Anchor-2" 205 -600 basechar 0
AnchorPoint: "Anchor-1" 205 -600 basechar 0
AnchorPoint: "Anchor-0" 469 1320 basechar 0
LayerCount: 2
Fore
SplineSet
706 1177 m 1,0,1
 643 1163 643 1163 608 1146 c 128,-1,2
 573 1129 573 1129 571 1115 c 2,3,-1
 450 205 l 2,4,5
 435 95 435 95 401.5 16.5 c 128,-1,6
 368 -62 368 -62 326 -119 c 128,-1,7
 284 -176 284 -176 237.5 -216.5 c 128,-1,8
 191 -257 191 -257 150 -289 c 0,9,10
 123 -310 123 -310 86.5 -330.5 c 128,-1,11
 50 -351 50 -351 10 -366.5 c 128,-1,12
 -30 -382 -30 -382 -70.5 -391.5 c 128,-1,13
 -111 -401 -111 -401 -145 -401 c 0,14,15
 -185 -401 -185 -401 -224 -390 c 128,-1,16
 -263 -379 -263 -379 -294 -363.5 c 128,-1,17
 -325 -348 -325 -348 -344.5 -330.5 c 128,-1,18
 -364 -313 -364 -313 -364 -301 c 0,19,20
 -364 -294 -364 -294 -352 -277.5 c 128,-1,21
 -340 -261 -340 -261 -321.5 -241 c 128,-1,22
 -303 -221 -303 -221 -280.5 -200 c 128,-1,23
 -258 -179 -258 -179 -237 -161.5 c 128,-1,24
 -216 -144 -216 -144 -198.5 -132.5 c 128,-1,25
 -181 -121 -181 -121 -173 -121 c 0,26,27
 -163 -121 -163 -121 -146.5 -136 c 128,-1,28
 -130 -151 -130 -151 -107.5 -169.5 c 128,-1,29
 -85 -188 -85 -188 -58 -203 c 128,-1,30
 -31 -218 -31 -218 0 -218 c 0,31,32
 24 -218 24 -218 48.5 -207 c 128,-1,33
 73 -196 73 -196 96 -159.5 c 128,-1,34
 119 -123 119 -123 140 -53.5 c 128,-1,35
 161 16 161 16 177 133 c 2,36,-1
 311 1115 l 2,37,38
 312 1121 312 1121 306.5 1128 c 128,-1,39
 301 1135 301 1135 283.5 1143 c 128,-1,40
 266 1151 266 1151 233.5 1159.5 c 128,-1,41
 201 1168 201 1168 147 1177 c 1,42,-1
 158 1260 l 1,43,-1
 719 1260 l 1,44,-1
 706 1177 l 1,0,1
EndSplineSet
EndChar

StartChar: K
Encoding: 75 75 46
Width: 1239
GlyphClass: 2
Flags: W
AnchorPoint: "Anchor-4" 1239 870 basechar 0
AnchorPoint: "Anchor-3" 565 -100 basechar 0
AnchorPoint: "Anchor-2" 250 0 basechar 0
AnchorPoint: "Anchor-1" 565 -100 basechar 0
AnchorPoint: "Anchor-0" 750 1320 basechar 0
LayerCount: 2
Fore
SplineSet
663 1177 m 1,0,1
 597 1163 597 1163 563.5 1146 c 128,-1,2
 530 1129 530 1129 528 1115 c 2,3,-1
 466 664 l 1,4,-1
 859 1088 l 2,5,6
 884 1115 884 1115 896 1131 c 128,-1,7
 908 1147 908 1147 905.5 1156 c 128,-1,8
 903 1165 903 1165 884.5 1169.5 c 128,-1,9
 866 1174 866 1174 830 1177 c 1,10,-1
 841 1260 l 1,11,-1
 1269 1260 l 1,12,-1
 1258 1177 l 1,13,14
 1227 1173 1227 1173 1206.5 1169 c 128,-1,15
 1186 1165 1186 1165 1170 1158.5 c 128,-1,16
 1154 1152 1154 1152 1140 1141.5 c 128,-1,17
 1126 1131 1126 1131 1109 1115 c 2,18,-1
 654 677 l 1,19,-1
 1009 218 l 2,20,21
 1022 202 1022 202 1044.5 196 c 128,-1,22
 1067 190 1067 190 1092.5 191 c 128,-1,23
 1118 192 1118 192 1145 198.5 c 128,-1,24
 1172 205 1172 205 1194 214 c 1,25,-1
 1223 131 l 1,26,27
 1194 106 1194 106 1148 80.5 c 128,-1,28
 1102 55 1102 55 1054 34 c 128,-1,29
 1006 13 1006 13 963 -0.5 c 128,-1,30
 920 -14 920 -14 898 -14 c 0,31,32
 870 -14 870 -14 850.5 -5 c 128,-1,33
 831 4 831 4 815 29 c 2,34,-1
 460 621 l 1,35,-1
 395 144 l 2,36,37
 393 132 393 132 419.5 114.5 c 128,-1,38
 446 97 446 97 513 83 c 1,39,-1
 502 0 l 1,40,-1
 -10 0 l 1,41,-1
 1 83 l 1,42,43
 66 97 66 97 99.5 113.5 c 128,-1,44
 133 130 133 130 135 144 c 2,45,-1
 268 1115 l 2,46,47
 270 1127 270 1127 243 1145 c 128,-1,48
 216 1163 216 1163 151 1177 c 1,49,-1
 162 1260 l 1,50,-1
 674 1260 l 1,51,-1
 663 1177 l 1,0,1
EndSplineSet
EndChar

StartChar: L
Encoding: 76 76 47
Width: 1018
GlyphClass: 2
Flags: W
AnchorPoint: "Anchor-4" 744 870 basechar 0
AnchorPoint: "Anchor-3" 448 -100 basechar 0
AnchorPoint: "Anchor-2" 245 0 basechar 0
AnchorPoint: "Anchor-1" 448 -100 basechar 0
AnchorPoint: "Anchor-0" 602 1320 basechar 0
LayerCount: 2
Fore
SplineSet
968 324 m 1,0,1
 959 281 959 281 947 230.5 c 128,-1,2
 935 180 935 180 923 133.5 c 128,-1,3
 911 87 911 87 901 51 c 128,-1,4
 891 15 891 15 886 0 c 1,5,-1
 -10 0 l 1,6,-1
 1 83 l 1,7,8
 66 97 66 97 99.5 113.5 c 128,-1,9
 133 130 133 130 135 144 c 2,10,-1
 268 1115 l 2,11,12
 270 1127 270 1127 243 1145 c 128,-1,13
 216 1163 216 1163 151 1177 c 1,14,-1
 162 1260 l 1,15,-1
 674 1260 l 1,16,-1
 663 1177 l 1,17,18
 597 1163 597 1163 563.5 1146 c 128,-1,19
 530 1129 530 1129 528 1115 c 2,20,-1
 403 204 l 2,21,22
 401 186 401 186 407 172.5 c 128,-1,23
 413 159 413 159 431.5 149.5 c 128,-1,24
 450 140 450 140 482.5 135 c 128,-1,25
 515 130 515 130 566 130 c 2,26,-1
 662 130 l 2,27,28
 705 130 705 130 736 142.5 c 128,-1,29
 767 155 767 155 793 182 c 128,-1,30
 819 209 819 209 843 251 c 128,-1,31
 867 293 867 293 895 352 c 1,32,-1
 968 324 l 1,0,1
EndSplineSet
EndChar

StartChar: M
Encoding: 77 77 48
Width: 1638
GlyphClass: 2
Flags: W
AnchorPoint: "Anchor-4" 1638 870 basechar 0
AnchorPoint: "Anchor-3" 759 -100 basechar 0
AnchorPoint: "Anchor-2" 759 -100 basechar 0
AnchorPoint: "Anchor-1" 759 -100 basechar 0
AnchorPoint: "Anchor-0" 944 1320 basechar 0
LayerCount: 2
Fore
SplineSet
1665 1177 m 1,0,1
 1618 1177 1618 1177 1545 1152 c 1,2,-1
 1416 144 l 2,3,4
 1414 132 1414 132 1445.5 114.5 c 128,-1,5
 1477 97 1477 97 1543 83 c 1,6,-1
 1532 0 l 1,7,-1
 1027 0 l 1,8,-1
 1038 83 l 1,9,10
 1102 97 1102 97 1140.5 113.5 c 128,-1,11
 1179 130 1179 130 1181 144 c 2,12,-1
 1280 922 l 1,13,-1
 763 0 l 1,14,-1
 661 0 l 1,15,-1
 407 922 l 1,16,-1
 292 144 l 2,17,18
 290 132 290 132 317 114.5 c 128,-1,19
 344 97 344 97 410 83 c 1,20,-1
 399 0 l 1,21,-1
 6 0 l 1,22,-1
 17 83 l 1,23,24
 83 97 83 97 116 113.5 c 128,-1,25
 149 130 149 130 151 144 c 2,26,-1
 297 1144 l 1,27,28
 268 1163 268 1163 236 1170 c 128,-1,29
 204 1177 204 1177 177 1177 c 1,30,-1
 188 1260 l 1,31,-1
 528 1260 l 2,32,33
 537 1260 537 1260 544.5 1257 c 128,-1,34
 552 1254 552 1254 558.5 1245 c 128,-1,35
 565 1236 565 1236 571.5 1219.5 c 128,-1,36
 578 1203 578 1203 586 1176 c 2,37,-1
 808 364 l 1,38,-1
 1265 1176 l 2,39,40
 1281 1206 1281 1206 1292 1222.5 c 128,-1,41
 1303 1239 1303 1239 1312 1247.5 c 128,-1,42
 1321 1256 1321 1256 1328.5 1258 c 128,-1,43
 1336 1260 1336 1260 1345 1260 c 2,44,-1
 1676 1260 l 1,45,-1
 1665 1177 l 1,0,1
EndSplineSet
EndChar

StartChar: N
Encoding: 78 78 49
Width: 1273
GlyphClass: 2
Flags: W
AnchorPoint: "Anchor-4" 1273 870 basechar 0
AnchorPoint: "Anchor-3" 578 -100 basechar 0
AnchorPoint: "Anchor-2" 990 0 basechar 0
AnchorPoint: "Anchor-1" 578 -100 basechar 0
AnchorPoint: "Anchor-0" 763 1320 basechar 0
LayerCount: 2
Fore
SplineSet
1358 1177 m 1,0,1
 1289 1167 1289 1167 1257 1148 c 128,-1,2
 1225 1129 1225 1129 1223 1115 c 2,3,-1
 1066 -30 l 1,4,5
 1016 -26 1016 -26 976 -14.5 c 128,-1,6
 936 -3 936 -3 906 13 c 128,-1,7
 876 29 876 29 856 49 c 128,-1,8
 836 69 836 69 824 91 c 2,9,-1
 394 895 l 1,10,-1
 291 144 l 2,11,12
 290 138 290 138 295 129.5 c 128,-1,13
 300 121 300 121 313.5 112.5 c 128,-1,14
 327 104 327 104 350 96 c 128,-1,15
 373 88 373 88 408 83 c 1,16,-1
 397 0 l 1,17,-1
 -3 0 l 1,18,-1
 8 83 l 1,19,20
 78 92 78 92 109 111 c 128,-1,21
 140 130 140 130 142 144 c 2,22,-1
 273 1102 l 1,23,24
 247 1132 247 1132 218 1152 c 128,-1,25
 189 1172 189 1172 158 1177 c 1,26,-1
 169 1260 l 1,27,-1
 450 1260 l 2,28,29
 463 1260 463 1260 472 1257.5 c 128,-1,30
 481 1255 481 1255 489 1247 c 128,-1,31
 497 1239 497 1239 505.5 1223.5 c 128,-1,32
 514 1208 514 1208 528 1182 c 2,33,-1
 970 353 l 1,34,-1
 1075 1115 l 2,35,36
 1076 1121 1076 1121 1071.5 1129.5 c 128,-1,37
 1067 1138 1067 1138 1054 1146.5 c 128,-1,38
 1041 1155 1041 1155 1018 1163 c 128,-1,39
 995 1171 995 1171 958 1177 c 1,40,-1
 969 1260 l 1,41,-1
 1369 1260 l 1,42,-1
 1358 1177 l 1,0,1
EndSplineSet
EndChar

StartChar: O
Encoding: 79 79 50
Width: 1191
GlyphClass: 2
Flags: W
AnchorPoint: "Anchor-4" 1021 870 basechar 0
AnchorPoint: "Anchor-3" 616 0 basechar 0
AnchorPoint: "Anchor-2" 540 0 basechar 0
AnchorPoint: "Anchor-1" 545 -100 basechar 0
AnchorPoint: "Anchor-0" 729 1320 basechar 0
LayerCount: 2
Fore
SplineSet
911 756 m 0,0,1
 911 840 911 840 895.5 913 c 128,-1,2
 880 986 880 986 850 1040 c 128,-1,3
 820 1094 820 1094 775 1124.5 c 128,-1,4
 730 1155 730 1155 672 1155 c 0,5,6
 616 1155 616 1155 570 1126.5 c 128,-1,7
 524 1098 524 1098 487 1049.5 c 128,-1,8
 450 1001 450 1001 423 938 c 128,-1,9
 396 875 396 875 378 805.5 c 128,-1,10
 360 736 360 736 351 665.5 c 128,-1,11
 342 595 342 595 342 532 c 0,12,13
 342 439 342 439 357 361 c 128,-1,14
 372 283 372 283 401.5 227.5 c 128,-1,15
 431 172 431 172 474.5 141 c 128,-1,16
 518 110 518 110 576 110 c 0,17,18
 635 110 635 110 683 140 c 128,-1,19
 731 170 731 170 768 221 c 128,-1,20
 805 272 805 272 832 338 c 128,-1,21
 859 404 859 404 876.5 475.5 c 128,-1,22
 894 547 894 547 902.5 620 c 128,-1,23
 911 693 911 693 911 756 c 0,0,1
1180 774 m 0,24,25
 1180 703 1180 703 1166 630 c 128,-1,26
 1152 557 1152 557 1126 486 c 128,-1,27
 1100 415 1100 415 1063 348.5 c 128,-1,28
 1026 282 1026 282 981 225 c 0,29,30
 939 171 939 171 885 124.5 c 128,-1,31
 831 78 831 78 770.5 43.5 c 128,-1,32
 710 9 710 9 644 -11 c 128,-1,33
 578 -31 578 -31 511 -31 c 0,34,35
 407 -31 407 -31 325.5 10 c 128,-1,36
 244 51 244 51 187 121.5 c 128,-1,37
 130 192 130 192 100 286 c 128,-1,38
 70 380 70 380 70 485 c 0,39,40
 70 642 70 642 119 775 c 128,-1,41
 168 908 168 908 248 1018 c 1,42,43
 290 1074 290 1074 342 1123.5 c 128,-1,44
 394 1173 394 1173 456 1210 c 128,-1,45
 518 1247 518 1247 590.5 1268.5 c 128,-1,46
 663 1290 663 1290 745 1290 c 0,47,48
 854 1290 854 1290 936 1249 c 128,-1,49
 1018 1208 1018 1208 1072 1137.5 c 128,-1,50
 1126 1067 1126 1067 1153 973 c 128,-1,51
 1180 879 1180 879 1180 774 c 0,24,25
EndSplineSet
EndChar

StartChar: P
Encoding: 80 80 51
Width: 1095
GlyphClass: 2
Flags: W
AnchorPoint: "Anchor-4" 1095 870 basechar 0
AnchorPoint: "Anchor-3" 467 -100 basechar 0
AnchorPoint: "Anchor-2" 467 -100 basechar 0
AnchorPoint: "Anchor-1" 467 -100 basechar 0
AnchorPoint: "Anchor-0" 652 1320 basechar 0
LayerCount: 2
Fore
SplineSet
1125 942 m 0,0,1
 1125 857 1125 857 1087 779.5 c 128,-1,2
 1049 702 1049 702 984.5 643.5 c 128,-1,3
 920 585 920 585 834.5 550 c 128,-1,4
 749 515 749 515 653 515 c 0,5,6
 615 515 615 515 576 524.5 c 128,-1,7
 537 534 537 534 510 549 c 1,8,-1
 491 663 l 1,9,10
 525 648 525 648 550.5 639 c 128,-1,11
 576 630 576 630 612 630 c 0,12,13
 727 630 727 630 789 702 c 128,-1,14
 851 774 851 774 851 905 c 0,15,16
 851 989 851 989 827 1041.5 c 128,-1,17
 803 1094 803 1094 763 1124 c 128,-1,18
 723 1154 723 1154 671.5 1165 c 128,-1,19
 620 1176 620 1176 566 1176 c 0,20,21
 560 1176 560 1176 553.5 1175.5 c 128,-1,22
 547 1175 547 1175 541 1175 c 1,23,-1
 397 144 l 1,24,25
 395 138 395 138 401 131 c 128,-1,26
 407 124 407 124 424 116 c 128,-1,27
 441 108 441 108 471 100 c 128,-1,28
 501 92 501 92 548 83 c 1,29,-1
 538 0 l 1,30,-1
 -10 0 l 1,31,-1
 0 83 l 1,32,33
 63 97 63 97 96 113.5 c 128,-1,34
 129 130 129 130 131 144 c 2,35,-1
 271 1150 l 1,36,37
 236 1145 236 1145 201 1138.5 c 128,-1,38
 166 1132 166 1132 131 1125 c 1,39,-1
 131 1225 l 1,40,41
 183 1239 183 1239 244.5 1251 c 128,-1,42
 306 1263 306 1263 369 1271.5 c 128,-1,43
 432 1280 432 1280 494 1285 c 128,-1,44
 556 1290 556 1290 609 1290 c 0,45,46
 732 1290 732 1290 828 1268 c 128,-1,47
 924 1246 924 1246 990 1202 c 128,-1,48
 1056 1158 1056 1158 1090.5 1093 c 128,-1,49
 1125 1028 1125 1028 1125 942 c 0,0,1
EndSplineSet
EndChar

StartChar: Q
Encoding: 81 81 52
Width: 1221
GlyphClass: 2
Flags: W
AnchorPoint: "Anchor-4" 1221 870 basechar 0
AnchorPoint: "Anchor-3" 576 -100 basechar 0
AnchorPoint: "Anchor-2" 576 -100 basechar 0
AnchorPoint: "Anchor-1" 576 -100 basechar 0
AnchorPoint: "Anchor-0" 760 1320 basechar 0
LayerCount: 2
Fore
SplineSet
911 756 m 0,0,1
 911 840 911 840 895.5 913 c 128,-1,2
 880 986 880 986 850 1040 c 128,-1,3
 820 1094 820 1094 775 1124.5 c 128,-1,4
 730 1155 730 1155 672 1155 c 0,5,6
 616 1155 616 1155 570 1126.5 c 128,-1,7
 524 1098 524 1098 487 1049.5 c 128,-1,8
 450 1001 450 1001 423 938 c 128,-1,9
 396 875 396 875 378 805.5 c 128,-1,10
 360 736 360 736 351 665.5 c 128,-1,11
 342 595 342 595 342 532 c 0,12,13
 342 439 342 439 357 361 c 128,-1,14
 372 283 372 283 401.5 227.5 c 128,-1,15
 431 172 431 172 474.5 141 c 128,-1,16
 518 110 518 110 576 110 c 0,17,18
 635 110 635 110 683 140 c 128,-1,19
 731 170 731 170 768 221 c 128,-1,20
 805 272 805 272 832 338 c 128,-1,21
 859 404 859 404 876.5 475.5 c 128,-1,22
 894 547 894 547 902.5 620 c 128,-1,23
 911 693 911 693 911 756 c 0,0,1
1302 -127 m 1,24,25
 1274 -171 1274 -171 1242.5 -208.5 c 128,-1,26
 1211 -246 1211 -246 1181.5 -274.5 c 128,-1,27
 1152 -303 1152 -303 1127 -319 c 128,-1,28
 1102 -335 1102 -335 1088 -335 c 0,29,30
 1043 -335 1043 -335 999.5 -319 c 128,-1,31
 956 -303 956 -303 913.5 -277 c 128,-1,32
 871 -251 871 -251 829 -217.5 c 128,-1,33
 787 -184 787 -184 745 -149.5 c 128,-1,34
 703 -115 703 -115 661 -82.5 c 128,-1,35
 619 -50 619 -50 576 -26 c 1,36,37
 559 -28 559 -28 543.5 -29.5 c 128,-1,38
 528 -31 528 -31 511 -31 c 0,39,40
 407 -31 407 -31 325.5 10 c 128,-1,41
 244 51 244 51 187 121.5 c 128,-1,42
 130 192 130 192 100 286 c 128,-1,43
 70 380 70 380 70 485 c 0,44,45
 70 642 70 642 119 775 c 128,-1,46
 168 908 168 908 248 1018 c 1,47,48
 290 1074 290 1074 342 1123.5 c 128,-1,49
 394 1173 394 1173 456 1210 c 128,-1,50
 518 1247 518 1247 590.5 1268.5 c 128,-1,51
 663 1290 663 1290 745 1290 c 0,52,53
 854 1290 854 1290 936 1249 c 128,-1,54
 1018 1208 1018 1208 1072 1137.5 c 128,-1,55
 1126 1067 1126 1067 1153 973 c 128,-1,56
 1180 879 1180 879 1180 774 c 0,57,58
 1180 703 1180 703 1166 630 c 128,-1,59
 1152 557 1152 557 1126 486 c 128,-1,60
 1100 415 1100 415 1063 348.5 c 128,-1,61
 1026 282 1026 282 981 225 c 0,62,63
 935 167 935 167 876.5 117 c 128,-1,64
 818 67 818 67 751 32 c 1,65,66
 805 13 805 13 853 -13 c 128,-1,67
 901 -39 901 -39 946 -63 c 128,-1,68
 991 -87 991 -87 1034 -103.5 c 128,-1,69
 1077 -120 1077 -120 1122 -120 c 0,70,71
 1134 -120 1134 -120 1145 -117.5 c 128,-1,72
 1156 -115 1156 -115 1171 -108 c 128,-1,73
 1186 -101 1186 -101 1207 -87.5 c 128,-1,74
 1228 -74 1228 -74 1259 -52 c 1,75,-1
 1302 -127 l 1,24,25
EndSplineSet
EndChar

StartChar: R
Encoding: 82 82 53
Width: 1167
GlyphClass: 2
Flags: W
AnchorPoint: "Anchor-4" 1167 870 basechar 0
AnchorPoint: "Anchor-3" 473 -100 basechar 0
AnchorPoint: "Anchor-2" 250 0 basechar 0
AnchorPoint: "Anchor-1" 473 -100 basechar 0
AnchorPoint: "Anchor-0" 658 1320 basechar 0
LayerCount: 2
Fore
SplineSet
1187 119 m 1,0,1
 1148 93 1148 93 1099.5 69 c 128,-1,2
 1051 45 1051 45 1005 26.5 c 128,-1,3
 959 8 959 8 923 -3 c 128,-1,4
 887 -14 887 -14 874 -14 c 0,5,6
 857 -14 857 -14 840 -9.5 c 128,-1,7
 823 -5 823 -5 806.5 9 c 128,-1,8
 790 23 790 23 773.5 48.5 c 128,-1,9
 757 74 757 74 742 117 c 2,10,-1
 577 578 l 1,11,12
 549 578 549 578 517.5 580.5 c 128,-1,13
 486 583 486 583 458 590 c 1,14,-1
 398 144 l 1,15,16
 395 132 395 132 426.5 114.5 c 128,-1,17
 458 97 458 97 521 83 c 1,18,-1
 510 0 l 1,19,-1
 -10 0 l 1,20,-1
 1 83 l 1,21,22
 64 97 64 97 97 113.5 c 128,-1,23
 130 130 130 130 132 144 c 2,24,-1
 268 1150 l 1,25,26
 230 1144 230 1144 195 1138 c 128,-1,27
 160 1132 160 1132 130 1125 c 1,28,-1
 131 1227 l 1,29,30
 176 1240 176 1240 234 1251.5 c 128,-1,31
 292 1263 292 1263 357 1271.5 c 128,-1,32
 422 1280 422 1280 491.5 1285 c 128,-1,33
 561 1290 561 1290 629 1290 c 0,34,35
 852 1290 852 1290 970 1208.5 c 128,-1,36
 1088 1127 1088 1127 1088 971 c 0,37,38
 1088 920 1088 920 1066 865.5 c 128,-1,39
 1044 811 1044 811 1002.5 761.5 c 128,-1,40
 961 712 961 712 902 671 c 128,-1,41
 843 630 843 630 770 606 c 1,42,-1
 986 224 l 2,43,44
 999 201 999 201 1014 189.5 c 128,-1,45
 1029 178 1029 178 1049 176 c 128,-1,46
 1069 174 1069 174 1095.5 180 c 128,-1,47
 1122 186 1122 186 1159 197 c 1,48,-1
 1187 119 l 1,0,1
578 1176 m 2,49,-1
 558 1176 l 2,50,51
 548 1176 548 1176 537 1175 c 1,52,-1
 475 713 l 1,53,54
 498 706 498 706 519 704 c 128,-1,55
 540 702 540 702 565 702 c 0,56,57
 614 702 614 702 659 718.5 c 128,-1,58
 704 735 704 735 738.5 765.5 c 128,-1,59
 773 796 773 796 794 840.5 c 128,-1,60
 815 885 815 885 815 942 c 0,61,62
 815 1016 815 1016 792.5 1061.5 c 128,-1,63
 770 1107 770 1107 735.5 1132.5 c 128,-1,64
 701 1158 701 1158 659 1167 c 128,-1,65
 617 1176 617 1176 578 1176 c 2,49,-1
EndSplineSet
EndChar

StartChar: S
Encoding: 83 83 54
Width: 1000
GlyphClass: 2
Flags: W
AnchorPoint: "Anchor-4" 1000 870 basechar 0
AnchorPoint: "Anchor-3" 424 -100 basechar 0
AnchorPoint: "Anchor-2" 438 0 basechar 0
AnchorPoint: "Anchor-1" 424 -100 basechar 0
AnchorPoint: "Anchor-0" 608 1320 basechar 0
LayerCount: 2
Fore
SplineSet
992 1198 m 0,0,1
 996 1195 996 1195 991.5 1178.5 c 128,-1,2
 987 1162 987 1162 977 1139 c 128,-1,3
 967 1116 967 1116 953.5 1090 c 128,-1,4
 940 1064 940 1064 926 1040.5 c 128,-1,5
 912 1017 912 1017 899.5 1000 c 128,-1,6
 887 983 887 983 880 979 c 1,7,-1
 811 985 l 1,8,9
 800 1033 800 1033 779.5 1067 c 128,-1,10
 759 1101 759 1101 733 1123 c 128,-1,11
 707 1145 707 1145 677 1155.5 c 128,-1,12
 647 1166 647 1166 617 1166 c 0,13,14
 567 1166 567 1166 531 1151.5 c 128,-1,15
 495 1137 495 1137 472 1113.5 c 128,-1,16
 449 1090 449 1090 438 1059 c 128,-1,17
 427 1028 427 1028 427 995 c 0,18,19
 427 973 427 973 434 949 c 128,-1,20
 441 925 441 925 463 899 c 128,-1,21
 485 873 485 873 525.5 843.5 c 128,-1,22
 566 814 566 814 633 780 c 0,23,24
 712 739 712 739 770 700.5 c 128,-1,25
 828 662 828 662 865.5 620.5 c 128,-1,26
 903 579 903 579 921.5 532.5 c 128,-1,27
 940 486 940 486 940 430 c 0,28,29
 940 336 940 336 898 252.5 c 128,-1,30
 856 169 856 169 783 106 c 128,-1,31
 710 43 710 43 611 6 c 128,-1,32
 512 -31 512 -31 398 -31 c 0,33,34
 342 -31 342 -31 276 -18 c 128,-1,35
 210 -5 210 -5 152 17 c 128,-1,36
 94 39 94 39 55.5 67 c 128,-1,37
 17 95 17 95 17 125 c 0,38,39
 17 135 17 135 25.5 155 c 128,-1,40
 34 175 34 175 47.5 198 c 128,-1,41
 61 221 61 221 78.5 245 c 128,-1,42
 96 269 96 269 113.5 289 c 128,-1,43
 131 309 131 309 147 321.5 c 128,-1,44
 163 334 163 334 174 334 c 256,45,46
 185 334 185 334 200 318 c 128,-1,47
 215 302 215 302 233.5 277.5 c 128,-1,48
 252 253 252 253 275.5 225 c 128,-1,49
 299 197 299 197 329 172.5 c 128,-1,50
 359 148 359 148 395 132 c 128,-1,51
 431 116 431 116 475 116 c 256,52,53
 519 116 519 116 558 130.5 c 128,-1,54
 597 145 597 145 626 172 c 128,-1,55
 655 199 655 199 672 239 c 128,-1,56
 689 279 689 279 689 330 c 0,57,58
 689 375 689 375 674 412.5 c 128,-1,59
 659 450 659 450 625.5 484.5 c 128,-1,60
 592 519 592 519 538.5 552 c 128,-1,61
 485 585 485 585 409 621 c 0,62,63
 343 652 343 652 300 686.5 c 128,-1,64
 257 721 257 721 232.5 758.5 c 128,-1,65
 208 796 208 796 198 838 c 128,-1,66
 188 880 188 880 188 928 c 0,67,68
 188 994 188 994 223 1059 c 128,-1,69
 258 1124 258 1124 322 1175 c 128,-1,70
 386 1226 386 1226 476.5 1258 c 128,-1,71
 567 1290 567 1290 679 1290 c 0,72,73
 782 1290 782 1290 863 1262.5 c 128,-1,74
 944 1235 944 1235 992 1198 c 0,0,1
EndSplineSet
EndChar

StartChar: T
Encoding: 84 84 55
Width: 1123
GlyphClass: 2
Flags: W
AnchorPoint: "Anchor-4" 1123 870 basechar 0
AnchorPoint: "Anchor-3" 485 -100 basechar 0
AnchorPoint: "Anchor-2" 499 0 basechar 0
AnchorPoint: "Anchor-1" 485 -100 basechar 0
AnchorPoint: "Anchor-0" 680 1320 basechar 0
LayerCount: 2
Fore
SplineSet
783 0 m 1,0,-1
 236 0 l 1,1,-1
 247 83 l 1,2,3
 291 92 291 92 320 102 c 128,-1,4
 349 112 349 112 366.5 121.5 c 128,-1,5
 384 131 384 131 391.5 139.5 c 128,-1,6
 399 148 399 148 400 155 c 2,7,-1
 533 1130 l 1,8,-1
 311 1130 l 2,9,10
 297 1130 297 1130 282.5 1117.5 c 128,-1,11
 268 1105 268 1105 251 1078.5 c 128,-1,12
 234 1052 234 1052 212 1010 c 128,-1,13
 190 968 190 968 161 910 c 1,14,-1
 88 939 l 1,15,16
 94 968 94 968 105 1012 c 128,-1,17
 116 1056 116 1056 128 1102.5 c 128,-1,18
 140 1149 140 1149 152 1191.5 c 128,-1,19
 164 1234 164 1234 172 1260 c 1,20,-1
 1186 1260 l 1,21,-1
 1218 1225 l 1,22,23
 1214 1199 1214 1199 1205 1160 c 128,-1,24
 1196 1121 1196 1121 1184 1078 c 2,25,-1
 1161 993 l 2,26,27
 1150 951 1150 951 1140 920 c 1,28,-1
 1061 920 l 1,29,30
 1058 966 1058 966 1057.5 1005 c 128,-1,31
 1057 1044 1057 1044 1053 1071.5 c 128,-1,32
 1049 1099 1049 1099 1040 1114.5 c 128,-1,33
 1031 1130 1031 1130 1011 1130 c 2,34,-1
 794 1130 l 1,35,-1
 661 155 l 2,36,37
 660 149 660 149 665 140.5 c 128,-1,38
 670 132 670 132 685 122 c 128,-1,39
 700 112 700 112 726 102 c 128,-1,40
 752 92 752 92 794 83 c 1,41,-1
 783 0 l 1,0,-1
EndSplineSet
EndChar

StartChar: U
Encoding: 85 85 56
Width: 1282
GlyphClass: 2
Flags: W
AnchorPoint: "Anchor-4" 1174 870 basechar 0
AnchorPoint: "Anchor-3" 688 0 basechar 0
AnchorPoint: "Anchor-2" 620 0 basechar 0
AnchorPoint: "Anchor-1" 590 -100 basechar 0
AnchorPoint: "Anchor-0" 774 1320 basechar 0
LayerCount: 2
Fore
SplineSet
1340 1177 m 1,0,1
 1277 1163 1277 1163 1247 1146 c 128,-1,2
 1217 1129 1217 1129 1215 1115 c 2,3,-1
 1130 512 l 2,4,5
 1112 381 1112 381 1062.5 279.5 c 128,-1,6
 1013 178 1013 178 941.5 109 c 128,-1,7
 870 40 870 40 780.5 4.5 c 128,-1,8
 691 -31 691 -31 592 -31 c 0,9,10
 510 -31 510 -31 434 -6 c 128,-1,11
 358 19 358 19 299.5 67 c 128,-1,12
 241 115 241 115 206 185.5 c 128,-1,13
 171 256 171 256 171 348 c 0,14,15
 171 401 171 401 180 463 c 2,16,-1
 273 1115 l 2,17,18
 274 1127 274 1127 248 1145 c 128,-1,19
 222 1163 222 1163 158 1177 c 1,20,-1
 169 1260 l 1,21,-1
 674 1260 l 1,22,-1
 663 1177 l 1,23,24
 600 1163 600 1163 566.5 1146 c 128,-1,25
 533 1129 533 1129 531 1115 c 2,26,-1
 443 510 l 2,27,28
 438 481 438 481 435 452 c 128,-1,29
 432 423 432 423 432 397 c 0,30,31
 432 257 432 257 490.5 191.5 c 128,-1,32
 549 126 549 126 673 126 c 0,33,34
 738 126 738 126 785.5 151.5 c 128,-1,35
 833 177 833 177 865.5 223 c 128,-1,36
 898 269 898 269 917.5 331.5 c 128,-1,37
 937 394 937 394 947 469 c 2,38,-1
 1038 1115 l 2,39,40
 1039 1121 1039 1121 1034 1129 c 128,-1,41
 1029 1137 1029 1137 1016.5 1145 c 128,-1,42
 1004 1153 1004 1153 982.5 1161.5 c 128,-1,43
 961 1170 961 1170 929 1177 c 1,44,-1
 940 1260 l 1,45,-1
 1351 1260 l 1,46,-1
 1340 1177 l 1,0,1
EndSplineSet
EndChar

StartChar: V
Encoding: 86 86 57
Width: 1256
GlyphClass: 2
Flags: W
AnchorPoint: "Anchor-4" 1256 870 basechar 0
AnchorPoint: "Anchor-3" 540 0 basechar 0
AnchorPoint: "Anchor-2" 590 0 basechar 0
AnchorPoint: "Anchor-1" 559 -100 basechar 0
AnchorPoint: "Anchor-0" 744 1320 basechar 0
LayerCount: 2
Fore
SplineSet
1356 1177 m 1,0,1
 1290 1164 1290 1164 1253 1151.5 c 128,-1,2
 1216 1139 1216 1139 1203 1111 c 2,3,-1
 716 89 l 2,4,5
 706 67 706 67 682 48 c 128,-1,6
 658 29 658 29 627.5 14 c 128,-1,7
 597 -1 597 -1 564 -12 c 128,-1,8
 531 -23 531 -23 504 -30 c 1,9,-1
 233 1111 l 2,10,11
 226 1137 226 1137 201 1153 c 128,-1,12
 176 1169 176 1169 119 1177 c 1,13,-1
 130 1260 l 1,14,-1
 628 1260 l 1,15,-1
 617 1177 l 1,16,17
 542 1171 542 1171 516.5 1156.5 c 128,-1,18
 491 1142 491 1142 498 1113 c 2,19,-1
 681 313 l 1,20,-1
 1055 1111 l 2,21,22
 1062 1126 1062 1126 1060.5 1136 c 128,-1,23
 1059 1146 1059 1146 1047 1153.5 c 128,-1,24
 1035 1161 1035 1161 1011.5 1166.5 c 128,-1,25
 988 1172 988 1172 951 1177 c 1,26,-1
 962 1260 l 1,27,-1
 1367 1260 l 1,28,-1
 1356 1177 l 1,0,1
EndSplineSet
EndChar

StartChar: W
Encoding: 87 87 58
Width: 1603
GlyphClass: 2
Flags: W
AnchorPoint: "Anchor-4" 1603 870 basechar 0
AnchorPoint: "Anchor-3" 750 -100 basechar 0
AnchorPoint: "Anchor-2" 750 -100 basechar 0
AnchorPoint: "Anchor-1" 750 -100 basechar 0
AnchorPoint: "Anchor-0" 940 1320 basechar 0
LayerCount: 2
Fore
SplineSet
1710 1177 m 1,0,1
 1667 1168 1667 1168 1639 1160 c 128,-1,2
 1611 1152 1611 1152 1594.5 1144.5 c 128,-1,3
 1578 1137 1578 1137 1570 1130 c 128,-1,4
 1562 1123 1562 1123 1560 1115 c 2,5,-1
 1203 59 l 2,6,7
 1196 38 1196 38 1177 22.5 c 128,-1,8
 1158 7 1158 7 1135 -3.5 c 128,-1,9
 1112 -14 1112 -14 1089 -20.5 c 128,-1,10
 1066 -27 1066 -27 1051 -30 c 1,11,-1
 850 854 l 1,12,-1
 475 59 l 2,13,14
 466 38 466 38 446.5 23 c 128,-1,15
 427 8 427 8 404 -2.5 c 128,-1,16
 381 -13 381 -13 356.5 -19.5 c 128,-1,17
 332 -26 332 -26 313 -30 c 1,18,-1
 227 1107 l 2,19,20
 225 1132 225 1132 199 1148 c 128,-1,21
 173 1164 173 1164 109 1177 c 1,22,-1
 120 1260 l 1,23,-1
 593 1260 l 1,24,-1
 582 1177 l 1,25,26
 536 1172 536 1172 510 1164.5 c 128,-1,27
 484 1157 484 1157 471.5 1148 c 128,-1,28
 459 1139 459 1139 456.5 1128.5 c 128,-1,29
 454 1118 454 1118 455 1107 c 2,30,-1
 512 430 l 1,31,-1
 888 1260 l 1,32,-1
 995 1260 l 1,33,-1
 1187 430 l 1,34,-1
 1422 1115 l 2,35,36
 1426 1127 1426 1127 1417 1136 c 128,-1,37
 1408 1145 1408 1145 1389.5 1152 c 128,-1,38
 1371 1159 1371 1159 1345 1165 c 128,-1,39
 1319 1171 1319 1171 1288 1177 c 1,40,-1
 1299 1260 l 1,41,-1
 1721 1260 l 1,42,-1
 1710 1177 l 1,0,1
EndSplineSet
EndChar

StartChar: X
Encoding: 88 88 59
Width: 1225
GlyphClass: 2
Flags: W
AnchorPoint: "Anchor-4" 1225 870 basechar 0
AnchorPoint: "Anchor-3" 536 -100 basechar 0
AnchorPoint: "Anchor-2" 536 -100 basechar 0
AnchorPoint: "Anchor-1" 536 -100 basechar 0
AnchorPoint: "Anchor-0" 720 1320 basechar 0
LayerCount: 2
Fore
SplineSet
1129 0 m 1,0,-1
 608 0 l 1,1,-1
 619 83 l 1,2,3
 661 87 661 87 687 93.5 c 128,-1,4
 713 100 713 100 725.5 109.5 c 128,-1,5
 738 119 738 119 737.5 133 c 128,-1,6
 737 147 737 147 727 167 c 2,7,-1
 566 488 l 1,8,-1
 317 167 l 2,9,10
 300 145 300 145 293.5 130.5 c 128,-1,11
 287 116 287 116 294 106.5 c 128,-1,12
 301 97 301 97 324 91.5 c 128,-1,13
 347 86 347 86 389 83 c 1,14,-1
 378 0 l 1,15,-1
 -40 0 l 1,16,-1
 -29 83 l 1,17,18
 32 88 32 88 76 107.5 c 128,-1,19
 120 127 120 127 151 167 c 2,20,-1
 498 624 l 1,21,-1
 263 1093 l 2,22,23
 252 1115 252 1115 241 1129 c 128,-1,24
 230 1143 230 1143 215.5 1152 c 128,-1,25
 201 1161 201 1161 180.5 1166.5 c 128,-1,26
 160 1172 160 1172 130 1177 c 1,27,-1
 141 1260 l 1,28,-1
 672 1260 l 1,29,-1
 661 1177 l 1,30,31
 581 1169 581 1169 554 1152.5 c 128,-1,32
 527 1136 527 1136 549 1093 c 2,33,-1
 691 810 l 1,34,-1
 896 1093 l 2,35,36
 913 1116 913 1116 919 1130.5 c 128,-1,37
 925 1145 925 1145 917.5 1154.5 c 128,-1,38
 910 1164 910 1164 887 1169 c 128,-1,39
 864 1174 864 1174 824 1177 c 1,40,-1
 835 1260 l 1,41,-1
 1256 1260 l 1,42,-1
 1245 1177 l 1,43,44
 1210 1173 1210 1173 1183.5 1167 c 128,-1,45
 1157 1161 1157 1161 1135 1151.5 c 128,-1,46
 1113 1142 1113 1142 1095.5 1128 c 128,-1,47
 1078 1114 1078 1114 1063 1093 c 2,48,-1
 757 678 l 1,49,-1
 1014 167 l 2,50,51
 1025 146 1025 146 1036 131.5 c 128,-1,52
 1047 117 1047 117 1061 107.5 c 128,-1,53
 1075 98 1075 98 1094 92.5 c 128,-1,54
 1113 87 1113 87 1140 83 c 1,55,-1
 1129 0 l 1,0,-1
EndSplineSet
EndChar

StartChar: Y
Encoding: 89 89 60
Width: 1178
GlyphClass: 2
Flags: W
AnchorPoint: "Anchor-4" 1178 870 basechar 0
AnchorPoint: "Anchor-3" 541 -100 basechar 0
AnchorPoint: "Anchor-2" 541 -100 basechar 0
AnchorPoint: "Anchor-1" 541 -100 basechar 0
AnchorPoint: "Anchor-0" 725 1320 basechar 0
LayerCount: 2
Fore
SplineSet
825 0 m 1,0,-1
 276 0 l 1,1,-1
 287 83 l 1,2,3
 330 92 330 92 359 102 c 128,-1,4
 388 112 388 112 405.5 121.5 c 128,-1,5
 423 131 423 131 431 139.5 c 128,-1,6
 439 148 439 148 440 155 c 2,7,-1
 491 528 l 1,8,9
 468 607 468 607 438.5 691 c 128,-1,10
 409 775 409 775 377.5 852.5 c 128,-1,11
 346 930 346 930 315 997 c 128,-1,12
 284 1064 284 1064 259 1111 c 0,13,14
 253 1122 253 1122 245 1130.5 c 128,-1,15
 237 1139 237 1139 222.5 1144.5 c 128,-1,16
 208 1150 208 1150 184.5 1153 c 128,-1,17
 161 1156 161 1156 122 1156 c 1,18,-1
 129 1239 l 1,19,20
 157 1243 157 1243 194.5 1248.5 c 128,-1,21
 232 1254 232 1254 269.5 1258.5 c 128,-1,22
 307 1263 307 1263 340 1266.5 c 128,-1,23
 373 1270 373 1270 392 1270 c 0,24,25
 420 1270 420 1270 447 1257 c 128,-1,26
 474 1244 474 1244 487 1221 c 0,27,28
 514 1171 514 1171 543 1107 c 128,-1,29
 572 1043 572 1043 600 972 c 128,-1,30
 628 901 628 901 654 825.5 c 128,-1,31
 680 750 680 750 702 678 c 1,32,-1
 969 1111 l 2,33,34
 985 1137 985 1137 964.5 1152 c 128,-1,35
 944 1167 944 1167 874 1177 c 1,36,-1
 885 1260 l 1,37,-1
 1281 1260 l 1,38,-1
 1270 1177 l 1,39,40
 1205 1164 1205 1164 1173.5 1150 c 128,-1,41
 1142 1136 1142 1136 1126 1111 c 2,42,-1
 750 516 l 1,43,-1
 701 155 l 2,44,45
 700 149 700 149 705 140.5 c 128,-1,46
 710 132 710 132 725 122 c 128,-1,47
 740 112 740 112 767 102 c 128,-1,48
 794 92 794 92 836 83 c 1,49,-1
 825 0 l 1,0,-1
EndSplineSet
EndChar

StartChar: Z
Encoding: 90 90 61
Width: 1078
GlyphClass: 2
Flags: W
AnchorPoint: "Anchor-4" 1078 870 basechar 0
AnchorPoint: "Anchor-3" 493 -100 basechar 0
AnchorPoint: "Anchor-2" 493 -100 basechar 0
AnchorPoint: "Anchor-1" 493 -100 basechar 0
AnchorPoint: "Anchor-0" 657 1320 basechar 0
LayerCount: 2
Fore
SplineSet
345 140 m 1,0,-1
 748 140 l 2,1,2
 768 140 768 140 786 157 c 128,-1,3
 804 174 804 174 822.5 207 c 128,-1,4
 841 240 841 240 862.5 287.5 c 128,-1,5
 884 335 884 335 910 397 c 1,6,-1
 996 373 l 1,7,8
 990 341 990 341 981 289.5 c 128,-1,9
 972 238 972 238 963 183.5 c 128,-1,10
 954 129 954 129 946 79 c 128,-1,11
 938 29 938 29 934 0 c 1,12,-1
 40 0 l 1,13,-1
 11 55 l 1,14,-1
 771 1120 l 1,15,-1
 428 1120 l 2,16,17
 413 1120 413 1120 391.5 1101 c 128,-1,18
 370 1082 370 1082 346.5 1048.5 c 128,-1,19
 323 1015 323 1015 300.5 970 c 128,-1,20
 278 925 278 925 261 873 c 1,21,-1
 174 895 l 1,22,-1
 262 1276 l 1,23,24
 287 1270 287 1270 307 1266.5 c 128,-1,25
 327 1263 327 1263 347 1261.5 c 128,-1,26
 367 1260 367 1260 388 1260 c 2,27,-1
 1075 1260 l 1,28,-1
 1100 1207 l 1,29,-1
 345 140 l 1,0,-1
EndSplineSet
EndChar

StartChar: bracketleft
Encoding: 91 91 62
Width: 770
Flags: W
LayerCount: 2
Fore
SplineSet
870 1563 m 1,0,1
 867 1551 867 1551 859.5 1533.5 c 128,-1,2
 852 1516 852 1516 843 1498.5 c 128,-1,3
 834 1481 834 1481 826 1467 c 128,-1,4
 818 1453 818 1453 814 1447 c 1,5,-1
 552 1447 l 1,6,-1
 329 -181 l 1,7,-1
 585 -181 l 1,8,-1
 624 -220 l 1,9,10
 621 -230 621 -230 614 -246 c 128,-1,11
 607 -262 607 -262 598.5 -279 c 128,-1,12
 590 -296 590 -296 582 -311.5 c 128,-1,13
 574 -327 574 -327 569 -336 c 1,14,-1
 66 -336 l 1,15,-1
 338 1599 l 1,16,-1
 833 1599 l 1,17,-1
 870 1563 l 1,0,1
EndSplineSet
EndChar

StartChar: backslash
Encoding: 92 92 63
Width: 869
Flags: W
LayerCount: 2
Fore
SplineSet
697 -336 m 1,0,1
 686 -332 686 -332 660 -323 c 128,-1,2
 634 -314 634 -314 605.5 -303.5 c 128,-1,3
 577 -293 577 -293 552.5 -282.5 c 128,-1,4
 528 -272 528 -272 521 -265 c 1,5,-1
 135 1567 l 1,6,-1
 182 1599 l 1,7,8
 196 1595 196 1595 220.5 1587 c 128,-1,9
 245 1579 245 1579 271.5 1569.5 c 128,-1,10
 298 1560 298 1560 322 1549.5 c 128,-1,11
 346 1539 346 1539 358 1530 c 1,12,-1
 742 -301 l 1,13,-1
 697 -336 l 1,0,1
EndSplineSet
EndChar

StartChar: bracketright
Encoding: 93 93 64
Width: 706
Flags: W
LayerCount: 2
Fore
SplineSet
448 -336 m 1,0,-1
 -47 -336 l 1,1,-1
 -86 -297 l 1,2,3
 -82 -285 -82 -285 -74.5 -268 c 128,-1,4
 -67 -251 -67 -251 -59 -234 c 128,-1,5
 -51 -217 -51 -217 -43.5 -202 c 128,-1,6
 -36 -187 -36 -187 -32 -181 c 1,7,-1
 230 -181 l 1,8,-1
 459 1447 l 1,9,-1
 205 1447 l 1,10,-1
 166 1483 l 1,11,12
 169 1494 169 1494 175.5 1510.5 c 128,-1,13
 182 1527 182 1527 190 1544 c 128,-1,14
 198 1561 198 1561 205 1576 c 128,-1,15
 212 1591 212 1591 217 1599 c 1,16,-1
 718 1599 l 1,17,-1
 448 -336 l 1,0,-1
EndSplineSet
EndChar

StartChar: asciicircum
Encoding: 94 94 65
Width: 938
Flags: W
LayerCount: 2
Fore
SplineSet
854 635 m 1,0,1
 826 612 826 612 801.5 596.5 c 128,-1,2
 777 581 777 581 743 565 c 1,3,-1
 713 592 l 1,4,-1
 553 1315 l 1,5,-1
 223 635 l 1,6,7
 212 625 212 625 197 614.5 c 128,-1,8
 182 604 182 604 166.5 594.5 c 128,-1,9
 151 585 151 585 137 577.5 c 128,-1,10
 123 570 123 570 113 565 c 1,11,-1
 94 592 l 1,12,-1
 516 1462 l 1,13,14
 529 1474 529 1474 547 1486.5 c 128,-1,15
 565 1499 565 1499 584 1511 c 128,-1,16
 603 1523 603 1523 621 1533 c 128,-1,17
 639 1543 639 1543 653 1550 c 1,18,-1
 854 635 l 1,0,1
EndSplineSet
EndChar

StartChar: underscore
Encoding: 95 95 66
Width: 930
Flags: W
LayerCount: 2
Fore
SplineSet
811 -166 m 1,0,1
 808 -177 808 -177 800 -193.5 c 128,-1,2
 792 -210 792 -210 783 -227.5 c 128,-1,3
 774 -245 774 -245 765.5 -261 c 128,-1,4
 757 -277 757 -277 752 -286 c 1,5,-1
 3 -286 l 1,6,-1
 -23 -249 l 1,7,8
 -20 -239 -20 -239 -12.5 -223.5 c 128,-1,9
 -5 -208 -5 -208 4 -190.5 c 128,-1,10
 13 -173 13 -173 22.5 -157 c 128,-1,11
 32 -141 32 -141 38 -131 c 1,12,-1
 783 -131 l 1,13,-1
 811 -166 l 1,0,1
EndSplineSet
EndChar

StartChar: grave
Encoding: 96 96 67
Width: 606
Flags: W
LayerCount: 2
Fore
SplineSet
581 1057 m 1,0,1
 561 1045 561 1045 534 1033 c 128,-1,2
 507 1021 507 1021 489 1016 c 1,3,-1
 189 1372 l 1,4,-1
 231 1428 l 1,5,6
 243 1430 243 1430 276 1437 c 128,-1,7
 309 1444 309 1444 346 1451 c 128,-1,8
 383 1458 383 1458 416 1463.5 c 128,-1,9
 449 1469 449 1469 462 1469 c 1,10,-1
 581 1057 l 1,0,1
EndSplineSet
EndChar

StartChar: a
Encoding: 97 97 68
Width: 1007
GlyphClass: 2
Flags: W
AnchorPoint: "Anchor-4" 1184 870 basechar 0
AnchorPoint: "Anchor-3" 755 0 basechar 0
AnchorPoint: "Anchor-2" 720 0 basechar 0
AnchorPoint: "Anchor-1" 442 -100 basechar 0
AnchorPoint: "Anchor-0" 592 1000 basechar 0
LayerCount: 2
Fore
SplineSet
577 360 m 1,0,1
 582 401 582 401 589 449 c 128,-1,2
 596 497 596 497 603.5 545 c 128,-1,3
 611 593 611 593 618.5 637 c 128,-1,4
 626 681 626 681 632 715 c 1,5,6
 604 742 604 742 575 762 c 128,-1,7
 546 782 546 782 520 781 c 0,8,9
 479 780 479 780 446 761 c 128,-1,10
 413 742 413 742 387.5 710.5 c 128,-1,11
 362 679 362 679 343.5 638 c 128,-1,12
 325 597 325 597 313 552.5 c 128,-1,13
 301 508 301 508 295.5 463 c 128,-1,14
 290 418 290 418 290 379 c 0,15,16
 290 326 290 326 297 287.5 c 128,-1,17
 304 249 304 249 316 224 c 128,-1,18
 328 199 328 199 342.5 187.5 c 128,-1,19
 357 176 357 176 372 176 c 0,20,21
 385 176 385 176 404 185 c 128,-1,22
 423 194 423 194 448.5 215.5 c 128,-1,23
 474 237 474 237 506 272.5 c 128,-1,24
 538 308 538 308 577 360 c 1,0,1
1006 118 m 1,25,26
 964 88 964 88 920.5 59 c 128,-1,27
 877 30 877 30 838 8 c 128,-1,28
 799 -14 799 -14 767.5 -27.5 c 128,-1,29
 736 -41 736 -41 718 -41 c 0,30,31
 702 -41 702 -41 679.5 -30.5 c 128,-1,32
 657 -20 657 -20 635.5 5 c 128,-1,33
 614 30 614 30 595.5 71.5 c 128,-1,34
 577 113 577 113 570 176 c 1,35,36
 537 132 537 132 500.5 92.5 c 128,-1,37
 464 53 464 53 425.5 23.5 c 128,-1,38
 387 -6 387 -6 347 -23.5 c 128,-1,39
 307 -41 307 -41 266 -41 c 0,40,41
 229 -41 229 -41 188 -22 c 128,-1,42
 147 -3 147 -3 112.5 38.5 c 128,-1,43
 78 80 78 80 55.5 145.5 c 128,-1,44
 33 211 33 211 33 305 c 0,45,46
 33 384 33 384 53.5 459.5 c 128,-1,47
 74 535 74 535 112 604 c 128,-1,48
 150 673 150 673 205.5 733.5 c 128,-1,49
 261 794 261 794 332 842 c 0,50,51
 386 879 386 879 463 907.5 c 128,-1,52
 540 936 540 936 632 936 c 0,53,54
 674 936 674 936 715 917.5 c 128,-1,55
 756 899 756 899 793 876 c 1,56,57
 831 893 831 893 867.5 907.5 c 128,-1,58
 904 922 904 922 932 936 c 1,59,-1
 967 861 l 1,60,61
 950 847 950 847 938.5 836 c 128,-1,62
 927 825 927 825 919 810.5 c 128,-1,63
 911 796 911 796 904.5 775 c 128,-1,64
 898 754 898 754 891 720 c 0,65,66
 876 648 876 648 864.5 583.5 c 128,-1,67
 853 519 853 519 845.5 465 c 128,-1,68
 838 411 838 411 834 371 c 128,-1,69
 830 331 830 331 830 309 c 0,70,71
 830 282 830 282 834 256.5 c 128,-1,72
 838 231 838 231 845.5 210.5 c 128,-1,73
 853 190 853 190 862.5 178 c 128,-1,74
 872 166 872 166 884 166 c 0,75,76
 904 166 904 166 926.5 171.5 c 128,-1,77
 949 177 949 177 989 194 c 1,78,-1
 1006 118 l 1,25,26
EndSplineSet
Substitution2: "'aalt' Access All Alternates lookup 7 subtable" a.SngStory
EndChar

StartChar: b
Encoding: 98 98 69
Width: 1041
GlyphClass: 2
Flags: W
AnchorPoint: "Anchor-4" 1070 880 basechar 0
AnchorPoint: "Anchor-3" 472 -100 basechar 0
AnchorPoint: "Anchor-2" 480 0 basechar 0
AnchorPoint: "Anchor-1" 472 -100 basechar 0
AnchorPoint: "Anchor-0" 727 1580 basechar 0
LayerCount: 2
Fore
SplineSet
629 743 m 0,0,1
 617 743 617 743 596.5 732.5 c 128,-1,2
 576 722 576 722 547.5 696 c 128,-1,3
 519 670 519 670 483.5 626.5 c 128,-1,4
 448 583 448 583 406 516 c 1,5,6
 397 450 397 450 391.5 398 c 128,-1,7
 386 346 386 346 386 316 c 0,8,9
 386 290 386 290 401 263.5 c 128,-1,10
 416 237 416 237 438 216 c 128,-1,11
 460 195 460 195 483.5 181 c 128,-1,12
 507 167 507 167 524 166 c 0,13,14
 566 163 566 163 597 183 c 128,-1,15
 628 203 628 203 653 239 c 0,16,17
 672 266 672 266 686 302.5 c 128,-1,18
 700 339 700 339 709 378 c 128,-1,19
 718 417 718 417 722 456.5 c 128,-1,20
 726 496 726 496 726 530 c 0,21,22
 726 576 726 576 720 615 c 128,-1,23
 714 654 714 654 701.5 682.5 c 128,-1,24
 689 711 689 711 671 727 c 128,-1,25
 653 743 653 743 629 743 c 0,0,1
990 610 m 0,26,27
 988 504 988 504 940.5 395 c 128,-1,28
 893 286 893 286 817 188 c 0,29,30
 782 143 782 143 737.5 101.5 c 128,-1,31
 693 60 693 60 640.5 28.5 c 128,-1,32
 588 -3 588 -3 529 -22 c 128,-1,33
 470 -41 470 -41 407 -41 c 0,34,35
 384 -41 384 -41 353 -30 c 128,-1,36
 322 -19 322 -19 289.5 0 c 128,-1,37
 257 19 257 19 225 46 c 128,-1,38
 193 73 193 73 168 105 c 128,-1,39
 143 137 143 137 127 173 c 128,-1,40
 111 209 111 209 111 247 c 0,41,42
 111 273 111 273 116.5 324.5 c 128,-1,43
 122 376 122 376 131.5 443 c 128,-1,44
 141 510 141 510 153 588.5 c 128,-1,45
 165 667 165 667 178 748 c 128,-1,46
 191 829 191 829 203.5 908.5 c 128,-1,47
 216 988 216 988 225.5 1057.5 c 128,-1,48
 235 1127 235 1127 241 1181 c 128,-1,49
 247 1235 247 1235 247 1266 c 0,50,51
 247 1289 247 1289 242 1302.5 c 128,-1,52
 237 1316 237 1316 229 1322.5 c 128,-1,53
 221 1329 221 1329 212 1331 c 128,-1,54
 203 1333 203 1333 194 1333 c 256,55,56
 185 1333 185 1333 169.5 1328.5 c 128,-1,57
 154 1324 154 1324 140 1319 c 0,58,59
 122 1313 122 1313 104 1306 c 1,60,-1
 86 1385 l 1,61,62
 132 1407 132 1407 191.5 1431 c 128,-1,63
 251 1455 251 1455 308 1475 c 128,-1,64
 365 1495 365 1495 411.5 1507.5 c 128,-1,65
 458 1520 458 1520 478 1520 c 0,66,67
 513 1520 513 1520 525 1502 c 128,-1,68
 537 1484 537 1484 537 1438 c 0,69,70
 537 1396 537 1396 528 1321.5 c 128,-1,71
 519 1247 519 1247 505.5 1153.5 c 128,-1,72
 492 1060 492 1060 475 955.5 c 128,-1,73
 458 851 458 851 442 750 c 1,74,75
 491 809 491 809 534.5 845.5 c 128,-1,76
 578 882 578 882 616 902 c 128,-1,77
 654 922 654 922 687 929 c 128,-1,78
 720 936 720 936 747 936 c 0,79,80
 798 937 798 937 842.5 915.5 c 128,-1,81
 887 894 887 894 920 852.5 c 128,-1,82
 953 811 953 811 972 750 c 128,-1,83
 991 689 991 689 990 610 c 0,26,27
EndSplineSet
EndChar

StartChar: c
Encoding: 99 99 70
Width: 899
GlyphClass: 2
Flags: W
AnchorPoint: "Anchor-4" 991 870 basechar 0
AnchorPoint: "Anchor-3" 454 -100 basechar 0
AnchorPoint: "Anchor-2" 427 0 basechar 0
AnchorPoint: "Anchor-1" 454 -100 basechar 0
AnchorPoint: "Anchor-0" 604 1000 basechar 0
LayerCount: 2
Fore
SplineSet
937 825 m 1,0,1
 916 802 916 802 884.5 772 c 128,-1,2
 853 742 853 742 820.5 715 c 128,-1,3
 788 688 788 688 759 669.5 c 128,-1,4
 730 651 730 651 713 651 c 0,5,6
 695 651 695 651 678 671.5 c 128,-1,7
 661 692 661 692 642.5 716 c 128,-1,8
 624 740 624 740 601.5 760.5 c 128,-1,9
 579 781 579 781 551 781 c 0,10,11
 501 781 501 781 462.5 747.5 c 128,-1,12
 424 714 424 714 397.5 659.5 c 128,-1,13
 371 605 371 605 357 536.5 c 128,-1,14
 343 468 343 468 343 398 c 0,15,16
 343 268 343 268 378 197 c 128,-1,17
 413 126 413 126 469 126 c 0,18,19
 529 126 529 126 605.5 169.5 c 128,-1,20
 682 213 682 213 790 301 c 1,21,22
 794 296 794 296 802 284 c 128,-1,23
 810 272 810 272 819 259 c 128,-1,24
 828 246 828 246 835.5 235 c 128,-1,25
 843 224 843 224 845 220 c 1,26,27
 767 149 767 149 701 99 c 128,-1,28
 635 49 635 49 577.5 18 c 128,-1,29
 520 -13 520 -13 469.5 -27 c 128,-1,30
 419 -41 419 -41 371 -41 c 0,31,32
 326 -41 326 -41 274.5 -24 c 128,-1,33
 223 -7 223 -7 179 35 c 128,-1,34
 135 77 135 77 106 147 c 128,-1,35
 77 217 77 217 77 322 c 0,36,37
 77 389 77 389 91 457.5 c 128,-1,38
 105 526 105 526 136.5 590.5 c 128,-1,39
 168 655 168 655 218.5 714 c 128,-1,40
 269 773 269 773 343 822 c 0,41,42
 371 840 371 840 409 860.5 c 128,-1,43
 447 881 447 881 490.5 897.5 c 128,-1,44
 534 914 534 914 581 925 c 128,-1,45
 628 936 628 936 674 936 c 0,46,47
 718 936 718 936 753 922.5 c 128,-1,48
 788 909 788 909 818.5 890.5 c 128,-1,49
 849 872 849 872 877.5 853.5 c 128,-1,50
 906 835 906 835 937 825 c 1,0,1
EndSplineSet
EndChar

StartChar: d
Encoding: 100 100 71
Width: 1034
GlyphClass: 2
Flags: W
AnchorPoint: "Anchor-4" 1111 870 basechar 0
AnchorPoint: "Anchor-3" 407 -100 basechar 0
AnchorPoint: "Anchor-2" 740 0 basechar 0
AnchorPoint: "Anchor-1" 407 -100 basechar 0
AnchorPoint: "Anchor-0" 317 1000 basechar 0
LayerCount: 2
Fore
SplineSet
578 366 m 1,0,1
 588 434 588 434 602 524.5 c 128,-1,2
 616 615 616 615 632 714 c 1,3,4
 606 741 606 741 578 761 c 128,-1,5
 550 781 550 781 519 781 c 0,6,7
 478 781 478 781 445.5 762 c 128,-1,8
 413 743 413 743 387.5 711.5 c 128,-1,9
 362 680 362 680 343.5 639 c 128,-1,10
 325 598 325 598 313 553.5 c 128,-1,11
 301 509 301 509 295.5 463.5 c 128,-1,12
 290 418 290 418 290 379 c 0,13,14
 290 272 290 272 315 224 c 128,-1,15
 340 176 340 176 376 176 c 0,16,17
 386 176 386 176 403 183 c 128,-1,18
 420 190 420 190 445 211 c 128,-1,19
 470 232 470 232 503 269 c 128,-1,20
 536 306 536 306 578 366 c 1,0,1
1009 116 m 1,21,22
 967 87 967 87 923.5 59 c 128,-1,23
 880 31 880 31 841 9 c 128,-1,24
 802 -13 802 -13 769.5 -27 c 128,-1,25
 737 -41 737 -41 716 -41 c 0,26,27
 699 -41 699 -41 677 -30 c 128,-1,28
 655 -19 655 -19 633.5 6.5 c 128,-1,29
 612 32 612 32 595 74 c 128,-1,30
 578 116 578 116 571 178 c 1,31,32
 486 63 486 63 408 11 c 128,-1,33
 330 -41 330 -41 266 -41 c 0,34,35
 225 -41 225 -41 183.5 -20.5 c 128,-1,36
 142 0 142 0 108.5 43.5 c 128,-1,37
 75 87 75 87 54 154.5 c 128,-1,38
 33 222 33 222 33 315 c 0,39,40
 33 394 33 394 53 468.5 c 128,-1,41
 73 543 73 543 111.5 610.5 c 128,-1,42
 150 678 150 678 205.5 736.5 c 128,-1,43
 261 795 261 795 332 842 c 0,44,45
 360 860 360 860 394.5 876.5 c 128,-1,46
 429 893 429 893 466.5 906.5 c 128,-1,47
 504 920 504 920 544 928 c 128,-1,48
 584 936 584 936 622 936 c 0,49,50
 632 936 632 936 642.5 932.5 c 128,-1,51
 653 929 653 929 665 924 c 1,52,53
 682 1034 682 1034 693 1125 c 128,-1,54
 704 1216 704 1216 704 1266 c 0,55,56
 704 1289 704 1289 700.5 1302.5 c 128,-1,57
 697 1316 697 1316 690.5 1322.5 c 128,-1,58
 684 1329 684 1329 676 1331 c 128,-1,59
 668 1333 668 1333 659 1333 c 256,60,61
 650 1333 650 1333 634 1328.5 c 128,-1,62
 618 1324 618 1324 602 1319 c 0,63,64
 584 1313 584 1313 562 1306 c 1,65,-1
 545 1385 l 1,66,67
 598 1411 598 1411 655.5 1435.5 c 128,-1,68
 713 1460 713 1460 765 1478.5 c 128,-1,69
 817 1497 817 1497 857.5 1508.5 c 128,-1,70
 898 1520 898 1520 918 1520 c 0,71,72
 953 1520 953 1520 973 1502 c 128,-1,73
 993 1484 993 1484 993 1438 c 0,74,75
 993 1399 993 1399 986 1338 c 128,-1,76
 979 1277 979 1277 967.5 1201.5 c 128,-1,77
 956 1126 956 1126 941.5 1040.5 c 128,-1,78
 927 955 927 955 911.5 868.5 c 128,-1,79
 896 782 896 782 881.5 698 c 128,-1,80
 867 614 867 614 855.5 541 c 128,-1,81
 844 468 844 468 837 410.5 c 128,-1,82
 830 353 830 353 830 319 c 0,83,84
 830 244 830 244 846 206 c 128,-1,85
 862 168 862 168 885 168 c 0,86,87
 910 168 910 168 933 173.5 c 128,-1,88
 956 179 956 179 991 194 c 1,89,-1
 1009 116 l 1,21,22
EndSplineSet
EndChar

StartChar: e
Encoding: 101 101 72
Width: 885
GlyphClass: 2
Flags: W
AnchorPoint: "Anchor-4" 1062 870 basechar 0
AnchorPoint: "Anchor-3" 448 0 basechar 0
AnchorPoint: "Anchor-2" 398 0 basechar 0
AnchorPoint: "Anchor-1" 384 -100 basechar 0
AnchorPoint: "Anchor-0" 550 1000 basechar 0
LayerCount: 2
Fore
SplineSet
850 760 m 0,0,1
 850 733 850 733 843.5 701.5 c 128,-1,2
 837 670 837 670 817.5 635.5 c 128,-1,3
 798 601 798 601 762 563 c 128,-1,4
 726 525 726 525 666 485 c 128,-1,5
 606 445 606 445 519 403 c 128,-1,6
 432 361 432 361 311 318 c 1,7,8
 325 227 325 227 362 176.5 c 128,-1,9
 399 126 399 126 447 126 c 0,10,11
 490 126 490 126 572.5 170 c 128,-1,12
 655 214 655 214 776 311 c 1,13,14
 782 308 782 308 790 296.5 c 128,-1,15
 798 285 798 285 805.5 271.5 c 128,-1,16
 813 258 813 258 819 246 c 2,17,-1
 827 230 l 1,18,19
 745 159 745 159 677 107.5 c 128,-1,20
 609 56 609 56 551 23 c 128,-1,21
 493 -10 493 -10 442.5 -25.5 c 128,-1,22
 392 -41 392 -41 345 -41 c 0,23,24
 301 -41 301 -41 248 -22.5 c 128,-1,25
 195 -4 195 -4 149.5 36.5 c 128,-1,26
 104 77 104 77 73.5 142.5 c 128,-1,27
 43 208 43 208 43 303 c 0,28,29
 43 381 43 381 62 451.5 c 128,-1,30
 81 522 81 522 116 585.5 c 128,-1,31
 151 649 151 649 200.5 706 c 128,-1,32
 250 763 250 763 312 816 c 0,33,34
 334 835 334 835 368 856 c 128,-1,35
 402 877 402 877 442.5 895 c 128,-1,36
 483 913 483 913 526.5 924.5 c 128,-1,37
 570 936 570 936 612 936 c 0,38,39
 673 936 673 936 718 920.5 c 128,-1,40
 763 905 763 905 792.5 880 c 128,-1,41
 822 855 822 855 836 823.5 c 128,-1,42
 850 792 850 792 850 760 c 0,0,1
401 722 m 0,43,44
 379 693 379 693 362.5 663.5 c 128,-1,45
 346 634 346 634 334 601 c 128,-1,46
 322 568 322 568 315 530 c 128,-1,47
 308 492 308 492 306 446 c 1,48,49
 394 488 394 488 446.5 521.5 c 128,-1,50
 499 555 499 555 526.5 585 c 128,-1,51
 554 615 554 615 562 644 c 128,-1,52
 570 673 570 673 570 705 c 0,53,54
 570 746 570 746 552 768.5 c 128,-1,55
 534 791 534 791 508 791 c 0,56,57
 500 791 500 791 487 786 c 128,-1,58
 474 781 474 781 459 772 c 128,-1,59
 444 763 444 763 428.5 750.5 c 128,-1,60
 413 738 413 738 401 722 c 0,43,44
EndSplineSet
EndChar

StartChar: f
Encoding: 102 102 73
Width: 689
GlyphClass: 2
Flags: W
AnchorPoint: "Anchor-4" 689 870 basechar 0
AnchorPoint: "Anchor-3" 385 -100 basechar 0
AnchorPoint: "Anchor-2" -50 -450 basechar 0
AnchorPoint: "Anchor-1" 385 -100 basechar 0
AnchorPoint: "Anchor-0" 628 1640 basechar 0
LayerCount: 2
Fore
SplineSet
1053 1393 m 1,0,1
 1039 1383 1039 1383 1017.5 1365.5 c 128,-1,2
 996 1348 996 1348 971.5 1328.5 c 128,-1,3
 947 1309 947 1309 921 1288.5 c 128,-1,4
 895 1268 895 1268 872.5 1252 c 128,-1,5
 850 1236 850 1236 832.5 1225.5 c 128,-1,6
 815 1215 815 1215 807 1215 c 0,7,8
 790 1215 790 1215 773.5 1234 c 128,-1,9
 757 1253 757 1253 739 1276 c 128,-1,10
 721 1299 721 1299 701 1318 c 128,-1,11
 681 1337 681 1337 656 1337 c 0,12,13
 618 1337 618 1337 592 1300.5 c 128,-1,14
 566 1264 566 1264 548.5 1208 c 128,-1,15
 531 1152 531 1152 520.5 1084 c 128,-1,16
 510 1016 510 1016 503 952 c 1,17,-1
 497 905 l 1,18,-1
 743 905 l 1,19,-1
 773 867 l 1,20,21
 763 853 763 853 742.5 832 c 128,-1,22
 722 811 722 811 699.5 790 c 128,-1,23
 677 769 677 769 656.5 752 c 128,-1,24
 636 735 636 735 626 730 c 1,25,26
 615 758 615 758 584 766.5 c 128,-1,27
 553 775 553 775 493 775 c 2,28,-1
 482 775 l 1,29,-1
 415 193 l 2,30,31
 402 83 402 83 354.5 -19.5 c 128,-1,32
 307 -122 307 -122 241 -210.5 c 128,-1,33
 175 -299 175 -299 97.5 -369.5 c 128,-1,34
 20 -440 20 -440 -54 -485 c 1,35,-1
 -100 -392 l 1,36,37
 -50 -364 -50 -364 -9.5 -308.5 c 128,-1,38
 31 -253 31 -253 61.5 -181 c 128,-1,39
 92 -109 92 -109 112 -26 c 128,-1,40
 132 57 132 57 141 139 c 2,41,-1
 214 775 l 1,42,-1
 78 775 l 1,43,-1
 53 816 l 1,44,-1
 194 905 l 1,45,-1
 229 905 l 1,46,47
 239 985 239 985 259 1059 c 128,-1,48
 279 1133 279 1133 311 1199 c 128,-1,49
 343 1265 343 1265 389.5 1322.5 c 128,-1,50
 436 1380 436 1380 499 1427 c 1,51,52
 553 1466 553 1466 612.5 1493 c 128,-1,53
 672 1520 672 1520 734 1520 c 0,54,55
 785 1520 785 1520 835.5 1502 c 128,-1,56
 886 1484 886 1484 929.5 1461.5 c 128,-1,57
 973 1439 973 1439 1005.5 1418.5 c 128,-1,58
 1038 1398 1038 1398 1053 1393 c 1,0,1
EndSplineSet
EndChar

StartChar: g
Encoding: 103 103 74
Width: 977
GlyphClass: 2
Flags: W
AnchorPoint: "Anchor-4" 1096 870 basechar 0
AnchorPoint: "Anchor-3" 329 -600 basechar 0
AnchorPoint: "Anchor-2" 340 -450 basechar 0
AnchorPoint: "Anchor-1" 329 -600 basechar 0
AnchorPoint: "Anchor-0" 548 1000 basechar 0
LayerCount: 2
Fore
SplineSet
368 176 m 0,0,1
 378 176 378 176 395.5 183 c 128,-1,2
 413 190 413 190 440.5 214 c 128,-1,3
 468 238 468 238 506 283 c 128,-1,4
 544 328 544 328 595 404 c 1,5,6
 598 462 598 462 604 527.5 c 128,-1,7
 610 593 610 593 623 672 c 0,8,9
 626 689 626 689 632 706 c 1,10,11
 601 735 601 735 570 758 c 128,-1,12
 539 781 539 781 512 781 c 0,13,14
 471 781 471 781 438 762 c 128,-1,15
 405 743 405 743 379.5 711.5 c 128,-1,16
 354 680 354 680 335 639 c 128,-1,17
 316 598 316 598 304 553.5 c 128,-1,18
 292 509 292 509 286 463.5 c 128,-1,19
 280 418 280 418 280 379 c 0,20,21
 280 272 280 272 305 224 c 128,-1,22
 330 176 330 176 368 176 c 0,0,1
965 861 m 1,23,24
 931 833 931 833 911.5 792 c 128,-1,25
 892 751 892 751 883 679 c 0,26,27
 869 560 869 560 863.5 468.5 c 128,-1,28
 858 377 858 377 853.5 298.5 c 128,-1,29
 849 220 849 220 843.5 149 c 128,-1,30
 838 78 838 78 824 1 c 0,31,32
 812 -68 812 -68 780.5 -132 c 128,-1,33
 749 -196 749 -196 705 -252 c 128,-1,34
 661 -308 661 -308 607.5 -353.5 c 128,-1,35
 554 -399 554 -399 496.5 -431.5 c 128,-1,36
 439 -464 439 -464 381 -482 c 128,-1,37
 323 -500 323 -500 271 -500 c 0,38,39
 218 -500 218 -500 165 -489.5 c 128,-1,40
 112 -479 112 -479 70 -462.5 c 128,-1,41
 28 -446 28 -446 1.5 -426.5 c 128,-1,42
 -25 -407 -25 -407 -25 -389 c 0,43,44
 -25 -378 -25 -378 -15 -360 c 128,-1,45
 -5 -342 -5 -342 10 -321.5 c 128,-1,46
 25 -301 25 -301 43 -280.5 c 128,-1,47
 61 -260 61 -260 78 -243.5 c 128,-1,48
 95 -227 95 -227 108 -216.5 c 128,-1,49
 121 -206 121 -206 125 -206 c 0,50,51
 137 -206 137 -206 155.5 -222 c 128,-1,52
 174 -238 174 -238 202.5 -257.5 c 128,-1,53
 231 -277 231 -277 271 -293 c 128,-1,54
 311 -309 311 -309 367 -309 c 0,55,56
 400 -309 400 -309 429.5 -299.5 c 128,-1,57
 459 -290 459 -290 483.5 -261.5 c 128,-1,58
 508 -233 508 -233 527.5 -182 c 128,-1,59
 547 -131 547 -131 562 -48 c 1,60,61
 574 26 574 26 579.5 88 c 128,-1,62
 585 150 585 150 588 209 c 1,63,64
 504 92 504 92 423 25.5 c 128,-1,65
 342 -41 342 -41 256 -41 c 0,66,67
 223 -41 223 -41 182 -22 c 128,-1,68
 141 -3 141 -3 105.5 38.5 c 128,-1,69
 70 80 70 80 45.5 145.5 c 128,-1,70
 21 211 21 211 21 305 c 0,71,72
 21 464 21 464 98 603.5 c 128,-1,73
 175 743 175 743 324 842 c 0,74,75
 379 879 379 879 456 907.5 c 128,-1,76
 533 936 533 936 632 936 c 0,77,78
 668 936 668 936 711 915 c 128,-1,79
 754 894 754 894 794 869 c 1,80,81
 831 891 831 891 865.5 907 c 128,-1,82
 900 923 900 923 926 936 c 1,83,-1
 965 861 l 1,23,24
EndSplineSet
Substitution2: "'aalt' Access All Alternates lookup 7 subtable" g.SngBowl
EndChar

StartChar: h
Encoding: 104 104 75
Width: 1097
GlyphClass: 2
Flags: W
AnchorPoint: "Anchor-4" 1097 870 basechar 0
AnchorPoint: "Anchor-3" 467 -100 basechar 0
AnchorPoint: "Anchor-2" 165 0 basechar 0
AnchorPoint: "Anchor-1" 467 -100 basechar 0
AnchorPoint: "Anchor-0" 700 1580 basechar 0
LayerCount: 2
Fore
SplineSet
1074 122 m 1,0,1
 1028 95 1028 95 974 66 c 128,-1,2
 920 37 920 37 867.5 13.5 c 128,-1,3
 815 -10 815 -10 769 -25.5 c 128,-1,4
 723 -41 723 -41 693 -41 c 0,5,6
 664 -41 664 -41 640.5 -9.5 c 128,-1,7
 617 22 617 22 617 76 c 0,8,9
 617 94 617 94 623 135 c 128,-1,10
 629 176 629 176 637.5 229 c 128,-1,11
 646 282 646 282 656 341 c 128,-1,12
 666 400 666 400 674.5 454.5 c 128,-1,13
 683 509 683 509 689 553 c 128,-1,14
 695 597 695 597 695 620 c 0,15,16
 695 650 695 650 692 669 c 128,-1,17
 689 688 689 688 684 698.5 c 128,-1,18
 679 709 679 709 670.5 712.5 c 128,-1,19
 662 716 662 716 652 716 c 0,20,21
 639 716 639 716 618 711 c 128,-1,22
 597 706 597 706 571.5 691 c 128,-1,23
 546 676 546 676 518.5 650 c 128,-1,24
 491 624 491 624 466 582 c 0,25,26
 437 534 437 534 418 462.5 c 128,-1,27
 399 391 399 391 385 301 c 0,28,29
 376 246 376 246 371 209 c 128,-1,30
 366 172 366 172 364 147 c 128,-1,31
 362 122 362 122 361.5 105.5 c 128,-1,32
 361 89 361 89 362 75 c 1,33,34
 353 70 353 70 333.5 61 c 128,-1,35
 314 52 314 52 288.5 40.5 c 128,-1,36
 263 29 263 29 235 16.5 c 128,-1,37
 207 4 207 4 181.5 -7 c 128,-1,38
 156 -18 156 -18 136.5 -27.5 c 128,-1,39
 117 -37 117 -37 109 -41 c 1,40,-1
 66 0 l 1,41,42
 75 54 75 54 88 129.5 c 128,-1,43
 101 205 101 205 115.5 294.5 c 128,-1,44
 130 384 130 384 146 481.5 c 128,-1,45
 162 579 162 579 177 676.5 c 128,-1,46
 192 774 192 774 205.5 866 c 128,-1,47
 219 958 219 958 229 1036.5 c 128,-1,48
 239 1115 239 1115 245 1174.5 c 128,-1,49
 251 1234 251 1234 251 1266 c 0,50,51
 251 1289 251 1289 247.5 1302.5 c 128,-1,52
 244 1316 244 1316 238.5 1322.5 c 128,-1,53
 233 1329 233 1329 225.5 1331 c 128,-1,54
 218 1333 218 1333 210 1333 c 0,55,56
 200 1333 200 1333 182.5 1328.5 c 128,-1,57
 165 1324 165 1324 148 1319 c 0,58,59
 128 1313 128 1313 105 1306 c 1,60,-1
 88 1385 l 1,61,62
 116 1397 116 1397 151.5 1412 c 128,-1,63
 187 1427 187 1427 225.5 1442 c 128,-1,64
 264 1457 264 1457 302 1471 c 128,-1,65
 340 1485 340 1485 373.5 1496 c 128,-1,66
 407 1507 407 1507 433 1513.5 c 128,-1,67
 459 1520 459 1520 473 1520 c 0,68,69
 501 1520 501 1520 521.5 1502 c 128,-1,70
 542 1484 542 1484 542 1438 c 0,71,72
 542 1414 542 1414 536.5 1363 c 128,-1,73
 531 1312 531 1312 522 1246.5 c 128,-1,74
 513 1181 513 1181 501.5 1107 c 128,-1,75
 490 1033 490 1033 479 963 c 128,-1,76
 468 893 468 893 458.5 833.5 c 128,-1,77
 449 774 449 774 443 738 c 1,78,79
 560 844 560 844 661.5 890 c 128,-1,80
 763 936 763 936 852 936 c 0,81,82
 883 936 883 936 908 930 c 128,-1,83
 933 924 933 924 950 906.5 c 128,-1,84
 967 889 967 889 976 858.5 c 128,-1,85
 985 828 985 828 985 780 c 0,86,87
 985 745 985 745 979 698 c 128,-1,88
 973 651 973 651 964 599 c 128,-1,89
 955 547 955 547 944 492 c 128,-1,90
 933 437 933 437 924 387 c 128,-1,91
 915 337 915 337 909 295 c 128,-1,92
 903 253 903 253 903 225 c 0,93,94
 903 191 903 191 911 178.5 c 128,-1,95
 919 166 919 166 939 166 c 0,96,97
 953 166 953 166 964 168 c 128,-1,98
 975 170 975 170 987 174.5 c 128,-1,99
 999 179 999 179 1012 185 c 2,100,-1
 1044 199 l 1,101,-1
 1074 122 l 1,0,1
EndSplineSet
EndChar

StartChar: i
Encoding: 105 105 76
Width: 589
GlyphClass: 2
Flags: W
AnchorPoint: "Anchor-4" 771 870 basechar 0
AnchorPoint: "Anchor-3" 280 0 basechar 0
AnchorPoint: "Anchor-2" 250 0 basechar 0
AnchorPoint: "Anchor-1" 248 -100 basechar 0
AnchorPoint: "Anchor-0" 399 1000 basechar 0
LayerCount: 2
Fore
SplineSet
565 122 m 1,0,1
 518 94 518 94 465.5 65 c 128,-1,2
 413 36 413 36 362.5 12.5 c 128,-1,3
 312 -11 312 -11 268 -26 c 128,-1,4
 224 -41 224 -41 194 -41 c 0,5,6
 160 -41 160 -41 135 -9.5 c 128,-1,7
 110 22 110 22 110 76 c 0,8,9
 110 106 110 106 116.5 155.5 c 128,-1,10
 123 205 123 205 133 264 c 128,-1,11
 143 323 143 323 155 386 c 128,-1,12
 167 449 167 449 177 506 c 128,-1,13
 187 563 187 563 193.5 609.5 c 128,-1,14
 200 656 200 656 200 680 c 0,15,16
 200 703 200 703 197 716.5 c 128,-1,17
 194 730 194 730 189 736.5 c 128,-1,18
 184 743 184 743 176 745 c 128,-1,19
 168 747 168 747 159 747 c 0,20,21
 151 747 151 747 136 743.5 c 128,-1,22
 121 740 121 740 106 735 c 0,23,24
 88 730 88 730 69 723 c 1,25,-1
 50 800 l 1,26,27
 92 819 92 819 148.5 842.5 c 128,-1,28
 205 866 205 866 260.5 887 c 128,-1,29
 316 908 316 908 362 922 c 128,-1,30
 408 936 408 936 429 936 c 0,31,32
 457 936 457 936 473.5 917 c 128,-1,33
 490 898 490 898 490 852 c 0,34,35
 490 823 490 823 483 773 c 128,-1,36
 476 723 476 723 465.5 663.5 c 128,-1,37
 455 604 455 604 443 538.5 c 128,-1,38
 431 473 431 473 420.5 413.5 c 128,-1,39
 410 354 410 354 403 304 c 128,-1,40
 396 254 396 254 396 225 c 0,41,42
 396 194 396 194 402.5 180 c 128,-1,43
 409 166 409 166 426 166 c 0,44,45
 441 166 441 166 454 168 c 128,-1,46
 467 170 467 170 480.5 174 c 128,-1,47
 494 178 494 178 509 184 c 128,-1,48
 524 190 524 190 545 199 c 1,49,-1
 565 122 l 1,0,1
587 1262 m 0,50,51
 587 1234 587 1234 574.5 1203 c 128,-1,52
 562 1172 562 1172 537.5 1146 c 128,-1,53
 513 1120 513 1120 477 1103 c 128,-1,54
 441 1086 441 1086 394 1086 c 0,55,56
 364 1086 364 1086 342 1093.5 c 128,-1,57
 320 1101 320 1101 306 1114 c 128,-1,58
 292 1127 292 1127 285.5 1143 c 128,-1,59
 279 1159 279 1159 279 1176 c 0,60,61
 279 1203 279 1203 291.5 1234 c 128,-1,62
 304 1265 304 1265 329 1291.5 c 128,-1,63
 354 1318 354 1318 389.5 1335.5 c 128,-1,64
 425 1353 425 1353 472 1353 c 0,65,66
 502 1353 502 1353 524 1345 c 128,-1,67
 546 1337 546 1337 560 1324.5 c 128,-1,68
 574 1312 574 1312 580.5 1295.5 c 128,-1,69
 587 1279 587 1279 587 1262 c 0,50,51
EndSplineSet
Substitution2: "Single Substitution lookup 1 subtable" i.Dotless
EndChar

StartChar: j
Encoding: 106 106 77
Width: 585
GlyphClass: 2
Flags: W
AnchorPoint: "Anchor-4" 585 870 basechar 0
AnchorPoint: "Anchor-3" 151 -600 basechar 0
AnchorPoint: "Anchor-2" 151 -600 basechar 0
AnchorPoint: "Anchor-1" 151 -600 basechar 0
AnchorPoint: "Anchor-0" 370 1000 basechar 0
LayerCount: 2
Fore
SplineSet
480 870 m 0,0,1
 480 859 480 859 477.5 831.5 c 128,-1,2
 475 804 475 804 471 767 c 128,-1,3
 467 730 467 730 462.5 687.5 c 128,-1,4
 458 645 458 645 453.5 604.5 c 128,-1,5
 449 564 449 564 445 529.5 c 128,-1,6
 441 495 441 495 439 473 c 0,7,8
 431 404 431 404 421 312.5 c 128,-1,9
 411 221 411 221 392 96 c 0,10,11
 378 2 378 2 344.5 -75.5 c 128,-1,12
 311 -153 311 -153 268.5 -215.5 c 128,-1,13
 226 -278 226 -278 179.5 -325 c 128,-1,14
 133 -372 133 -372 92 -404 c 0,15,16
 37 -447 37 -447 -30 -473.5 c 128,-1,17
 -97 -500 -97 -500 -163 -500 c 0,18,19
 -210 -500 -210 -500 -252.5 -487 c 128,-1,20
 -295 -474 -295 -474 -328 -457 c 128,-1,21
 -361 -440 -361 -440 -380.5 -422 c 128,-1,22
 -400 -404 -400 -404 -400 -394 c 0,23,24
 -400 -385 -400 -385 -391 -368 c 128,-1,25
 -382 -351 -382 -351 -367.5 -331 c 128,-1,26
 -353 -311 -353 -311 -335.5 -289.5 c 128,-1,27
 -318 -268 -318 -268 -301 -250.5 c 128,-1,28
 -284 -233 -284 -233 -270.5 -222 c 128,-1,29
 -257 -211 -257 -211 -250 -211 c 0,30,31
 -238 -211 -238 -211 -218 -227 c 128,-1,32
 -198 -243 -198 -243 -172.5 -262 c 128,-1,33
 -147 -281 -147 -281 -117 -297 c 128,-1,34
 -87 -313 -87 -313 -54 -313 c 0,35,36
 -15 -313 -15 -313 9.5 -297.5 c 128,-1,37
 34 -282 34 -282 50.5 -244.5 c 128,-1,38
 67 -207 67 -207 80 -145 c 128,-1,39
 93 -83 93 -83 108 11 c 0,40,41
 120 85 120 85 129.5 152 c 128,-1,42
 139 219 139 219 146.5 276 c 128,-1,43
 154 333 154 333 159.5 377.5 c 128,-1,44
 165 422 165 422 168 451 c 0,45,46
 171 475 171 475 174 508 c 2,47,-1
 180 574 l 2,48,49
 183 607 183 607 184.5 635.5 c 128,-1,50
 186 664 186 664 186 680 c 0,51,52
 186 703 186 703 183 716.5 c 128,-1,53
 180 730 180 730 174.5 736.5 c 128,-1,54
 169 743 169 743 161.5 745 c 128,-1,55
 154 747 154 747 145 747 c 256,56,57
 136 747 136 747 121 743.5 c 128,-1,58
 106 740 106 740 91 735 c 0,59,60
 73 730 73 730 55 723 c 1,61,-1
 35 800 l 1,62,63
 63 813 63 813 98.5 828 c 128,-1,64
 134 843 134 843 172 858 c 128,-1,65
 210 873 210 873 247.5 887 c 128,-1,66
 285 901 285 901 317.5 912 c 128,-1,67
 350 923 350 923 375.5 929.5 c 128,-1,68
 401 936 401 936 414 936 c 0,69,70
 442 936 442 936 461 924 c 128,-1,71
 480 912 480 912 480 870 c 0,0,1
561 1262 m 0,72,73
 561 1234 561 1234 548.5 1203 c 128,-1,74
 536 1172 536 1172 511.5 1146 c 128,-1,75
 487 1120 487 1120 451 1103 c 128,-1,76
 415 1086 415 1086 368 1086 c 0,77,78
 338 1086 338 1086 316 1093.5 c 128,-1,79
 294 1101 294 1101 280 1114 c 128,-1,80
 266 1127 266 1127 259.5 1143 c 128,-1,81
 253 1159 253 1159 253 1176 c 0,82,83
 253 1203 253 1203 265.5 1234 c 128,-1,84
 278 1265 278 1265 303 1291.5 c 128,-1,85
 328 1318 328 1318 363.5 1335.5 c 128,-1,86
 399 1353 399 1353 446 1353 c 0,87,88
 476 1353 476 1353 498 1345 c 128,-1,89
 520 1337 520 1337 534 1324.5 c 128,-1,90
 548 1312 548 1312 554.5 1295.5 c 128,-1,91
 561 1279 561 1279 561 1262 c 0,72,73
EndSplineSet
Substitution2: "Single Substitution lookup 1 subtable" j.Dotless
EndChar

StartChar: k
Encoding: 107 107 78
Width: 1039
GlyphClass: 2
Flags: W
AnchorPoint: "Anchor-4" 1174 870 basechar 0
AnchorPoint: "Anchor-3" 453 -100 basechar 0
AnchorPoint: "Anchor-2" 190 0 basechar 0
AnchorPoint: "Anchor-1" 453 -100 basechar 0
AnchorPoint: "Anchor-0" 687 1580 basechar 0
LayerCount: 2
Fore
SplineSet
540 1417 m 0,0,1
 540 1378 540 1378 534 1320.5 c 128,-1,2
 528 1263 528 1263 518.5 1192 c 128,-1,3
 509 1121 509 1121 496 1040.5 c 128,-1,4
 483 960 483 960 469 875 c 128,-1,5
 455 790 455 790 440.5 703.5 c 128,-1,6
 426 617 426 617 413 536 c 1,7,-1
 568 650 l 2,8,9
 637 701 637 701 677.5 734.5 c 128,-1,10
 718 768 718 768 727 787.5 c 128,-1,11
 736 807 736 807 713.5 813.5 c 128,-1,12
 691 820 691 820 636 818 c 1,13,-1
 627 897 l 1,14,15
 671 904 671 904 716 910 c 128,-1,16
 761 916 761 916 803 920.5 c 128,-1,17
 845 925 845 925 883 927.5 c 128,-1,18
 921 930 921 930 953 930 c 0,19,20
 1016 930 1016 930 1037.5 911 c 128,-1,21
 1059 892 1059 892 1059 858 c 0,22,23
 1059 843 1059 843 1037.5 817.5 c 128,-1,24
 1016 792 1016 792 974.5 758.5 c 128,-1,25
 933 725 933 725 874 683.5 c 128,-1,26
 815 642 815 642 740 596 c 2,27,-1
 612 517 l 1,28,29
 636 490 636 490 659.5 453.5 c 128,-1,30
 683 417 683 417 704.5 378 c 128,-1,31
 726 339 726 339 747 301 c 128,-1,32
 768 263 768 263 788.5 233 c 128,-1,33
 809 203 809 203 828.5 184.5 c 128,-1,34
 848 166 848 166 868 166 c 0,35,36
 891 166 891 166 927.5 173.5 c 128,-1,37
 964 181 964 181 1002 202 c 1,38,-1
 1039 128 l 1,39,40
 1006 100 1006 100 964.5 70.5 c 128,-1,41
 923 41 923 41 882 16.5 c 128,-1,42
 841 -8 841 -8 805 -23.5 c 128,-1,43
 769 -39 769 -39 746 -39 c 0,44,45
 713 -39 713 -39 682 -10.5 c 128,-1,46
 651 18 651 18 621.5 63.5 c 128,-1,47
 592 109 592 109 563.5 165.5 c 128,-1,48
 535 222 535 222 507.5 278.5 c 128,-1,49
 480 335 480 335 454 385.5 c 128,-1,50
 428 436 428 436 403 469 c 1,51,52
 392 398 392 398 383.5 335 c 128,-1,53
 375 272 375 272 370.5 220.5 c 128,-1,54
 366 169 366 169 365.5 132 c 128,-1,55
 365 95 365 95 370 77 c 1,56,57
 361 72 361 72 340.5 63 c 128,-1,58
 320 54 320 54 294 42 c 128,-1,59
 268 30 268 30 239 17.5 c 128,-1,60
 210 5 210 5 184.5 -6.5 c 128,-1,61
 159 -18 159 -18 139 -27.5 c 128,-1,62
 119 -37 119 -37 111 -41 c 1,63,-1
 66 0 l 1,64,65
 70 29 70 29 80 90.5 c 128,-1,66
 90 152 90 152 103.5 234.5 c 128,-1,67
 117 317 117 317 133.5 414.5 c 128,-1,68
 150 512 150 512 166 614 c 128,-1,69
 182 716 182 716 197.5 815.5 c 128,-1,70
 213 915 213 915 225 1002 c 128,-1,71
 237 1089 237 1089 244 1157 c 128,-1,72
 251 1225 251 1225 251 1263 c 0,73,74
 251 1288 251 1288 248 1302 c 128,-1,75
 245 1316 245 1316 239 1323 c 128,-1,76
 233 1330 233 1330 224 1331.5 c 128,-1,77
 215 1333 215 1333 203 1333 c 0,78,79
 195 1333 195 1333 179 1328.5 c 128,-1,80
 163 1324 163 1324 146 1319 c 0,81,82
 127 1313 127 1313 105 1306 c 1,83,-1
 86 1385 l 1,84,85
 128 1404 128 1404 187.5 1427.5 c 128,-1,86
 247 1451 247 1451 305.5 1471.5 c 128,-1,87
 364 1492 364 1492 412.5 1506 c 128,-1,88
 461 1520 461 1520 481 1520 c 0,89,90
 495 1520 495 1520 506 1517 c 128,-1,91
 517 1514 517 1514 524.5 1503.5 c 128,-1,92
 532 1493 532 1493 536 1472.5 c 128,-1,93
 540 1452 540 1452 540 1417 c 0,0,1
EndSplineSet
EndChar

StartChar: l
Encoding: 108 108 79
Width: 569
GlyphClass: 2
Flags: W
AnchorPoint: "Anchor-4" 666 870 basechar 0
AnchorPoint: "Anchor-3" 202 -100 basechar 0
AnchorPoint: "Anchor-2" 220 0 basechar 0
AnchorPoint: "Anchor-1" 202 -100 basechar 0
AnchorPoint: "Anchor-0" 447 1640 basechar 0
LayerCount: 2
Fore
SplineSet
544 122 m 1,0,1
 495 91 495 91 440.5 62 c 128,-1,2
 386 33 386 33 334 10 c 128,-1,3
 282 -13 282 -13 236 -27 c 128,-1,4
 190 -41 190 -41 157 -41 c 0,5,6
 129 -41 129 -41 107 -11 c 128,-1,7
 85 19 85 19 85 78 c 0,8,9
 85 103 85 103 92 159.5 c 128,-1,10
 99 216 99 216 110.5 293.5 c 128,-1,11
 122 371 122 371 136.5 463 c 128,-1,12
 151 555 151 555 166 651.5 c 128,-1,13
 181 748 181 748 195.5 843 c 128,-1,14
 210 938 210 938 221.5 1020 c 128,-1,15
 233 1102 233 1102 240 1166.5 c 128,-1,16
 247 1231 247 1231 247 1266 c 0,17,18
 247 1289 247 1289 242.5 1302.5 c 128,-1,19
 238 1316 238 1316 231 1322.5 c 128,-1,20
 224 1329 224 1329 214.5 1331 c 128,-1,21
 205 1333 205 1333 196 1333 c 0,22,23
 188 1333 188 1333 172.5 1328.5 c 128,-1,24
 157 1324 157 1324 141 1319 c 2,25,-1
 102 1306 l 1,26,-1
 82 1385 l 1,27,28
 110 1397 110 1397 146.5 1412 c 128,-1,29
 183 1427 183 1427 222 1442 c 128,-1,30
 261 1457 261 1457 300.5 1471 c 128,-1,31
 340 1485 340 1485 374.5 1496 c 128,-1,32
 409 1507 409 1507 435.5 1513.5 c 128,-1,33
 462 1520 462 1520 476 1520 c 0,34,35
 504 1520 504 1520 520.5 1502 c 128,-1,36
 537 1484 537 1484 537 1438 c 0,37,38
 537 1399 537 1399 530 1334 c 128,-1,39
 523 1269 523 1269 511.5 1187 c 128,-1,40
 500 1105 500 1105 485 1011.5 c 128,-1,41
 470 918 470 918 455 822.5 c 128,-1,42
 440 727 440 727 425 634.5 c 128,-1,43
 410 542 410 542 398.5 462.5 c 128,-1,44
 387 383 387 383 380 321 c 128,-1,45
 373 259 373 259 373 225 c 256,46,47
 373 191 373 191 382.5 178.5 c 128,-1,48
 392 166 392 166 408 166 c 0,49,50
 431 166 431 166 457 174 c 128,-1,51
 483 182 483 182 527 199 c 1,52,-1
 544 122 l 1,0,1
EndSplineSet
EndChar

StartChar: m
Encoding: 109 109 80
Width: 1592
GlyphClass: 2
Flags: W
AnchorPoint: "Anchor-4" 1592 870 basechar 0
AnchorPoint: "Anchor-3" 719 -100 basechar 0
AnchorPoint: "Anchor-2" 690 0 basechar 0
AnchorPoint: "Anchor-1" 719 -100 basechar 0
AnchorPoint: "Anchor-0" 870 1000 basechar 0
LayerCount: 2
Fore
SplineSet
1548 122 m 1,0,1
 1502 95 1502 95 1448.5 66 c 128,-1,2
 1395 37 1395 37 1344 13.5 c 128,-1,3
 1293 -10 1293 -10 1248.5 -25.5 c 128,-1,4
 1204 -41 1204 -41 1175 -41 c 0,5,6
 1160 -41 1160 -41 1146 -33 c 128,-1,7
 1132 -25 1132 -25 1120.5 -9.5 c 128,-1,8
 1109 6 1109 6 1102 27.5 c 128,-1,9
 1095 49 1095 49 1095 76 c 0,10,11
 1095 94 1095 94 1101 133 c 128,-1,12
 1107 172 1107 172 1116.5 223.5 c 128,-1,13
 1126 275 1126 275 1136.5 334 c 128,-1,14
 1147 393 1147 393 1156.5 449.5 c 128,-1,15
 1166 506 1166 506 1172 556 c 128,-1,16
 1178 606 1178 606 1178 639 c 0,17,18
 1178 678 1178 678 1168 696 c 128,-1,19
 1158 714 1158 714 1140 714 c 0,20,21
 1132 714 1132 714 1116.5 710 c 128,-1,22
 1101 706 1101 706 1080 693.5 c 128,-1,23
 1059 681 1059 681 1034.5 658.5 c 128,-1,24
 1010 636 1010 636 985 600 c 0,25,26
 968 576 968 576 955 548 c 128,-1,27
 942 520 942 520 931 484 c 128,-1,28
 920 448 920 448 911 401.5 c 128,-1,29
 902 355 902 355 893 295 c 0,30,31
 880 204 880 204 876.5 151 c 128,-1,32
 873 98 873 98 875 75 c 1,33,34
 866 70 866 70 845.5 61 c 128,-1,35
 825 52 825 52 799.5 40.5 c 128,-1,36
 774 29 774 29 745.5 16.5 c 128,-1,37
 717 4 717 4 691.5 -7 c 128,-1,38
 666 -18 666 -18 646 -27.5 c 128,-1,39
 626 -37 626 -37 617 -41 c 1,40,-1
 575 0 l 1,41,42
 597 102 597 102 616 201 c 128,-1,43
 635 300 635 300 649 385.5 c 128,-1,44
 663 471 663 471 671 537 c 128,-1,45
 679 603 679 603 679 640 c 0,46,47
 679 714 679 714 640 714 c 0,48,49
 634 714 634 714 619.5 710 c 128,-1,50
 605 706 605 706 584 694 c 128,-1,51
 563 682 563 682 537.5 660 c 128,-1,52
 512 638 512 638 486 602 c 0,53,54
 469 578 469 578 455 549 c 128,-1,55
 441 520 441 520 429.5 483 c 128,-1,56
 418 446 418 446 408.5 399.5 c 128,-1,57
 399 353 399 353 390 295 c 0,58,59
 376 204 376 204 370.5 151.5 c 128,-1,60
 365 99 365 99 367 75 c 1,61,62
 358 70 358 70 338.5 61 c 128,-1,63
 319 52 319 52 293.5 40.5 c 128,-1,64
 268 29 268 29 240 16.5 c 128,-1,65
 212 4 212 4 186.5 -7 c 128,-1,66
 161 -18 161 -18 141.5 -27.5 c 128,-1,67
 122 -37 122 -37 114 -41 c 1,68,-1
 71 0 l 1,69,70
 92 106 92 106 110.5 209 c 128,-1,71
 129 312 129 312 143 402.5 c 128,-1,72
 157 493 157 493 165.5 565 c 128,-1,73
 174 637 174 637 174 680 c 0,74,75
 174 703 174 703 171 716.5 c 128,-1,76
 168 730 168 730 162.5 737.5 c 128,-1,77
 157 745 157 745 150 747 c 128,-1,78
 143 749 143 749 135 749 c 0,79,80
 125 749 125 749 109 745 c 128,-1,81
 93 741 93 741 77 736 c 2,82,-1
 38 723 l 1,83,-1
 21 802 l 1,84,85
 49 814 49 814 84.5 829 c 128,-1,86
 120 844 120 844 157.5 858.5 c 128,-1,87
 195 873 195 873 233 887 c 128,-1,88
 271 901 271 901 303.5 912 c 128,-1,89
 336 923 336 923 361.5 929.5 c 128,-1,90
 387 936 387 936 400 936 c 0,91,92
 415 936 415 936 425.5 931 c 128,-1,93
 436 926 436 926 442.5 913.5 c 128,-1,94
 449 901 449 901 452 878.5 c 128,-1,95
 455 856 455 856 455 821 c 0,96,97
 455 807 455 807 453 783.5 c 128,-1,98
 451 760 451 760 448 738 c 1,99,100
 507 797 507 797 558 835.5 c 128,-1,101
 609 874 609 874 654.5 896.5 c 128,-1,102
 700 919 700 919 741.5 927.5 c 128,-1,103
 783 936 783 936 824 936 c 0,104,105
 861 936 861 936 887.5 922.5 c 128,-1,106
 914 909 914 909 931 886 c 128,-1,107
 948 863 948 863 955.5 833 c 128,-1,108
 963 803 963 803 963 770 c 2,109,-1
 963 762 l 2,110,111
 963 756 963 756 962 748 c 1,112,113
 1020 803 1020 803 1068 839.5 c 128,-1,114
 1116 876 1116 876 1158 897.5 c 128,-1,115
 1200 919 1200 919 1237.5 927.5 c 128,-1,116
 1275 936 1275 936 1313 936 c 0,117,118
 1342 936 1342 936 1368.5 926.5 c 128,-1,119
 1395 917 1395 917 1414.5 896 c 128,-1,120
 1434 875 1434 875 1445.5 841.5 c 128,-1,121
 1457 808 1457 808 1457 760 c 0,122,123
 1457 703 1457 703 1445 628 c 128,-1,124
 1433 553 1433 553 1418 477 c 128,-1,125
 1403 401 1403 401 1391 334 c 128,-1,126
 1379 267 1379 267 1379 225 c 0,127,128
 1379 191 1379 191 1389 179.5 c 128,-1,129
 1399 168 1399 168 1416 168 c 0,130,131
 1445 168 1445 168 1468.5 175.5 c 128,-1,132
 1492 183 1492 183 1533 199 c 1,133,-1
 1548 122 l 1,0,1
EndSplineSet
EndChar

StartChar: n
Encoding: 110 110 81
Width: 1103
GlyphClass: 2
Flags: W
AnchorPoint: "Anchor-4" 1103 870 basechar 0
AnchorPoint: "Anchor-3" 478 -100 basechar 0
AnchorPoint: "Anchor-2" 760 0 basechar 0
AnchorPoint: "Anchor-1" 478 -100 basechar 0
AnchorPoint: "Anchor-0" 629 1000 basechar 0
LayerCount: 2
Fore
SplineSet
1084 122 m 1,0,1
 1039 95 1039 95 985.5 66 c 128,-1,2
 932 37 932 37 880.5 13.5 c 128,-1,3
 829 -10 829 -10 784.5 -25.5 c 128,-1,4
 740 -41 740 -41 713 -41 c 0,5,6
 678 -41 678 -41 653.5 -9.5 c 128,-1,7
 629 22 629 22 629 76 c 0,8,9
 629 94 629 94 635 135 c 128,-1,10
 641 176 641 176 650 229 c 128,-1,11
 659 282 659 282 669 341 c 128,-1,12
 679 400 679 400 688 454.5 c 128,-1,13
 697 509 697 509 703 553 c 128,-1,14
 709 597 709 597 709 620 c 0,15,16
 709 674 709 674 700.5 695 c 128,-1,17
 692 716 692 716 663 716 c 0,18,19
 650 716 650 716 629 710 c 128,-1,20
 608 704 608 704 583 689 c 128,-1,21
 558 674 558 674 530.5 647.5 c 128,-1,22
 503 621 503 621 477 580 c 0,23,24
 447 532 447 532 430.5 465 c 128,-1,25
 414 398 414 398 397 301 c 0,26,27
 389 256 389 256 384 223.5 c 128,-1,28
 379 191 379 191 376.5 165.5 c 128,-1,29
 374 140 374 140 373.5 118.5 c 128,-1,30
 373 97 373 97 374 75 c 1,31,32
 365 70 365 70 345.5 61 c 128,-1,33
 326 52 326 52 300.5 40.5 c 128,-1,34
 275 29 275 29 247 16.5 c 128,-1,35
 219 4 219 4 193.5 -7 c 128,-1,36
 168 -18 168 -18 148.5 -27.5 c 128,-1,37
 129 -37 129 -37 121 -41 c 1,38,-1
 78 0 l 1,39,40
 99 100 99 100 117.5 205.5 c 128,-1,41
 136 311 136 311 150.5 405.5 c 128,-1,42
 165 500 165 500 173.5 573.5 c 128,-1,43
 182 647 182 647 182 682 c 0,44,45
 182 705 182 705 179.5 718.5 c 128,-1,46
 177 732 177 732 172 738.5 c 128,-1,47
 167 745 167 745 160 747 c 128,-1,48
 153 749 153 749 144 749 c 256,49,50
 135 749 135 749 119 745 c 128,-1,51
 103 741 103 741 87 736 c 0,52,53
 69 730 69 730 47 723 c 1,54,-1
 27 802 l 1,55,56
 55 814 55 814 91.5 829 c 128,-1,57
 128 844 128 844 167 858.5 c 128,-1,58
 206 873 206 873 245 887 c 128,-1,59
 284 901 284 901 317.5 912 c 128,-1,60
 351 923 351 923 375.5 929.5 c 128,-1,61
 400 936 400 936 411 936 c 0,62,63
 425 936 425 936 434.5 931.5 c 128,-1,64
 444 927 444 927 449.5 915 c 128,-1,65
 455 903 455 903 457.5 881 c 128,-1,66
 460 859 460 859 460 823 c 0,67,68
 460 802 460 802 459 782.5 c 128,-1,69
 458 763 458 763 455 738 c 1,70,71
 564 838 564 838 669 887 c 128,-1,72
 774 936 774 936 864 936 c 0,73,74
 895 936 895 936 920 930 c 128,-1,75
 945 924 945 924 962.5 907.5 c 128,-1,76
 980 891 980 891 989 860.5 c 128,-1,77
 998 830 998 830 998 782 c 0,78,79
 998 747 998 747 992 700 c 128,-1,80
 986 653 986 653 976.5 600.5 c 128,-1,81
 967 548 967 548 956 493 c 128,-1,82
 945 438 945 438 935.5 388 c 128,-1,83
 926 338 926 338 920 295.5 c 128,-1,84
 914 253 914 253 914 225 c 0,85,86
 914 191 914 191 923 178.5 c 128,-1,87
 932 166 932 166 950 166 c 0,88,89
 962 166 962 166 972 168 c 128,-1,90
 982 170 982 170 993 174 c 128,-1,91
 1004 178 1004 178 1018.5 184 c 128,-1,92
 1033 190 1033 190 1054 199 c 1,93,-1
 1084 122 l 1,0,1
EndSplineSet
EndChar

StartChar: o
Encoding: 111 111 82
Width: 924
GlyphClass: 2
Flags: W
AnchorPoint: "Anchor-4" 950 870 basechar 0
AnchorPoint: "Anchor-3" 459 0 basechar 0
AnchorPoint: "Anchor-2" 410 0 basechar 0
AnchorPoint: "Anchor-1" 384 -100 basechar 0
AnchorPoint: "Anchor-0" 535 1000 basechar 0
LayerCount: 2
Fore
SplineSet
628 473 m 0,0,1
 628 549 628 549 615.5 608 c 128,-1,2
 603 667 603 667 583 707 c 128,-1,3
 563 747 563 747 538 768 c 128,-1,4
 513 789 513 789 488 789 c 0,5,6
 434 789 434 789 397.5 756.5 c 128,-1,7
 361 724 361 724 338.5 672 c 128,-1,8
 316 620 316 620 306.5 556 c 128,-1,9
 297 492 297 492 297 428 c 0,10,11
 297 361 297 361 310.5 302 c 128,-1,12
 324 243 324 243 345.5 198.5 c 128,-1,13
 367 154 367 154 394.5 128 c 128,-1,14
 422 102 422 102 449 102 c 0,15,16
 499 102 499 102 533.5 137 c 128,-1,17
 568 172 568 172 589 226 c 128,-1,18
 610 280 610 280 619 345.5 c 128,-1,19
 628 411 628 411 628 473 c 0,0,1
891 559 m 0,20,21
 891 492 891 492 873 423.5 c 128,-1,22
 855 355 855 355 822.5 290.5 c 128,-1,23
 790 226 790 226 744 167.5 c 128,-1,24
 698 109 698 109 642 63 c 0,25,26
 616 42 616 42 583 23 c 128,-1,27
 550 4 550 4 515 -10.5 c 128,-1,28
 480 -25 480 -25 445.5 -33 c 128,-1,29
 411 -41 411 -41 381 -41 c 0,30,31
 300 -41 300 -41 235.5 -11.5 c 128,-1,32
 171 18 171 18 126 69.5 c 128,-1,33
 81 121 81 121 57 191.5 c 128,-1,34
 33 262 33 262 33 344 c 0,35,36
 33 487 33 487 93 612.5 c 128,-1,37
 153 738 153 738 287 840 c 0,38,39
 313 860 313 860 345.5 877.5 c 128,-1,40
 378 895 378 895 413.5 908 c 128,-1,41
 449 921 449 921 485.5 928.5 c 128,-1,42
 522 936 522 936 557 936 c 0,43,44
 635 936 635 936 697 908 c 128,-1,45
 759 880 759 880 802 830 c 128,-1,46
 845 780 845 780 868 711 c 128,-1,47
 891 642 891 642 891 559 c 0,20,21
EndSplineSet
EndChar

StartChar: p
Encoding: 112 112 83
Width: 1045
GlyphClass: 2
Flags: W
AnchorPoint: "Anchor-4" 1104 870 basechar 0
AnchorPoint: "Anchor-3" 383 -600 basechar 0
AnchorPoint: "Anchor-2" 540 0 basechar 0
AnchorPoint: "Anchor-1" 383 -600 basechar 0
AnchorPoint: "Anchor-0" 602 1000 basechar 0
LayerCount: 2
Fore
SplineSet
630 745 m 0,0,1
 615 745 615 745 589.5 731.5 c 128,-1,2
 564 718 564 718 533 691 c 128,-1,3
 502 664 502 664 467.5 623.5 c 128,-1,4
 433 583 433 583 402 529 c 1,5,6
 394 476 394 476 383 414 c 128,-1,7
 372 352 372 352 360 280 c 1,8,9
 378 257 378 257 403.5 238 c 128,-1,10
 429 219 429 219 456.5 205 c 128,-1,11
 484 191 484 191 510 183.5 c 128,-1,12
 536 176 536 176 556 176 c 0,13,14
 595 176 595 176 626 200 c 128,-1,15
 657 224 657 224 674 259 c 0,16,17
 695 304 695 304 707 373 c 128,-1,18
 719 442 719 442 719 522 c 0,19,20
 719 570 719 570 711.5 610.5 c 128,-1,21
 704 651 704 651 691 681 c 128,-1,22
 678 711 678 711 662 728 c 128,-1,23
 646 745 646 745 630 745 c 0,0,1
448 870 m 0,24,25
 448 851 448 851 445 822.5 c 128,-1,26
 442 794 442 794 437 754 c 1,27,28
 489 809 489 809 532 844 c 128,-1,29
 575 879 575 879 613.5 899.5 c 128,-1,30
 652 920 652 920 686.5 928 c 128,-1,31
 721 936 721 936 756 936 c 0,32,33
 802 936 802 936 843.5 916 c 128,-1,34
 885 896 885 896 916.5 856.5 c 128,-1,35
 948 817 948 817 966.5 759.5 c 128,-1,36
 985 702 985 702 985 627 c 0,37,38
 985 565 985 565 973 500 c 128,-1,39
 961 435 961 435 941.5 372.5 c 128,-1,40
 922 310 922 310 897 255 c 128,-1,41
 872 200 872 200 846 158 c 0,42,43
 823 122 823 122 794 86 c 128,-1,44
 765 50 765 50 731.5 22 c 128,-1,45
 698 -6 698 -6 660 -23.5 c 128,-1,46
 622 -41 622 -41 582 -41 c 0,47,48
 559 -41 559 -41 529.5 -31 c 128,-1,49
 500 -21 500 -21 467.5 0 c 128,-1,50
 435 21 435 21 401 53 c 128,-1,51
 367 85 367 85 335 129 c 1,52,-1
 315 6 l 2,53,54
 298 -97 298 -97 288 -167.5 c 128,-1,55
 278 -238 278 -238 273.5 -284.5 c 128,-1,56
 269 -331 269 -331 270 -357 c 128,-1,57
 271 -383 271 -383 276 -397 c 1,58,59
 266 -400 266 -400 245.5 -407 c 128,-1,60
 225 -414 225 -414 199 -424.5 c 128,-1,61
 173 -435 173 -435 144.5 -446.5 c 128,-1,62
 116 -458 116 -458 90.5 -468.5 c 128,-1,63
 65 -479 65 -479 45 -487.5 c 128,-1,64
 25 -496 25 -496 16 -500 c 1,65,-1
 -26 -461 l 1,66,67
 -22 -432 -22 -432 -12 -375 c 128,-1,68
 -2 -318 -2 -318 11.5 -242 c 128,-1,69
 25 -166 25 -166 41.5 -77.5 c 128,-1,70
 58 11 58 11 74.5 103 c 128,-1,71
 91 195 91 195 106.5 284.5 c 128,-1,72
 122 374 122 374 134 451.5 c 128,-1,73
 146 529 146 529 153 588.5 c 128,-1,74
 160 648 160 648 160 680 c 0,75,76
 160 703 160 703 156 716.5 c 128,-1,77
 152 730 152 730 145 736.5 c 128,-1,78
 138 743 138 743 130 745 c 128,-1,79
 122 747 122 747 113 747 c 256,80,81
 104 747 104 747 88.5 743.5 c 128,-1,82
 73 740 73 740 59 735 c 1,83,84
 41 730 41 730 23 723 c 1,85,-1
 4 800 l 1,86,87
 49 821 49 821 107.5 845 c 128,-1,88
 166 869 166 869 222.5 889.5 c 128,-1,89
 279 910 279 910 325 923 c 128,-1,90
 371 936 371 936 391 936 c 0,91,92
 419 936 419 936 433.5 922.5 c 128,-1,93
 448 909 448 909 448 870 c 0,24,25
EndSplineSet
EndChar

StartChar: q
Encoding: 113 113 84
Width: 973
GlyphClass: 2
Flags: W
AnchorPoint: "Anchor-4" 1074 870 basechar 0
AnchorPoint: "Anchor-3" 332 -600 basechar 0
AnchorPoint: "Anchor-2" 332 -600 basechar 0
AnchorPoint: "Anchor-1" 332 -600 basechar 0
AnchorPoint: "Anchor-0" 552 1000 basechar 0
LayerCount: 2
Fore
SplineSet
378 176 m 0,0,1
 389 176 389 176 406.5 184.5 c 128,-1,2
 424 193 424 193 449 214.5 c 128,-1,3
 474 236 474 236 506.5 272 c 128,-1,4
 539 308 539 308 580 363 c 1,5,-1
 637 710 l 1,6,7
 608 738 608 738 578.5 759.5 c 128,-1,8
 549 781 549 781 522 781 c 0,9,10
 481 781 481 781 447.5 762 c 128,-1,11
 414 743 414 743 387.5 711.5 c 128,-1,12
 361 680 361 680 341 639 c 128,-1,13
 321 598 321 598 308 553.5 c 128,-1,14
 295 509 295 509 288.5 463.5 c 128,-1,15
 282 418 282 418 282 379 c 0,16,17
 282 326 282 326 290 287.5 c 128,-1,18
 298 249 298 249 311.5 224 c 128,-1,19
 325 199 325 199 342.5 187.5 c 128,-1,20
 360 176 360 176 378 176 c 0,0,1
970 861 m 1,21,22
 953 847 953 847 940 836 c 128,-1,23
 927 825 927 825 917.5 810.5 c 128,-1,24
 908 796 908 796 900 775 c 128,-1,25
 892 754 892 754 886 720 c 0,26,27
 864 587 864 587 843 459 c 128,-1,28
 822 331 822 331 804 214 c 128,-1,29
 786 97 786 97 772 -4.5 c 128,-1,30
 758 -106 758 -106 751 -186 c 128,-1,31
 744 -266 744 -266 744.5 -320.5 c 128,-1,32
 745 -375 745 -375 756 -397 c 1,33,34
 747 -400 747 -400 726.5 -407.5 c 128,-1,35
 706 -415 706 -415 679.5 -425.5 c 128,-1,36
 653 -436 653 -436 623.5 -447 c 128,-1,37
 594 -458 594 -458 568 -468.5 c 128,-1,38
 542 -479 542 -479 521.5 -487.5 c 128,-1,39
 501 -496 501 -496 493 -500 c 1,40,-1
 448 -461 l 1,41,42
 452 -428 452 -428 461 -369 c 128,-1,43
 470 -310 470 -310 482.5 -231.5 c 128,-1,44
 495 -153 495 -153 510 -59 c 128,-1,45
 525 35 525 35 542 137 c 1,46,47
 497 86 497 86 459.5 52 c 128,-1,48
 422 18 422 18 389.5 -3 c 128,-1,49
 357 -24 357 -24 327 -32.5 c 128,-1,50
 297 -41 297 -41 266 -41 c 0,51,52
 229 -41 229 -41 188 -22 c 128,-1,53
 147 -3 147 -3 112.5 38.5 c 128,-1,54
 78 80 78 80 55.5 145.5 c 128,-1,55
 33 211 33 211 33 305 c 0,56,57
 33 384 33 384 53.5 460.5 c 128,-1,58
 74 537 74 537 113 606.5 c 128,-1,59
 152 676 152 676 207.5 736 c 128,-1,60
 263 796 263 796 334 842 c 0,61,62
 362 860 362 860 400 877 c 128,-1,63
 438 894 438 894 479 907 c 128,-1,64
 520 920 520 920 560 928 c 128,-1,65
 600 936 600 936 632 936 c 0,66,67
 674 936 674 936 716 916.5 c 128,-1,68
 758 897 758 897 795 873 c 1,69,70
 832 891 832 891 868.5 907 c 128,-1,71
 905 923 905 923 932 936 c 1,72,-1
 970 861 l 1,21,22
EndSplineSet
EndChar

StartChar: r
Encoding: 114 114 85
Width: 872
GlyphClass: 2
Flags: W
AnchorPoint: "Anchor-4" 872 870 basechar 0
AnchorPoint: "Anchor-3" 237 -100 basechar 0
AnchorPoint: "Anchor-2" 195 0 basechar 0
AnchorPoint: "Anchor-1" 237 -100 basechar 0
AnchorPoint: "Anchor-0" 533 1000 basechar 0
LayerCount: 2
Fore
SplineSet
933 850 m 1,0,1
 925 839 925 839 912 817.5 c 128,-1,2
 899 796 899 796 884 770 c 128,-1,3
 869 744 869 744 852.5 716.5 c 128,-1,4
 836 689 836 689 821.5 666.5 c 128,-1,5
 807 644 807 644 795 629.5 c 128,-1,6
 783 615 783 615 777 615 c 0,7,8
 758 615 758 615 740 627.5 c 128,-1,9
 722 640 722 640 704.5 654.5 c 128,-1,10
 687 669 687 669 671 681.5 c 128,-1,11
 655 694 655 694 640 694 c 0,12,13
 614 694 614 694 582.5 672.5 c 128,-1,14
 551 651 551 651 520 610.5 c 128,-1,15
 489 570 489 570 461 512.5 c 128,-1,16
 433 455 433 455 412 383 c 0,17,18
 391 308 391 308 377.5 231.5 c 128,-1,19
 364 155 364 155 367 75 c 1,20,21
 350 68 350 68 313 51.5 c 128,-1,22
 276 35 276 35 236 16.5 c 128,-1,23
 196 -2 196 -2 161 -18 c 128,-1,24
 126 -34 126 -34 114 -41 c 1,25,-1
 71 0 l 1,26,27
 93 106 93 106 112 209 c 128,-1,28
 131 312 131 312 144.5 401.5 c 128,-1,29
 158 491 158 491 166 563 c 128,-1,30
 174 635 174 635 174 680 c 0,31,32
 174 703 174 703 170.5 716.5 c 128,-1,33
 167 730 167 730 161.5 736.5 c 128,-1,34
 156 743 156 743 148.5 745 c 128,-1,35
 141 747 141 747 133 747 c 0,36,37
 123 747 123 747 107.5 743.5 c 128,-1,38
 92 740 92 740 77 735 c 0,39,40
 59 730 59 730 40 723 c 1,41,-1
 21 800 l 1,42,43
 49 813 49 813 85 828 c 128,-1,44
 121 843 121 843 159 858 c 128,-1,45
 197 873 197 873 235 887 c 128,-1,46
 273 901 273 901 306 912 c 128,-1,47
 339 923 339 923 365 929.5 c 128,-1,48
 391 936 391 936 404 936 c 0,49,50
 432 936 432 936 442.5 916 c 128,-1,51
 453 896 453 896 453 841 c 0,52,53
 453 830 453 830 452 813.5 c 128,-1,54
 451 797 451 797 448.5 777.5 c 128,-1,55
 446 758 446 758 443.5 737.5 c 128,-1,56
 441 717 441 717 438 698 c 1,57,58
 486 770 486 770 527.5 816.5 c 128,-1,59
 569 863 569 863 605.5 889.5 c 128,-1,60
 642 916 642 916 675 926 c 128,-1,61
 708 936 708 936 740 936 c 0,62,63
 758 936 758 936 782 926 c 128,-1,64
 806 916 806 916 832 902 c 128,-1,65
 858 888 858 888 884.5 873.5 c 128,-1,66
 911 859 911 859 933 850 c 1,0,1
EndSplineSet
EndChar

StartChar: s
Encoding: 115 115 86
Width: 811
GlyphClass: 2
Flags: W
AnchorPoint: "Anchor-4" 811 870 basechar 0
AnchorPoint: "Anchor-3" 336 -100 basechar 0
AnchorPoint: "Anchor-2" 340 0 basechar 0
AnchorPoint: "Anchor-1" 336 -100 basechar 0
AnchorPoint: "Anchor-0" 487 1000 basechar 0
LayerCount: 2
Fore
SplineSet
818 844 m 1,0,1
 802 821 802 821 779.5 791.5 c 128,-1,2
 757 762 757 762 734.5 735 c 128,-1,3
 712 708 712 708 692 689.5 c 128,-1,4
 672 671 672 671 661 671 c 0,5,6
 644 671 644 671 623 693 c 128,-1,7
 602 715 602 715 575.5 741.5 c 128,-1,8
 549 768 549 768 518 790 c 128,-1,9
 487 812 487 812 450 812 c 0,10,11
 394 812 394 812 371 786.5 c 128,-1,12
 348 761 348 761 348 719 c 0,13,14
 348 694 348 694 359 673.5 c 128,-1,15
 370 653 370 653 391.5 634.5 c 128,-1,16
 413 616 413 616 444.5 598 c 128,-1,17
 476 580 476 580 516 559 c 0,18,19
 557 538 557 538 596.5 513 c 128,-1,20
 636 488 636 488 666.5 455.5 c 128,-1,21
 697 423 697 423 716 382.5 c 128,-1,22
 735 342 735 342 735 289 c 0,23,24
 735 243 735 243 714.5 200.5 c 128,-1,25
 694 158 694 158 659 121.5 c 128,-1,26
 624 85 624 85 578.5 55 c 128,-1,27
 533 25 533 25 484 3.5 c 128,-1,28
 435 -18 435 -18 385 -29.5 c 128,-1,29
 335 -41 335 -41 292 -41 c 0,30,31
 223 -41 223 -41 165 -24 c 128,-1,32
 107 -7 107 -7 65 17.5 c 128,-1,33
 23 42 23 42 -0.5 69.5 c 128,-1,34
 -24 97 -24 97 -24 118 c 0,35,36
 -24 133 -24 133 -9 166.5 c 128,-1,37
 6 200 6 200 26.5 235 c 128,-1,38
 47 270 47 270 67 296.5 c 128,-1,39
 87 323 87 323 98 323 c 0,40,41
 107 323 107 323 118 306 c 128,-1,42
 129 289 129 289 143.5 264 c 128,-1,43
 158 239 158 239 176.5 209 c 128,-1,44
 195 179 195 179 220.5 154 c 128,-1,45
 246 129 246 129 278 112 c 128,-1,46
 310 95 310 95 352 95 c 0,47,48
 415 95 415 95 449.5 127 c 128,-1,49
 484 159 484 159 484 213 c 0,50,51
 484 246 484 246 466.5 274.5 c 128,-1,52
 449 303 449 303 420 328 c 128,-1,53
 391 353 391 353 354.5 374.5 c 128,-1,54
 318 396 318 396 281 416 c 1,55,56
 228 443 228 443 193.5 471.5 c 128,-1,57
 159 500 159 500 139 529.5 c 128,-1,58
 119 559 119 559 111 590 c 128,-1,59
 103 621 103 621 103 653 c 0,60,61
 103 716 103 716 142 768 c 128,-1,62
 181 820 181 820 240 857.5 c 128,-1,63
 299 895 299 895 369.5 915.5 c 128,-1,64
 440 936 440 936 503 936 c 0,65,66
 557 936 557 936 600.5 923.5 c 128,-1,67
 644 911 644 911 681 895.5 c 128,-1,68
 718 880 718 880 751 865 c 128,-1,69
 784 850 784 850 818 844 c 1,0,1
EndSplineSet
EndChar

StartChar: t
Encoding: 116 116 87
Width: 714
GlyphClass: 2
Flags: W
AnchorPoint: "Anchor-4" 659 870 basechar 0
AnchorPoint: "Anchor-3" 281 -100 basechar 0
AnchorPoint: "Anchor-2" 295 0 basechar 0
AnchorPoint: "Anchor-1" 281 -100 basechar 0
AnchorPoint: "Anchor-0" 466 1230 basechar 0
LayerCount: 2
Fore
SplineSet
690 167 m 1,0,1
 633 122 633 122 576 83.5 c 128,-1,2
 519 45 519 45 466.5 17.5 c 128,-1,3
 414 -10 414 -10 370.5 -25.5 c 128,-1,4
 327 -41 327 -41 297 -41 c 0,5,6
 265 -41 265 -41 232 -26 c 128,-1,7
 199 -11 199 -11 172.5 15.5 c 128,-1,8
 146 42 146 42 129 79 c 128,-1,9
 112 116 112 116 112 160 c 0,10,11
 112 179 112 179 112.5 198 c 128,-1,12
 113 217 113 217 114.5 237.5 c 128,-1,13
 116 258 116 258 118.5 281 c 128,-1,14
 121 304 121 304 126 332 c 2,15,-1
 196 775 l 1,16,-1
 64 775 l 1,17,-1
 39 816 l 1,18,-1
 165 905 l 1,19,-1
 217 905 l 1,20,-1
 223 940 l 1,21,22
 229 981 229 981 235.5 1003 c 128,-1,23
 242 1025 242 1025 250.5 1037.5 c 128,-1,24
 259 1050 259 1050 269 1057 c 128,-1,25
 279 1064 279 1064 292 1074 c 1,26,-1
 513 1176 l 1,27,-1
 541 1151 l 1,28,29
 533 1142 533 1142 525 1119 c 0,30,31
 517 1099 517 1099 508.5 1062 c 128,-1,32
 500 1025 500 1025 490 963 c 2,33,-1
 480 905 l 1,34,-1
 720 905 l 1,35,-1
 750 867 l 1,36,37
 740 853 740 853 720 832 c 128,-1,38
 700 811 700 811 678 790 c 128,-1,39
 656 769 656 769 636.5 752 c 128,-1,40
 617 735 617 735 608 730 c 1,41,42
 596 758 596 758 560.5 766.5 c 128,-1,43
 525 775 525 775 465 775 c 2,44,-1
 460 775 l 1,45,-1
 408 446 l 2,46,47
 405 427 405 427 402.5 405.5 c 128,-1,48
 400 384 400 384 398.5 364.5 c 128,-1,49
 397 345 397 345 396.5 328 c 128,-1,50
 396 311 396 311 396 301 c 0,51,52
 396 239 396 239 413 214.5 c 128,-1,53
 430 190 430 190 458 190 c 0,54,55
 493 190 493 190 539 205 c 128,-1,56
 585 220 585 220 660 254 c 1,57,-1
 690 167 l 1,0,1
EndSplineSet
EndChar

StartChar: u
Encoding: 117 117 88
Width: 1127
GlyphClass: 2
Flags: W
AnchorPoint: "Anchor-4" 1170 870 basechar 0
AnchorPoint: "Anchor-3" 849 0 basechar 0
AnchorPoint: "Anchor-2" 790 0 basechar 0
AnchorPoint: "Anchor-1" 482 -100 basechar 0
AnchorPoint: "Anchor-0" 633 1000 basechar 0
LayerCount: 2
Fore
SplineSet
1100 118 m 1,0,1
 1060 91 1060 91 1017.5 63 c 128,-1,2
 975 35 975 35 935 11.5 c 128,-1,3
 895 -12 895 -12 859.5 -26.5 c 128,-1,4
 824 -41 824 -41 798 -41 c 0,5,6
 775 -41 775 -41 751.5 -27 c 128,-1,7
 728 -13 728 -13 708 15 c 128,-1,8
 688 43 688 43 673 85 c 128,-1,9
 658 127 658 127 652 182 c 1,10,11
 614 134 614 134 569.5 93 c 128,-1,12
 525 52 525 52 477.5 22.5 c 128,-1,13
 430 -7 430 -7 383 -24 c 128,-1,14
 336 -41 336 -41 293 -41 c 0,15,16
 262 -41 262 -41 229 -25.5 c 128,-1,17
 196 -10 196 -10 168.5 21 c 128,-1,18
 141 52 141 52 123.5 98 c 128,-1,19
 106 144 106 144 106 205 c 0,20,21
 106 235 106 235 110.5 275 c 128,-1,22
 115 315 115 315 122.5 359.5 c 128,-1,23
 130 404 130 404 138 450.5 c 128,-1,24
 146 497 146 497 153.5 540 c 128,-1,25
 161 583 161 583 165.5 619.5 c 128,-1,26
 170 656 170 656 170 680 c 0,27,28
 170 703 170 703 167 716.5 c 128,-1,29
 164 730 164 730 158.5 736.5 c 128,-1,30
 153 743 153 743 145.5 745 c 128,-1,31
 138 747 138 747 129 747 c 256,32,33
 120 747 120 747 104.5 743.5 c 128,-1,34
 89 740 89 740 74 735 c 0,35,36
 56 730 56 730 36 723 c 1,37,-1
 19 800 l 1,38,39
 47 813 47 813 83.5 828 c 128,-1,40
 120 843 120 843 159 858 c 128,-1,41
 198 873 198 873 237 887 c 128,-1,42
 276 901 276 901 310 912 c 128,-1,43
 344 923 344 923 370.5 929.5 c 128,-1,44
 397 936 397 936 410 936 c 0,45,46
 439 936 439 936 449 917 c 128,-1,47
 459 898 459 898 459 852 c 0,48,49
 459 823 459 823 453 776.5 c 128,-1,50
 447 730 447 730 438 675.5 c 128,-1,51
 429 621 429 621 419 562 c 128,-1,52
 409 503 409 503 400 448.5 c 128,-1,53
 391 394 391 394 385 347.5 c 128,-1,54
 379 301 379 301 379 272 c 0,55,56
 379 229 379 229 394.5 204.5 c 128,-1,57
 410 180 410 180 424 180 c 0,58,59
 456 180 456 180 517.5 229.5 c 128,-1,60
 579 279 579 279 662 390 c 1,61,62
 668 430 668 430 675.5 472 c 128,-1,63
 683 514 683 514 689 552.5 c 128,-1,64
 695 591 695 591 699.5 624 c 128,-1,65
 704 657 704 657 704 680 c 256,66,67
 704 703 704 703 701.5 716.5 c 128,-1,68
 699 730 699 730 694 736.5 c 128,-1,69
 689 743 689 743 682.5 745 c 128,-1,70
 676 747 676 747 667 747 c 256,71,72
 658 747 658 747 644 743.5 c 128,-1,73
 630 740 630 740 616 735 c 0,74,75
 600 730 600 730 583 723 c 1,76,-1
 563 800 l 1,77,78
 591 813 591 813 626.5 828 c 128,-1,79
 662 843 662 843 700.5 858 c 128,-1,80
 739 873 739 873 777 887 c 128,-1,81
 815 901 815 901 848 912 c 128,-1,82
 881 923 881 923 907 929.5 c 128,-1,83
 933 936 933 936 946 936 c 0,84,85
 974 936 974 936 983 917 c 128,-1,86
 992 898 992 898 992 852 c 0,87,88
 992 823 992 823 987 781.5 c 128,-1,89
 982 740 982 740 974 692 c 2,90,-1
 957 593 l 2,91,92
 949 542 949 542 941 493 c 128,-1,93
 933 444 933 444 928 400.5 c 128,-1,94
 923 357 923 357 923 324 c 0,95,96
 923 279 923 279 926.5 248.5 c 128,-1,97
 930 218 930 218 937 199.5 c 128,-1,98
 944 181 944 181 954 173.5 c 128,-1,99
 964 166 964 166 976 166 c 0,100,101
 1002 166 1002 166 1023.5 172.5 c 128,-1,102
 1045 179 1045 179 1081 194 c 1,103,-1
 1100 118 l 1,0,1
EndSplineSet
EndChar

StartChar: v
Encoding: 118 118 89
Width: 998
GlyphClass: 2
Flags: W
AnchorPoint: "Anchor-4" 998 870 basechar 0
AnchorPoint: "Anchor-3" 390 0 basechar 0
AnchorPoint: "Anchor-2" 440 0 basechar 0
AnchorPoint: "Anchor-1" 418 -100 basechar 0
AnchorPoint: "Anchor-0" 569 1000 basechar 0
LayerCount: 2
Fore
SplineSet
998 852 m 0,0,1
 998 820 998 820 975 765 c 128,-1,2
 952 710 952 710 899.5 617 c 128,-1,3
 847 524 847 524 763 386.5 c 128,-1,4
 679 249 679 249 556 52 c 1,5,6
 547 47 547 47 520.5 34 c 128,-1,7
 494 21 494 21 463 5.5 c 128,-1,8
 432 -10 432 -10 404.5 -23.5 c 128,-1,9
 377 -37 377 -37 367 -41 c 1,10,-1
 325 0 l 1,11,12
 317 56 317 56 307 118 c 128,-1,13
 297 180 297 180 285.5 242.5 c 128,-1,14
 274 305 274 305 261.5 366 c 128,-1,15
 249 427 249 427 237 481 c 128,-1,16
 225 535 225 535 214 580 c 128,-1,17
 203 625 203 625 194 655 c 0,18,19
 186 682 186 682 177 698 c 128,-1,20
 168 714 168 714 158.5 723 c 128,-1,21
 149 732 149 732 140 734.5 c 128,-1,22
 131 737 131 737 122 737 c 0,23,24
 112 737 112 737 96 733.5 c 128,-1,25
 80 730 80 730 64 725 c 0,26,27
 46 720 46 720 24 713 c 1,28,-1
 -4 790 l 1,29,30
 38 812 38 812 89.5 837.5 c 128,-1,31
 141 863 141 863 189 885 c 128,-1,32
 237 907 237 907 275.5 921.5 c 128,-1,33
 314 936 314 936 330 936 c 0,34,35
 359 936 359 936 378.5 907.5 c 128,-1,36
 398 879 398 879 420 809 c 0,37,38
 428 783 428 783 439 736.5 c 128,-1,39
 450 690 450 690 461.5 633.5 c 128,-1,40
 473 577 473 577 484.5 516.5 c 128,-1,41
 496 456 496 456 505 404 c 128,-1,42
 514 352 514 352 520.5 313.5 c 128,-1,43
 527 275 527 275 528 262 c 1,44,45
 595 367 595 367 633.5 444 c 128,-1,46
 672 521 672 521 691 573.5 c 128,-1,47
 710 626 710 626 714.5 656 c 128,-1,48
 719 686 719 686 719 697 c 0,49,50
 719 724 719 724 707 736 c 128,-1,51
 695 748 695 748 667 748 c 0,52,53
 650 748 650 748 634.5 744.5 c 128,-1,54
 619 741 619 741 597 733 c 1,55,-1
 574 808 l 1,56,57
 606 826 606 826 654 849 c 128,-1,58
 702 872 702 872 751.5 891.5 c 128,-1,59
 801 911 801 911 845.5 924 c 128,-1,60
 890 937 890 937 914 936 c 0,61,62
 931 935 931 935 946.5 931 c 128,-1,63
 962 927 962 927 973.5 917 c 128,-1,64
 985 907 985 907 991.5 891.5 c 128,-1,65
 998 876 998 876 998 852 c 0,0,1
EndSplineSet
EndChar

StartChar: w
Encoding: 119 119 90
Width: 1420
GlyphClass: 2
Flags: W
AnchorPoint: "Anchor-4" 1420 870 basechar 0
AnchorPoint: "Anchor-3" 667 -100 basechar 0
AnchorPoint: "Anchor-2" 667 -100 basechar 0
AnchorPoint: "Anchor-1" 667 -100 basechar 0
AnchorPoint: "Anchor-0" 818 1000 basechar 0
LayerCount: 2
Fore
SplineSet
1428 860 m 0,0,1
 1428 833 1428 833 1420.5 802 c 128,-1,2
 1413 771 1413 771 1395.5 728 c 128,-1,3
 1378 685 1378 685 1349 627 c 128,-1,4
 1320 569 1320 569 1276.5 489 c 128,-1,5
 1233 409 1233 409 1174.5 303 c 128,-1,6
 1116 197 1116 197 1039 58 c 1,7,8
 1033 55 1033 55 1018.5 47.5 c 128,-1,9
 1004 40 1004 40 985.5 30 c 128,-1,10
 967 20 967 20 946 8.5 c 128,-1,11
 925 -3 925 -3 905.5 -13 c 128,-1,12
 886 -23 886 -23 871 -30 c 2,13,-1
 850 -41 l 1,14,-1
 807 0 l 1,15,16
 785 170 785 170 763.5 303.5 c 128,-1,17
 742 437 742 437 716 530 c 1,18,19
 693 456 693 456 643.5 343.5 c 128,-1,20
 594 231 594 231 504 70 c 1,21,22
 498 67 498 67 482.5 58.5 c 128,-1,23
 467 50 467 50 446 38.5 c 128,-1,24
 425 27 425 27 401 14.5 c 128,-1,25
 377 2 377 2 356 -9.5 c 128,-1,26
 335 -21 335 -21 318.5 -29.5 c 128,-1,27
 302 -38 302 -38 295 -41 c 1,28,-1
 253 0 l 1,29,30
 247 57 247 57 240.5 123 c 128,-1,31
 234 189 234 189 227 256.5 c 128,-1,32
 220 324 220 324 212.5 389 c 128,-1,33
 205 454 205 454 199 507.5 c 128,-1,34
 193 561 193 561 187.5 600 c 128,-1,35
 182 639 182 639 178 655 c 0,36,37
 172 682 172 682 163.5 698 c 128,-1,38
 155 714 155 714 145.5 723 c 128,-1,39
 136 732 136 732 126 734.5 c 128,-1,40
 116 737 116 737 107 737 c 256,41,42
 98 737 98 737 82 733.5 c 128,-1,43
 66 730 66 730 49 725 c 0,44,45
 30 720 30 720 8 713 c 1,46,-1
 -16 790 l 1,47,48
 27 814 27 814 79.5 839.5 c 128,-1,49
 132 865 132 865 180.5 886.5 c 128,-1,50
 229 908 229 908 268 922 c 128,-1,51
 307 936 307 936 324 936 c 0,52,53
 352 936 352 936 366.5 903.5 c 128,-1,54
 381 871 381 871 397 799 c 0,55,56
 401 780 401 780 407 741.5 c 128,-1,57
 413 703 413 703 419.5 654.5 c 128,-1,58
 426 606 426 606 432.5 552 c 128,-1,59
 439 498 439 498 444.5 447.5 c 128,-1,60
 450 397 450 397 454 355 c 128,-1,61
 458 313 458 313 460 288 c 1,62,63
 500 366 500 366 533 442.5 c 128,-1,64
 566 519 566 519 590 587 c 128,-1,65
 614 655 614 655 627.5 711 c 128,-1,66
 641 767 641 767 643 804 c 1,67,68
 665 825 665 825 696 848 c 128,-1,69
 727 871 727 871 759 890.5 c 128,-1,70
 791 910 791 910 819.5 923 c 128,-1,71
 848 936 848 936 865 936 c 0,72,73
 869 936 869 936 875.5 919.5 c 128,-1,74
 882 903 882 903 890 876 c 128,-1,75
 898 849 898 849 907 813.5 c 128,-1,76
 916 778 916 778 924.5 741 c 128,-1,77
 933 704 933 704 940.5 667 c 128,-1,78
 948 630 948 630 953 600 c 0,79,80
 968 506 968 506 983 422.5 c 128,-1,81
 998 339 998 339 1004 277 c 1,82,83
 1048 355 1048 355 1085.5 424 c 128,-1,84
 1123 493 1123 493 1150 549 c 128,-1,85
 1177 605 1177 605 1192 648.5 c 128,-1,86
 1207 692 1207 692 1207 719 c 0,87,88
 1207 740 1207 740 1192.5 752 c 128,-1,89
 1178 764 1178 764 1152 764 c 0,90,91
 1138 764 1138 764 1113 760 c 128,-1,92
 1088 756 1088 756 1066 749 c 1,93,-1
 1038 826 l 1,94,95
 1076 850 1076 850 1119 870 c 128,-1,96
 1162 890 1162 890 1203.5 905 c 128,-1,97
 1245 920 1245 920 1281.5 928 c 128,-1,98
 1318 936 1318 936 1344 936 c 0,99,100
 1361 936 1361 936 1376 933.5 c 128,-1,101
 1391 931 1391 931 1402.5 923 c 128,-1,102
 1414 915 1414 915 1421 900 c 128,-1,103
 1428 885 1428 885 1428 860 c 0,0,1
EndSplineSet
EndChar

StartChar: x
Encoding: 120 120 91
Width: 961
GlyphClass: 2
Flags: W
AnchorPoint: "Anchor-4" 961 870 basechar 0
AnchorPoint: "Anchor-3" 430 -100 basechar 0
AnchorPoint: "Anchor-2" 690 0 basechar 0
AnchorPoint: "Anchor-1" 430 -100 basechar 0
AnchorPoint: "Anchor-0" 580 1000 basechar 0
LayerCount: 2
Fore
SplineSet
947 112 m 1,0,1
 904 82 904 82 860.5 54.5 c 128,-1,2
 817 27 817 27 776.5 5.5 c 128,-1,3
 736 -16 736 -16 700.5 -28.5 c 128,-1,4
 665 -41 665 -41 638 -41 c 256,5,6
 611 -41 611 -41 584 -17.5 c 128,-1,7
 557 6 557 6 530.5 46.5 c 128,-1,8
 504 87 504 87 478 140.5 c 128,-1,9
 452 194 452 194 427 254 c 1,10,11
 392 203 392 203 350 142.5 c 128,-1,12
 308 82 308 82 260 10 c 1,13,14
 248 8 248 8 226 5 c 128,-1,15
 204 2 204 2 177.5 -2.5 c 128,-1,16
 151 -7 151 -7 122 -12.5 c 128,-1,17
 93 -18 93 -18 66.5 -23 c 128,-1,18
 40 -28 40 -28 18 -33 c 128,-1,19
 -4 -38 -4 -38 -16 -41 c 1,20,-1
 -49 4 l 1,21,22
 -6 42 -6 42 47.5 89.5 c 128,-1,23
 101 137 101 137 156.5 189.5 c 128,-1,24
 212 242 212 242 266.5 296.5 c 128,-1,25
 321 351 321 351 367 402 c 1,26,27
 340 469 340 469 314.5 531.5 c 128,-1,28
 289 594 289 594 264.5 642 c 128,-1,29
 240 690 240 690 216.5 718.5 c 128,-1,30
 193 747 193 747 171 747 c 0,31,32
 162 747 162 747 141 743 c 128,-1,33
 120 739 120 739 97 734 c 0,34,35
 71 728 71 728 41 721 c 1,36,-1
 17 800 l 1,37,38
 59 822 59 822 107.5 846 c 128,-1,39
 156 870 156 870 200.5 890 c 128,-1,40
 245 910 245 910 281.5 923 c 128,-1,41
 318 936 318 936 336 936 c 0,42,43
 361 936 361 936 388 907 c 128,-1,44
 415 878 415 878 442.5 830 c 128,-1,45
 470 782 470 782 497.5 719.5 c 128,-1,46
 525 657 525 657 553 590 c 1,47,48
 582 627 582 627 606 660.5 c 128,-1,49
 630 694 630 694 647 720 c 128,-1,50
 664 746 664 746 673.5 764 c 128,-1,51
 683 782 683 782 683 788 c 0,52,53
 683 809 683 809 657 818 c 128,-1,54
 631 827 631 827 566 820 c 1,55,-1
 560 901 l 1,56,57
 593 908 593 908 634.5 914 c 128,-1,58
 676 920 676 920 717.5 925 c 128,-1,59
 759 930 759 930 796 933 c 128,-1,60
 833 936 833 936 857 936 c 0,61,62
 920 936 920 936 946.5 920 c 128,-1,63
 973 904 973 904 973 883 c 0,64,65
 973 845 973 845 880.5 741 c 128,-1,66
 788 637 788 637 608 454 c 1,67,68
 633 394 633 394 657 340 c 128,-1,69
 681 286 681 286 703.5 245 c 128,-1,70
 726 204 726 204 747.5 180 c 128,-1,71
 769 156 769 156 789 156 c 0,72,73
 812 156 812 156 847.5 163 c 128,-1,74
 883 170 883 170 920 189 c 1,75,-1
 947 112 l 1,0,1
EndSplineSet
EndChar

StartChar: y
Encoding: 121 121 92
Width: 996
GlyphClass: 2
Flags: W
AnchorPoint: "Anchor-4" 1173 870 basechar 0
AnchorPoint: "Anchor-3" 680 -100 basechar 0
AnchorPoint: "Anchor-2" 680 -100 basechar 0
AnchorPoint: "Anchor-1" 680 -100 basechar 0
AnchorPoint: "Anchor-0" 600 1000 basechar 0
LayerCount: 2
Fore
SplineSet
983 860 m 0,0,1
 983 826 983 826 954 749.5 c 128,-1,2
 925 673 925 673 875.5 568.5 c 128,-1,3
 826 464 826 464 761.5 338.5 c 128,-1,4
 697 213 697 213 625 82 c 0,5,6
 555 -47 555 -47 487.5 -154 c 128,-1,7
 420 -261 420 -261 349 -338 c 128,-1,8
 278 -415 278 -415 200.5 -457.5 c 128,-1,9
 123 -500 123 -500 34 -500 c 0,10,11
 -7 -500 -7 -500 -49 -488.5 c 128,-1,12
 -91 -477 -91 -477 -125 -461.5 c 128,-1,13
 -159 -446 -159 -446 -180 -428.5 c 128,-1,14
 -201 -411 -201 -411 -201 -399 c 0,15,16
 -201 -384 -201 -384 -182 -352 c 128,-1,17
 -163 -320 -163 -320 -137.5 -286.5 c 128,-1,18
 -112 -253 -112 -253 -86.5 -225.5 c 128,-1,19
 -61 -198 -61 -198 -47 -191 c 1,20,21
 -23 -215 -23 -215 3 -234.5 c 128,-1,22
 29 -254 29 -254 54.5 -267 c 128,-1,23
 80 -280 80 -280 104 -287 c 128,-1,24
 128 -294 128 -294 146 -294 c 0,25,26
 195 -294 195 -294 249.5 -241.5 c 128,-1,27
 304 -189 304 -189 367 -90 c 1,28,29
 356 -31 356 -31 340.5 39.5 c 128,-1,30
 325 110 325 110 307 184 c 128,-1,31
 289 258 289 258 269 331 c 128,-1,32
 249 404 249 404 230 468 c 128,-1,33
 211 532 211 532 193 583.5 c 128,-1,34
 175 635 175 635 161 665 c 0,35,36
 138 716 138 716 122 731.5 c 128,-1,37
 106 747 106 747 89 747 c 0,38,39
 80 747 80 747 63.5 743.5 c 128,-1,40
 47 740 47 740 31 735 c 0,41,42
 12 730 12 730 -9 723 c 1,43,-1
 -31 800 l 1,44,45
 15 823 15 823 66 847 c 128,-1,46
 117 871 117 871 164 891 c 128,-1,47
 211 911 211 911 248.5 923.5 c 128,-1,48
 286 936 286 936 306 936 c 0,49,50
 334 936 334 936 356 907 c 128,-1,51
 378 878 378 878 402 809 c 0,52,53
 419 761 419 761 438.5 698 c 128,-1,54
 458 635 458 635 477.5 562.5 c 128,-1,55
 497 490 497 490 516.5 411 c 128,-1,56
 536 332 536 332 553 252 c 1,57,58
 591 329 591 329 624 401.5 c 128,-1,59
 657 474 657 474 681 535 c 128,-1,60
 705 596 705 596 719 642 c 128,-1,61
 733 688 733 688 733 711 c 0,62,63
 733 761 733 761 680 764 c 1,64,65
 663 766 663 766 645.5 760 c 128,-1,66
 628 754 628 754 599 741 c 1,67,-1
 571 818 l 1,68,69
 607 839 607 839 651 860 c 128,-1,70
 695 881 695 881 739 898 c 128,-1,71
 783 915 783 915 823 925.5 c 128,-1,72
 863 936 863 936 891 936 c 0,73,74
 908 936 908 936 924.5 933.5 c 128,-1,75
 941 931 941 931 954 923 c 128,-1,76
 967 915 967 915 975 900 c 128,-1,77
 983 885 983 885 983 860 c 0,0,1
EndSplineSet
EndChar

StartChar: z
Encoding: 122 122 93
Width: 787
GlyphClass: 2
Flags: W
AnchorPoint: "Anchor-4" 787 870 basechar 0
AnchorPoint: "Anchor-3" 343 -100 basechar 0
AnchorPoint: "Anchor-2" 410 0 basechar 0
AnchorPoint: "Anchor-1" 343 -100 basechar 0
AnchorPoint: "Anchor-0" 494 1000 basechar 0
LayerCount: 2
Fore
SplineSet
787 870 m 1,0,1
 732 811 732 811 689.5 759.5 c 128,-1,2
 647 708 647 708 611 659.5 c 128,-1,3
 575 611 575 611 542 563 c 128,-1,4
 509 515 509 515 473.5 463.5 c 128,-1,5
 438 412 438 412 397 355 c 128,-1,6
 356 298 356 298 303 230 c 1,7,8
 318 234 318 234 332 238 c 0,9,10
 344 241 344 241 358 243.5 c 128,-1,11
 372 246 372 246 385 246 c 0,12,13
 405 246 405 246 434 238 c 128,-1,14
 463 230 463 230 494.5 220 c 128,-1,15
 526 210 526 210 555.5 202 c 128,-1,16
 585 194 585 194 607 194 c 0,17,18
 616 194 616 194 627.5 197.5 c 128,-1,19
 639 201 639 201 652.5 212.5 c 128,-1,20
 666 224 666 224 682.5 245.5 c 128,-1,21
 699 267 699 267 718 303 c 1,22,-1
 784 263 l 1,23,24
 756 201 756 201 730 149 c 128,-1,25
 704 97 704 97 674 59.5 c 128,-1,26
 644 22 644 22 607.5 1 c 128,-1,27
 571 -20 571 -20 522 -20 c 0,28,29
 480 -20 480 -20 437.5 -9.5 c 128,-1,30
 395 1 395 1 356 13.5 c 128,-1,31
 317 26 317 26 283 36.5 c 128,-1,32
 249 47 249 47 225 47 c 0,33,34
 193 47 193 47 143.5 27 c 128,-1,35
 94 7 94 7 18 -31 c 1,36,-1
 -22 25 l 1,37,38
 53 115 53 115 123.5 213 c 128,-1,39
 194 311 194 311 257.5 403 c 128,-1,40
 321 495 321 495 376 574 c 128,-1,41
 431 653 431 653 475 705 c 1,42,-1
 268 705 l 2,43,44
 244 705 244 705 226 699 c 128,-1,45
 208 693 208 693 192 677.5 c 128,-1,46
 176 662 176 662 162.5 635 c 128,-1,47
 149 608 149 608 134 566 c 1,48,-1
 61 584 l 1,49,50
 70 629 70 629 82.5 681.5 c 128,-1,51
 95 734 95 734 106.5 783.5 c 128,-1,52
 118 833 118 833 127 874 c 128,-1,53
 136 915 136 915 140 936 c 1,54,55
 149 934 149 934 163.5 930.5 c 128,-1,56
 178 927 178 927 195.5 923.5 c 128,-1,57
 213 920 213 920 231.5 917.5 c 128,-1,58
 250 915 250 915 268 915 c 2,59,-1
 756 915 l 1,60,-1
 787 870 l 1,0,1
EndSplineSet
EndChar

StartChar: braceleft
Encoding: 123 123 94
Width: 704
Flags: W
LayerCount: 2
Fore
SplineSet
804 1513 m 1,0,1
 764 1489 764 1489 730.5 1460.5 c 128,-1,2
 697 1432 697 1432 671.5 1401 c 128,-1,3
 646 1370 646 1370 629.5 1337.5 c 128,-1,4
 613 1305 613 1305 609 1272 c 0,5,6
 602 1221 602 1221 602 1179.5 c 128,-1,7
 602 1138 602 1138 603.5 1097.5 c 128,-1,8
 605 1057 605 1057 605.5 1015.5 c 128,-1,9
 606 974 606 974 599 923 c 0,10,11
 593 881 593 881 573 840.5 c 128,-1,12
 553 800 553 800 523 764.5 c 128,-1,13
 493 729 493 729 455.5 700 c 128,-1,14
 418 671 418 671 376 653 c 1,15,16
 467 635 467 635 503.5 565.5 c 128,-1,17
 540 496 540 496 525 385 c 0,18,19
 518 332 518 332 505.5 285 c 128,-1,20
 493 238 493 238 480 194 c 128,-1,21
 467 150 467 150 455.5 107.5 c 128,-1,22
 444 65 444 65 438 23 c 0,23,24
 433 -13 433 -13 434 -44 c 128,-1,25
 435 -75 435 -75 447.5 -103 c 128,-1,26
 460 -131 460 -131 486 -158 c 128,-1,27
 512 -185 512 -185 557 -214 c 1,28,-1
 503 -315 l 1,29,30
 420 -281 420 -281 354.5 -246.5 c 128,-1,31
 289 -212 289 -212 246 -170 c 128,-1,32
 203 -128 203 -128 184.5 -74 c 128,-1,33
 166 -20 166 -20 176 52 c 0,34,35
 183 103 183 103 194.5 147 c 128,-1,36
 206 191 206 191 219 233.5 c 128,-1,37
 232 276 232 276 244 321.5 c 128,-1,38
 256 367 256 367 264 422 c 0,39,40
 275 503 275 503 248.5 534.5 c 128,-1,41
 222 566 222 566 167 566 c 2,42,-1
 148 566 l 2,43,44
 142 566 142 566 137 565.5 c 128,-1,45
 132 565 132 565 125.5 563.5 c 128,-1,46
 119 562 119 562 105 560 c 1,47,-1
 102 653 l 1,48,49
 209 684 209 684 261.5 736 c 128,-1,50
 314 788 314 788 325 863 c 0,51,52
 332 916 332 916 331.5 957.5 c 128,-1,53
 331 999 331 999 329.5 1038 c 128,-1,54
 328 1077 328 1077 327.5 1119 c 128,-1,55
 327 1161 327 1161 335 1215 c 0,56,57
 344 1282 344 1282 382 1338 c 128,-1,58
 420 1394 420 1394 478.5 1441 c 128,-1,59
 537 1488 537 1488 612.5 1527 c 128,-1,60
 688 1566 688 1566 773 1600 c 1,61,-1
 804 1513 l 1,0,1
EndSplineSet
EndChar

StartChar: bar
Encoding: 124 124 95
Width: 450
Flags: W
LayerCount: 2
Fore
SplineSet
198 -270 m 1,0,1
 188 -277 188 -277 170 -286.5 c 128,-1,2
 152 -296 152 -296 132 -306 c 128,-1,3
 112 -316 112 -316 93 -324 c 128,-1,4
 74 -332 74 -332 62 -336 c 1,5,-1
 23 -301 l 1,6,-1
 283 1535 l 1,7,8
 297 1544 297 1544 314.5 1553.5 c 128,-1,9
 332 1563 332 1563 350 1572 c 128,-1,10
 368 1581 368 1581 385.5 1588 c 128,-1,11
 403 1595 403 1595 418 1599 c 1,12,-1
 458 1567 l 1,13,-1
 198 -270 l 1,0,1
EndSplineSet
EndChar

StartChar: braceright
Encoding: 125 125 96
Width: 702
Flags: W
LayerCount: 2
Fore
SplineSet
618 631 m 1,0,1
 511 600 511 600 458.5 548 c 128,-1,2
 406 496 406 496 395 421 c 0,3,4
 388 368 388 368 388.5 326.5 c 128,-1,5
 389 285 389 285 390.5 246 c 128,-1,6
 392 207 392 207 392 165 c 128,-1,7
 392 123 392 123 385 69 c 0,8,9
 376 1 376 1 338 -54.5 c 128,-1,10
 300 -110 300 -110 241.5 -157 c 128,-1,11
 183 -204 183 -204 107.5 -243 c 128,-1,12
 32 -282 32 -282 -53 -316 c 1,13,-1
 -82 -229 l 1,14,15
 -43 -205 -43 -205 -9.5 -176.5 c 128,-1,16
 24 -148 24 -148 49 -117 c 128,-1,17
 74 -86 74 -86 90 -53.5 c 128,-1,18
 106 -21 106 -21 111 12 c 0,19,20
 118 63 118 63 118 104.5 c 128,-1,21
 118 146 118 146 116 186.5 c 128,-1,22
 114 227 114 227 114 268.5 c 128,-1,23
 114 310 114 310 121 361 c 0,24,25
 127 403 127 403 146.5 443.5 c 128,-1,26
 166 484 166 484 196 519.5 c 128,-1,27
 226 555 226 555 264 584 c 128,-1,28
 302 613 302 613 344 631 c 1,29,30
 253 649 253 649 216.5 718.5 c 128,-1,31
 180 788 180 788 195 899 c 0,32,33
 202 951 202 951 214.5 998.5 c 128,-1,34
 227 1046 227 1046 240 1090 c 128,-1,35
 253 1134 253 1134 264.5 1176.5 c 128,-1,36
 276 1219 276 1219 282 1261 c 0,37,38
 287 1297 287 1297 286 1328 c 128,-1,39
 285 1359 285 1359 272.5 1387 c 128,-1,40
 260 1415 260 1415 234 1442 c 128,-1,41
 208 1469 208 1469 163 1498 c 1,42,-1
 217 1599 l 1,43,44
 300 1565 300 1565 365.5 1530.5 c 128,-1,45
 431 1496 431 1496 474 1454 c 128,-1,46
 517 1412 517 1412 535.5 1358 c 128,-1,47
 554 1304 554 1304 544 1232 c 0,48,49
 537 1181 537 1181 525 1137 c 128,-1,50
 513 1093 513 1093 500.5 1050.5 c 128,-1,51
 488 1008 488 1008 475.5 962.5 c 128,-1,52
 463 917 463 917 456 862 c 0,53,54
 445 781 445 781 471.5 749.5 c 128,-1,55
 498 718 498 718 553 718 c 2,56,-1
 572 718 l 2,57,58
 578 718 578 718 583 718.5 c 128,-1,59
 588 719 588 719 594.5 720.5 c 128,-1,60
 601 722 601 722 615 724 c 1,61,-1
 618 631 l 1,0,1
EndSplineSet
EndChar

StartChar: asciitilde
Encoding: 126 126 97
Width: 984
Flags: W
LayerCount: 2
Fore
SplineSet
945 774 m 1,0,1
 919 725 919 725 882 672.5 c 128,-1,2
 845 620 845 620 802.5 576.5 c 128,-1,3
 760 533 760 533 713.5 505 c 128,-1,4
 667 477 667 477 623 477 c 0,5,6
 584 477 584 477 543.5 502 c 128,-1,7
 503 527 503 527 462.5 557 c 128,-1,8
 422 587 422 587 381 612 c 128,-1,9
 340 637 340 637 300 637 c 0,10,11
 254 637 254 637 210.5 598 c 128,-1,12
 167 559 167 559 116 475 c 1,13,-1
 70 502 l 1,14,15
 97 551 97 551 134 603.5 c 128,-1,16
 171 656 171 656 213.5 699.5 c 128,-1,17
 256 743 256 743 302 771 c 128,-1,18
 348 799 348 799 392 799 c 0,19,20
 435 799 435 799 476.5 774 c 128,-1,21
 518 749 518 749 558.5 719 c 128,-1,22
 599 689 599 689 637.5 664 c 128,-1,23
 676 639 676 639 714 639 c 0,24,25
 758 639 758 639 803.5 678 c 128,-1,26
 849 717 849 717 899 799 c 1,27,-1
 945 774 l 1,0,1
EndSplineSet
EndChar

StartChar: Ccedilla
Encoding: 199 199 100
Width: 1055
GlyphClass: 2
Flags: W
AnchorPoint: "Anchor-4" 1055 870 basechar 0
AnchorPoint: "Anchor-3" 413 -600 basechar 0
AnchorPoint: "Anchor-2" 413 -600 basechar 0
AnchorPoint: "Anchor-1" 413 -600 basechar 0
AnchorPoint: "Anchor-0" 706 1320 basechar 0
LayerCount: 2
Fore
SplineSet
653 -221 m 0,0,1
 653 -256 653 -256 637 -288 c 128,-1,2
 621 -320 621 -320 592.5 -345 c 128,-1,3
 564 -370 564 -370 525.5 -387 c 128,-1,4
 487 -404 487 -404 441 -409.5 c 128,-1,5
 395 -415 395 -415 343.5 -407 c 128,-1,6
 292 -399 292 -399 239 -375 c 1,7,-1
 237 -296 l 1,8,9
 275 -311 275 -311 308 -313.5 c 128,-1,10
 341 -316 341 -316 365 -309.5 c 128,-1,11
 389 -303 389 -303 402.5 -289.5 c 128,-1,12
 416 -276 416 -276 416 -258 c 0,13,14
 416 -239 416 -239 396.5 -226 c 128,-1,15
 377 -213 377 -213 353 -215 c 1,16,17
 385 -154 385 -154 405 -103 c 0,18,19
 420 -65 420 -65 430 -23 c 1,20,21
 372 -16 372 -16 318 5 c 1,22,23
 239 38 239 38 181 100 c 128,-1,24
 123 162 123 162 89.5 252.5 c 128,-1,25
 56 343 56 343 56 459 c 0,26,27
 56 553 56 553 76 650.5 c 128,-1,28
 96 748 96 748 137 840.5 c 128,-1,29
 178 933 178 933 240.5 1016.5 c 128,-1,30
 303 1100 303 1100 387 1167 c 0,31,32
 423 1195 423 1195 469 1218 c 128,-1,33
 515 1241 515 1241 564.5 1257 c 128,-1,34
 614 1273 614 1273 665 1281.5 c 128,-1,35
 716 1290 716 1290 763 1290 c 0,36,37
 812 1290 812 1290 862 1282 c 128,-1,38
 912 1274 912 1274 957 1260.5 c 128,-1,39
 1002 1247 1002 1247 1038 1229 c 128,-1,40
 1074 1211 1074 1211 1096 1190 c 0,41,42
 1098 1187 1098 1187 1091.5 1170 c 128,-1,43
 1085 1153 1085 1153 1073 1128.5 c 128,-1,44
 1061 1104 1061 1104 1045.5 1075.5 c 128,-1,45
 1030 1047 1030 1047 1014 1021 c 128,-1,46
 998 995 998 995 984 974.5 c 128,-1,47
 970 954 970 954 961 947 c 1,48,-1
 891 965 l 1,49,50
 880 1000 880 1000 862 1033 c 128,-1,51
 844 1066 844 1066 818.5 1092 c 128,-1,52
 793 1118 793 1118 760 1133.5 c 128,-1,53
 727 1149 727 1149 686 1149 c 0,54,55
 646 1149 646 1149 613.5 1140 c 128,-1,56
 581 1131 581 1131 541 1100 c 0,57,58
 478 1051 478 1051 436.5 977 c 128,-1,59
 395 903 395 903 371 821.5 c 128,-1,60
 347 740 347 740 337 659.5 c 128,-1,61
 327 579 327 579 327 516 c 0,62,63
 327 407 327 407 354.5 336 c 128,-1,64
 382 265 382 265 423 223 c 128,-1,65
 464 181 464 181 512.5 164 c 128,-1,66
 561 147 561 147 603 146 c 0,67,68
 627 146 627 146 659 151 c 128,-1,69
 691 156 691 156 731.5 171 c 128,-1,70
 772 186 772 186 823.5 213.5 c 128,-1,71
 875 241 875 241 938 286 c 1,72,73
 943 284 943 284 949 273 c 128,-1,74
 955 262 955 262 960.5 249 c 128,-1,75
 966 236 966 236 970.5 225 c 128,-1,76
 975 214 975 214 977 211 c 1,77,78
 909 144 909 144 841.5 98.5 c 128,-1,79
 774 53 774 53 711 25 c 128,-1,80
 648 -3 648 -3 591 -15 c 0,81,82
 565 -20 565 -20 541 -23 c 1,83,-1
 541 -24 l 1,84,85
 539 -38 539 -38 536 -51.5 c 128,-1,86
 533 -65 533 -65 530 -76 c 128,-1,87
 527 -87 527 -87 525 -93 c 1,88,89
 558 -94 558 -94 582 -105 c 128,-1,90
 606 -116 606 -116 622 -133.5 c 128,-1,91
 638 -151 638 -151 645.5 -174 c 128,-1,92
 653 -197 653 -197 653 -221 c 0,0,1
EndSplineSet
Ligature2: "'ccmp' Glyph Composition/Decomposition lookup 3 subtable" C uni0327
EndChar

StartChar: ccedilla
Encoding: 231 231 111
Width: 899
GlyphClass: 2
Flags: W
AnchorPoint: "Anchor-4" 991 870 basechar 0
AnchorPoint: "Anchor-3" 345 -600 basechar 0
AnchorPoint: "Anchor-2" 345 -600 basechar 0
AnchorPoint: "Anchor-1" 345 -600 basechar 0
AnchorPoint: "Anchor-0" 604 1000 basechar 0
LayerCount: 2
Fore
SplineSet
585 -221 m 0,0,1
 585 -256 585 -256 569 -288 c 128,-1,2
 553 -320 553 -320 524.5 -345 c 128,-1,3
 496 -370 496 -370 457.5 -387 c 128,-1,4
 419 -404 419 -404 373 -409.5 c 128,-1,5
 327 -415 327 -415 275.5 -407 c 128,-1,6
 224 -399 224 -399 171 -375 c 1,7,-1
 169 -296 l 1,8,9
 207 -311 207 -311 240 -313.5 c 128,-1,10
 273 -316 273 -316 297 -309.5 c 128,-1,11
 321 -303 321 -303 334.5 -289.5 c 128,-1,12
 348 -276 348 -276 348 -258 c 0,13,14
 348 -239 348 -239 328.5 -226 c 128,-1,15
 309 -213 309 -213 285 -215 c 1,16,17
 317 -154 317 -154 337 -103 c 0,18,19
 349 -73 349 -73 358 -41 c 1,20,21
 318 -38 318 -38 274 -24 c 0,22,23
 223 -7 223 -7 179 35 c 128,-1,24
 135 77 135 77 106 147 c 128,-1,25
 77 217 77 217 77 322 c 0,26,27
 77 389 77 389 91 457.5 c 128,-1,28
 105 526 105 526 136.5 590.5 c 128,-1,29
 168 655 168 655 218.5 714 c 128,-1,30
 269 773 269 773 343 822 c 0,31,32
 371 840 371 840 409 860.5 c 128,-1,33
 447 881 447 881 490.5 897.5 c 128,-1,34
 534 914 534 914 581 925 c 128,-1,35
 628 936 628 936 674 936 c 0,36,37
 718 936 718 936 753 922.5 c 128,-1,38
 788 909 788 909 818.5 890.5 c 128,-1,39
 849 872 849 872 877.5 853.5 c 128,-1,40
 906 835 906 835 937 825 c 1,41,42
 916 802 916 802 884.5 772 c 128,-1,43
 853 742 853 742 820.5 715 c 128,-1,44
 788 688 788 688 759 669.5 c 128,-1,45
 730 651 730 651 713 651 c 0,46,47
 695 651 695 651 678 671.5 c 128,-1,48
 661 692 661 692 642.5 716 c 128,-1,49
 624 740 624 740 601.5 760.5 c 128,-1,50
 579 781 579 781 551 781 c 0,51,52
 501 781 501 781 462.5 747.5 c 128,-1,53
 424 714 424 714 397.5 659.5 c 128,-1,54
 371 605 371 605 357 536.5 c 128,-1,55
 343 468 343 468 343 398 c 0,56,57
 343 268 343 268 378 197 c 128,-1,58
 413 126 413 126 469 126 c 0,59,60
 529 126 529 126 605.5 169.5 c 128,-1,61
 682 213 682 213 790 301 c 1,62,63
 794 296 794 296 802 284 c 128,-1,64
 810 272 810 272 819 259 c 128,-1,65
 828 246 828 246 835.5 235 c 128,-1,66
 843 224 843 224 845 220 c 1,67,68
 767 149 767 149 701 99 c 128,-1,69
 635 49 635 49 577 18 c 0,70,71
 522 -12 522 -12 473 -26 c 1,72,73
 471 -39 471 -39 468 -51 c 0,74,75
 465 -65 465 -65 462 -76 c 128,-1,76
 459 -87 459 -87 457 -93 c 1,77,78
 490 -94 490 -94 514 -105 c 128,-1,79
 538 -116 538 -116 554 -133.5 c 128,-1,80
 570 -151 570 -151 577.5 -174 c 128,-1,81
 585 -197 585 -197 585 -221 c 0,0,1
EndSplineSet
Ligature2: "'ccmp' Glyph Composition/Decomposition lookup 3 subtable" c uni0327
EndChar

StartChar: dagger
Encoding: 8224 8224 130
Width: 925
Flags: W
LayerCount: 2
Fore
SplineSet
987 1124 m 1,0,1
 978 1107 978 1107 956.5 1070.5 c 128,-1,2
 935 1034 935 1034 910 993 c 128,-1,3
 885 952 885 952 861 914 c 128,-1,4
 837 876 837 876 823 857 c 1,5,6
 796 878 796 878 771 895 c 128,-1,7
 746 912 746 912 720 924 c 128,-1,8
 694 936 694 936 666 943.5 c 128,-1,9
 638 951 638 951 604 955 c 1,10,11
 600 888 600 888 609.5 817 c 128,-1,12
 619 746 619 746 643 680 c 1,13,14
 589 569 589 569 556.5 472.5 c 128,-1,15
 524 376 524 376 510 280 c 0,16,17
 501 222 501 222 506 166 c 128,-1,18
 511 110 511 110 534 49 c 1,19,20
 525 42 525 42 497.5 29 c 128,-1,21
 470 16 470 16 438.5 1.5 c 128,-1,22
 407 -13 407 -13 378.5 -24.5 c 128,-1,23
 350 -36 350 -36 339 -40 c 1,24,-1
 308 -9 l 1,25,26
 325 24 325 24 341 62 c 128,-1,27
 357 100 357 100 370 138.5 c 128,-1,28
 383 177 383 177 392 213.5 c 128,-1,29
 401 250 401 250 405 280 c 0,30,31
 411 329 411 329 412.5 377 c 128,-1,32
 414 425 414 425 411 474 c 128,-1,33
 408 523 408 523 400.5 574 c 128,-1,34
 393 625 393 625 382 680 c 1,35,36
 424 746 424 746 451.5 817 c 128,-1,37
 479 888 479 888 494 955 c 1,38,39
 326 939 326 939 157 857 c 1,40,-1
 133 910 l 1,41,42
 142 927 142 927 163.5 963.5 c 128,-1,43
 185 1000 185 1000 210.5 1041 c 128,-1,44
 236 1082 236 1082 260 1120 c 128,-1,45
 284 1158 284 1158 298 1177 c 1,46,47
 324 1156 324 1156 348.5 1140 c 128,-1,48
 373 1124 373 1124 398.5 1112 c 128,-1,49
 424 1100 424 1100 451.5 1092 c 128,-1,50
 479 1084 479 1084 512 1080 c 1,51,52
 514 1118 514 1118 511.5 1151.5 c 128,-1,53
 509 1185 509 1185 502.5 1217 c 128,-1,54
 496 1249 496 1249 485 1281 c 128,-1,55
 474 1313 474 1313 459 1348 c 1,56,57
 478 1360 478 1360 515 1379.5 c 128,-1,58
 552 1399 552 1399 591.5 1419 c 128,-1,59
 631 1439 631 1439 666.5 1456 c 128,-1,60
 702 1473 702 1473 718 1480 c 1,61,-1
 760 1445 l 1,62,63
 660 1263 660 1263 622 1079 c 1,64,65
 708 1087 708 1087 793 1111 c 128,-1,66
 878 1135 878 1135 964 1177 c 1,67,-1
 987 1124 l 1,0,1
EndSplineSet
EndChar

StartChar: degree
Encoding: 176 176 131
Width: 682
Flags: W
LayerCount: 2
Fore
SplineSet
422 881 m 0,0,1
 446 881 446 881 465.5 893.5 c 128,-1,2
 485 906 485 906 499 925.5 c 128,-1,3
 513 945 513 945 521 969.5 c 128,-1,4
 529 994 529 994 529 1018 c 0,5,6
 529 1034 529 1034 524.5 1051 c 128,-1,7
 520 1068 520 1068 510.5 1081.5 c 128,-1,8
 501 1095 501 1095 486.5 1103.5 c 128,-1,9
 472 1112 472 1112 453 1112 c 256,10,11
 434 1112 434 1112 414.5 1101.5 c 128,-1,12
 395 1091 395 1091 379.5 1072.5 c 128,-1,13
 364 1054 364 1054 354 1029 c 128,-1,14
 344 1004 344 1004 344 976 c 0,15,16
 344 929 344 929 367.5 905 c 128,-1,17
 391 881 391 881 422 881 c 0,0,1
684 1073 m 0,18,19
 684 999 684 999 653.5 936 c 128,-1,20
 623 873 623 873 576 827 c 128,-1,21
 529 781 529 781 472 755 c 128,-1,22
 415 729 415 729 363 729 c 0,23,24
 315 729 315 729 281.5 746 c 128,-1,25
 248 763 248 763 227 790 c 128,-1,26
 206 817 206 817 197 851 c 128,-1,27
 188 885 188 885 188 918 c 0,28,29
 188 987 188 987 217.5 1050 c 128,-1,30
 247 1113 247 1113 293.5 1161 c 128,-1,31
 340 1209 340 1209 397 1237 c 128,-1,32
 454 1265 454 1265 509 1265 c 0,33,34
 552 1265 552 1265 585 1249 c 128,-1,35
 618 1233 618 1233 640 1206.5 c 128,-1,36
 662 1180 662 1180 673 1145 c 128,-1,37
 684 1110 684 1110 684 1073 c 0,18,19
EndSplineSet
EndChar

StartChar: cent
Encoding: 162 162 132
Width: 968
Flags: W
LayerCount: 2
Fore
SplineSet
651 1054 m 1,0,1
 659 1055 659 1055 666 1055 c 2,2,-1
 681 1055 l 2,3,4
 729 1055 729 1055 773.5 1038.5 c 128,-1,5
 818 1022 818 1022 857 1001 c 128,-1,6
 896 980 896 980 928.5 960.5 c 128,-1,7
 961 941 961 941 984 936 c 1,8,9
 972 926 972 926 954 906.5 c 128,-1,10
 936 887 936 887 915 864.5 c 128,-1,11
 894 842 894 842 871 818 c 128,-1,12
 848 794 848 794 827.5 775 c 128,-1,13
 807 756 807 756 789.5 743.5 c 128,-1,14
 772 731 772 731 761 731 c 0,15,16
 749 731 749 731 735.5 750 c 128,-1,17
 722 769 722 769 706.5 795 c 128,-1,18
 691 821 691 821 672 849 c 128,-1,19
 653 877 653 877 629 894 c 1,20,-1
 545 280 l 1,21,22
 574 287 574 287 602.5 301.5 c 128,-1,23
 631 316 631 316 662.5 338.5 c 128,-1,24
 694 361 694 361 730.5 391 c 128,-1,25
 767 421 767 421 812 458 c 1,26,27
 816 452 816 452 824.5 439.5 c 128,-1,28
 833 427 833 427 842 414.5 c 128,-1,29
 851 402 851 402 858.5 390.5 c 128,-1,30
 866 379 866 379 868 375 c 1,31,32
 811 322 811 322 764 281.5 c 128,-1,33
 717 241 717 241 676 210.5 c 128,-1,34
 635 180 635 180 598 159.5 c 128,-1,35
 561 139 561 139 524 127 c 1,36,-1
 508 12 l 1,37,38
 499 4 499 4 485 -5 c 128,-1,39
 471 -14 471 -14 456 -22.5 c 128,-1,40
 441 -31 441 -31 426 -38 c 128,-1,41
 411 -45 411 -45 399 -49 c 1,42,-1
 380 -27 l 1,43,-1
 399 111 l 1,44,45
 353 112 353 112 298 130 c 128,-1,46
 243 148 243 148 195.5 189 c 128,-1,47
 148 230 148 230 116 299 c 128,-1,48
 84 368 84 368 84 471 c 0,49,50
 84 538 84 538 104.5 606.5 c 128,-1,51
 125 675 125 675 164 740 c 128,-1,52
 203 805 203 805 260 864.5 c 128,-1,53
 317 924 317 924 391 973 c 0,54,55
 421 992 421 992 454 1008 c 128,-1,56
 487 1024 487 1024 526 1035 c 1,57,-1
 543 1156 l 1,58,59
 569 1174 569 1174 596 1191.5 c 128,-1,60
 623 1209 623 1209 651 1217 c 1,61,-1
 671 1194 l 1,62,-1
 651 1054 l 1,0,1
340 510 m 0,63,64
 340 423 340 423 364.5 371.5 c 128,-1,65
 389 320 389 320 424 297 c 1,66,-1
 506 892 l 1,67,68
 468 871 468 871 437 829.5 c 128,-1,69
 406 788 406 788 384.5 736 c 128,-1,70
 363 684 363 684 351.5 625.5 c 128,-1,71
 340 567 340 567 340 510 c 0,63,64
EndSplineSet
EndChar

StartChar: sterling
Encoding: 163 163 133
Width: 968
Flags: W
LayerCount: 2
Fore
SplineSet
662 516 m 1,0,-1
 409 516 l 1,1,2
 396 405 396 405 360.5 318 c 128,-1,3
 325 231 325 231 262 151 c 1,4,5
 326 157 326 157 363 157 c 128,-1,6
 400 157 400 157 428.5 155 c 128,-1,7
 457 153 457 153 487.5 151 c 128,-1,8
 518 149 518 149 569 151 c 0,9,10
 612 152 612 152 644.5 161.5 c 128,-1,11
 677 171 677 171 704 194 c 128,-1,12
 731 217 731 217 755.5 255 c 128,-1,13
 780 293 780 293 808 352 c 1,14,-1
 881 324 l 1,15,16
 871 281 871 281 857.5 230.5 c 128,-1,17
 844 180 844 180 830.5 133.5 c 128,-1,18
 817 87 817 87 806 51 c 128,-1,19
 795 15 795 15 789 0 c 1,20,21
 744 -25 744 -25 679.5 -28 c 128,-1,22
 615 -31 615 -31 540 -24 c 128,-1,23
 465 -17 465 -17 385 -5.5 c 128,-1,24
 305 6 305 6 228.5 11 c 128,-1,25
 152 16 152 16 84 8.5 c 128,-1,26
 16 1 16 1 -34 -30 c 1,27,-1
 -63 49 l 1,28,29
 -32 74 -32 74 -7 96.5 c 128,-1,30
 18 119 18 119 37.5 145 c 128,-1,31
 57 171 57 171 71.5 203 c 128,-1,32
 86 235 86 235 97 278.5 c 128,-1,33
 108 322 108 322 116 380 c 128,-1,34
 124 438 124 438 130 516 c 1,35,-1
 21 516 l 1,36,-1
 -3 551 l 1,37,38
 0 558 0 558 7 571 c 128,-1,39
 14 584 14 584 22 598.5 c 128,-1,40
 30 613 30 613 37.5 626 c 128,-1,41
 45 639 45 639 49 647 c 1,42,-1
 140 647 l 1,43,44
 157 775 157 775 204 883 c 128,-1,45
 251 991 251 991 321.5 1069 c 128,-1,46
 392 1147 392 1147 482.5 1191 c 128,-1,47
 573 1235 573 1235 677 1235 c 0,48,49
 701 1235 701 1235 733.5 1233 c 128,-1,50
 766 1231 766 1231 803.5 1223.5 c 128,-1,51
 841 1216 841 1216 881 1202.5 c 128,-1,52
 921 1189 921 1189 961 1165 c 1,53,54
 958 1148 958 1148 952.5 1120 c 128,-1,55
 947 1092 947 1092 939.5 1059 c 128,-1,56
 932 1026 932 1026 924 991 c 128,-1,57
 916 956 916 956 907.5 924.5 c 128,-1,58
 899 893 899 893 891.5 868 c 128,-1,59
 884 843 884 843 879 830 c 1,60,-1
 798 830 l 1,61,62
 800 892 800 892 791.5 943 c 128,-1,63
 783 994 783 994 764 1030 c 128,-1,64
 745 1066 745 1066 715 1086 c 128,-1,65
 685 1106 685 1106 645 1106 c 0,66,67
 628 1106 628 1106 606.5 1102.5 c 128,-1,68
 585 1099 585 1099 562 1084.5 c 128,-1,69
 539 1070 539 1070 516.5 1040.5 c 128,-1,70
 494 1011 494 1011 474 960 c 128,-1,71
 454 909 454 909 439.5 832.5 c 128,-1,72
 425 756 425 756 418 647 c 1,73,-1
 689 647 l 1,74,-1
 718 614 l 1,75,-1
 662 516 l 1,0,-1
EndSplineSet
EndChar

StartChar: section
Encoding: 167 167 134
Width: 941
Flags: W
LayerCount: 2
Fore
SplineSet
578 569 m 0,0,1
 594 558 594 558 611.5 548 c 128,-1,2
 629 538 629 538 647 526 c 1,3,4
 672 563 672 563 678 607 c 0,5,6
 685 658 685 658 676 696 c 128,-1,7
 667 734 667 734 642 766.5 c 128,-1,8
 617 799 617 799 576 830 c 128,-1,9
 535 861 535 861 477 899 c 0,10,11
 466 906 466 906 454.5 913.5 c 128,-1,12
 443 921 443 921 431 929 c 1,13,14
 411 906 411 906 396.5 880.5 c 128,-1,15
 382 855 382 855 379 830 c 0,16,17
 373 786 373 786 383 754 c 128,-1,18
 393 722 393 722 418 693 c 128,-1,19
 443 664 443 664 483.5 635 c 128,-1,20
 524 606 524 606 578 569 c 0,0,1
903 673 m 0,21,22
 892 590 892 590 854.5 523 c 128,-1,23
 817 456 817 456 769 410 c 1,24,25
 785 383 785 383 792.5 352 c 128,-1,26
 800 321 800 321 795 283 c 0,27,28
 785 212 785 212 759 161.5 c 128,-1,29
 733 111 733 111 696.5 76 c 128,-1,30
 660 41 660 41 616.5 20 c 128,-1,31
 573 -1 573 -1 530 -12 c 128,-1,32
 487 -23 487 -23 448 -26.5 c 128,-1,33
 409 -30 409 -30 380 -30 c 0,34,35
 348 -30 348 -30 312.5 -25.5 c 128,-1,36
 277 -21 277 -21 241.5 -12 c 128,-1,37
 206 -3 206 -3 172.5 11 c 128,-1,38
 139 25 139 25 111 43 c 0,39,40
 105 46 105 46 106.5 79.5 c 128,-1,41
 108 113 108 113 114.5 160 c 128,-1,42
 121 207 121 207 133 259.5 c 128,-1,43
 145 312 145 312 160 353 c 1,44,-1
 242 342 l 1,45,46
 246 285 246 285 262 239.5 c 128,-1,47
 278 194 278 194 302 162.5 c 128,-1,48
 326 131 326 131 357.5 114.5 c 128,-1,49
 389 98 389 98 425 98 c 0,50,51
 457 98 457 98 480.5 103 c 128,-1,52
 504 108 504 108 520 119.5 c 128,-1,53
 536 131 536 131 545 150 c 128,-1,54
 554 169 554 169 558 197 c 0,55,56
 564 237 564 237 546 269.5 c 128,-1,57
 528 302 528 302 497 329.5 c 128,-1,58
 466 357 466 357 426.5 381 c 128,-1,59
 387 405 387 405 349 429 c 0,60,61
 314 450 314 450 276.5 481.5 c 128,-1,62
 239 513 239 513 209 556 c 128,-1,63
 179 599 179 599 163 654.5 c 128,-1,64
 147 710 147 710 156 780 c 0,65,66
 160 813 160 813 174 846.5 c 128,-1,67
 188 880 188 880 209 911.5 c 128,-1,68
 230 943 230 943 257.5 971.5 c 128,-1,69
 285 1000 285 1000 316 1023 c 1,70,71
 288 1055 288 1055 273 1091 c 128,-1,72
 258 1127 258 1127 264 1170 c 0,73,74
 273 1232 273 1232 308.5 1282 c 128,-1,75
 344 1332 344 1332 396 1367 c 128,-1,76
 448 1402 448 1402 511.5 1421 c 128,-1,77
 575 1440 575 1440 640 1440 c 0,78,79
 682 1440 682 1440 722.5 1434.5 c 128,-1,80
 763 1429 763 1429 798.5 1419 c 128,-1,81
 834 1409 834 1409 863 1395 c 128,-1,82
 892 1381 892 1381 911 1363 c 0,83,84
 914 1360 914 1360 911.5 1344.5 c 128,-1,85
 909 1329 909 1329 903 1306.5 c 128,-1,86
 897 1284 897 1284 887.5 1257.5 c 128,-1,87
 878 1231 878 1231 867 1205 c 128,-1,88
 856 1179 856 1179 845 1157.5 c 128,-1,89
 834 1136 834 1136 824 1123 c 1,90,-1
 754 1131 l 1,91,92
 752 1225 752 1225 718 1277.5 c 128,-1,93
 684 1330 684 1330 620 1330 c 0,94,95
 567 1330 567 1330 535.5 1306 c 128,-1,96
 504 1282 504 1282 498 1240 c 0,97,98
 494 1208 494 1208 508.5 1183.5 c 128,-1,99
 523 1159 523 1159 551 1137 c 128,-1,100
 579 1115 579 1115 619 1092 c 128,-1,101
 659 1069 659 1069 706 1039 c 0,102,103
 742 1017 742 1017 781 986.5 c 128,-1,104
 820 956 820 956 851 912.5 c 128,-1,105
 882 869 882 869 897.5 810 c 128,-1,106
 913 751 913 751 903 673 c 0,21,22
EndSplineSet
EndChar

StartChar: bullet
Encoding: 8226 8226 135
Width: 529
Flags: W
LayerCount: 2
Fore
SplineSet
479 713 m 0,0,1
 479 657 479 657 461.5 599 c 128,-1,2
 444 541 444 541 410.5 494.5 c 128,-1,3
 377 448 377 448 328 418.5 c 128,-1,4
 279 389 279 389 215 389 c 0,5,6
 177 389 177 389 149 402 c 128,-1,7
 121 415 121 415 102.5 438 c 128,-1,8
 84 461 84 461 75 492 c 128,-1,9
 66 523 66 523 66 559 c 0,10,11
 66 615 66 615 84 673 c 128,-1,12
 102 731 102 731 136.5 778 c 128,-1,13
 171 825 171 825 220.5 855 c 128,-1,14
 270 885 270 885 332 885 c 0,15,16
 370 885 370 885 398 871.5 c 128,-1,17
 426 858 426 858 444 834.5 c 128,-1,18
 462 811 462 811 470.5 779.5 c 128,-1,19
 479 748 479 748 479 713 c 0,0,1
EndSplineSet
EndChar

StartChar: paragraph
Encoding: 182 182 136
Width: 1139
Flags: W
LayerCount: 2
Fore
SplineSet
1168 1177 m 1,0,1
 1105 1163 1105 1163 1072 1146 c 128,-1,2
 1039 1129 1039 1129 1037 1115 c 2,3,-1
 870 -105 l 2,4,5
 868 -118 868 -118 894 -135.5 c 128,-1,6
 920 -153 920 -153 984 -167 c 1,7,-1
 972 -250 l 1,8,-1
 332 -250 l 1,9,-1
 344 -167 l 1,10,11
 407 -153 407 -153 440 -136 c 128,-1,12
 473 -119 473 -119 475 -105 c 2,13,-1
 562 522 l 1,14,15
 529 516 529 516 482 516 c 0,16,17
 381 516 381 516 300 541.5 c 128,-1,18
 219 567 219 567 164 616 c 128,-1,19
 109 665 109 665 84 737 c 128,-1,20
 59 809 59 809 72 903 c 0,21,22
 84 988 84 988 126 1059 c 128,-1,23
 168 1130 168 1130 235.5 1181.5 c 128,-1,24
 303 1233 303 1233 393.5 1261.5 c 128,-1,25
 484 1290 484 1290 592 1290 c 0,26,27
 611 1290 611 1290 644.5 1288.5 c 128,-1,28
 678 1287 678 1287 719 1285 c 128,-1,29
 760 1283 760 1283 806 1280.5 c 128,-1,30
 852 1278 852 1278 897 1275 c 0,31,32
 1003 1268 1003 1268 1124 1260 c 1,33,-1
 1179 1260 l 1,34,-1
 1168 1177 l 1,0,1
578 640 m 1,35,-1
 651 1165 l 1,36,37
 636 1166 636 1166 624 1166 c 2,38,-1
 603 1166 l 2,39,40
 563 1166 563 1166 520 1151.5 c 128,-1,41
 477 1137 477 1137 440.5 1108 c 128,-1,42
 404 1079 404 1079 377 1036.5 c 128,-1,43
 350 994 350 994 343 938 c 1,44,45
 335 884 335 884 341.5 830.5 c 128,-1,46
 348 777 348 777 371 734.5 c 128,-1,47
 394 692 394 692 435 666 c 128,-1,48
 476 640 476 640 538 640 c 2,49,-1
 578 640 l 1,35,-1
880 1136 m 1,50,51
 863 1140 863 1140 845.5 1143.5 c 128,-1,52
 828 1147 828 1147 810 1149 c 1,53,-1
 638 -105 l 2,54,55
 637 -111 637 -111 640 -116 c 128,-1,56
 643 -121 643 -121 648 -125 c 128,-1,57
 653 -129 653 -129 658.5 -132 c 128,-1,58
 664 -135 664 -135 669 -136 c 1,59,60
 680 -133 680 -133 694 -124.5 c 128,-1,61
 708 -116 708 -116 710 -105 c 2,62,-1
 880 1136 l 1,50,51
EndSplineSet
EndChar

StartChar: germandbls
Encoding: 223 223 137
Width: 1163
GlyphClass: 2
Flags: W
AnchorPoint: "Anchor-4" 1163 870 basechar 0
AnchorPoint: "Anchor-3" 454 -100 basechar 0
AnchorPoint: "Anchor-2" 454 -100 basechar 0
AnchorPoint: "Anchor-1" 454 -100 basechar 0
AnchorPoint: "Anchor-0" 692 1640 basechar 0
LayerCount: 2
Fore
SplineSet
1120 1225 m 0,0,1
 1120 1144 1120 1144 1096.5 1088 c 128,-1,2
 1073 1032 1073 1032 1038.5 991.5 c 128,-1,3
 1004 951 1004 951 963 921.5 c 128,-1,4
 922 892 922 892 887.5 864.5 c 128,-1,5
 853 837 853 837 829.5 806 c 128,-1,6
 806 775 806 775 806 731 c 0,7,8
 806 695 806 695 829.5 665.5 c 128,-1,9
 853 636 853 636 888.5 608.5 c 128,-1,10
 924 581 924 581 965 552.5 c 128,-1,11
 1006 524 1006 524 1041.5 489 c 128,-1,12
 1077 454 1077 454 1100.5 411 c 128,-1,13
 1124 368 1124 368 1124 311 c 0,14,15
 1124 270 1124 270 1107.5 228 c 128,-1,16
 1091 186 1091 186 1062 147 c 128,-1,17
 1033 108 1033 108 992.5 73.5 c 128,-1,18
 952 39 952 39 904 13.5 c 128,-1,19
 856 -12 856 -12 802.5 -26.5 c 128,-1,20
 749 -41 749 -41 693 -41 c 0,21,22
 651 -41 651 -41 605 -25 c 128,-1,23
 559 -9 559 -9 520.5 14.5 c 128,-1,24
 482 38 482 38 457 65 c 128,-1,25
 432 92 432 92 432 114 c 0,26,27
 432 121 432 121 439 139 c 128,-1,28
 446 157 446 157 456.5 180 c 128,-1,29
 467 203 467 203 480.5 228.5 c 128,-1,30
 494 254 494 254 507.5 275 c 128,-1,31
 521 296 521 296 533 309.5 c 128,-1,32
 545 323 545 323 552 323 c 0,33,34
 558 323 558 323 567.5 306.5 c 128,-1,35
 577 290 577 290 589.5 264.5 c 128,-1,36
 602 239 602 239 617.5 210 c 128,-1,37
 633 181 633 181 652 155.5 c 128,-1,38
 671 130 671 130 693 113.5 c 128,-1,39
 715 97 715 97 741 97 c 0,40,41
 762 97 762 97 784.5 102.5 c 128,-1,42
 807 108 807 108 825.5 123 c 128,-1,43
 844 138 844 138 856 164.5 c 128,-1,44
 868 191 868 191 868 233 c 0,45,46
 868 289 868 289 845 328 c 128,-1,47
 822 367 822 367 787 398 c 128,-1,48
 752 429 752 429 711.5 455 c 128,-1,49
 671 481 671 481 636 510.5 c 128,-1,50
 601 540 601 540 578 577.5 c 128,-1,51
 555 615 555 615 555 668 c 0,52,53
 555 729 555 729 577.5 771 c 128,-1,54
 600 813 600 813 634 845.5 c 128,-1,55
 668 878 668 878 707 906.5 c 128,-1,56
 746 935 746 935 780 968.5 c 128,-1,57
 814 1002 814 1002 836.5 1045.5 c 128,-1,58
 859 1089 859 1089 859 1153 c 0,59,60
 859 1198 859 1198 843 1237 c 128,-1,61
 827 1276 827 1276 802.5 1305 c 128,-1,62
 778 1334 778 1334 749 1350.5 c 128,-1,63
 720 1367 720 1367 694 1367 c 0,64,65
 631 1367 631 1367 585.5 1333.5 c 128,-1,66
 540 1300 540 1300 509.5 1243 c 128,-1,67
 479 1186 479 1186 461 1110.5 c 128,-1,68
 443 1035 443 1035 434 952 c 2,69,-1
 346 193 l 2,70,71
 333 82 333 82 285.5 -20.5 c 128,-1,72
 238 -123 238 -123 172 -211.5 c 128,-1,73
 106 -300 106 -300 28.5 -370 c 128,-1,74
 -49 -440 -49 -440 -123 -485 c 1,75,-1
 -170 -392 l 1,76,77
 -120 -364 -120 -364 -79 -308.5 c 128,-1,78
 -38 -253 -38 -253 -7.5 -181 c 128,-1,79
 23 -109 23 -109 43 -26 c 128,-1,80
 63 57 63 57 72 139 c 2,81,-1
 160 899 l 2,82,83
 170 981 170 981 196.5 1056.5 c 128,-1,84
 223 1132 223 1132 263.5 1198.5 c 128,-1,85
 304 1265 304 1265 357 1322 c 128,-1,86
 410 1379 410 1379 473 1425 c 0,87,88
 531 1467 531 1467 609 1492.5 c 128,-1,89
 687 1518 687 1518 770 1518 c 256,90,91
 853 1518 853 1518 918 1492 c 128,-1,92
 983 1466 983 1466 1028 1424 c 128,-1,93
 1073 1382 1073 1382 1096.5 1329.5 c 128,-1,94
 1120 1277 1120 1277 1120 1225 c 0,0,1
EndSplineSet
EndChar

StartChar: registered
Encoding: 174 174 138
Width: 704
Flags: W
LayerCount: 2
Fore
SplineSet
761 1084 m 256,0,1
 750 1005 750 1005 718 938 c 128,-1,2
 686 871 686 871 637 822 c 128,-1,3
 588 773 588 773 525 745.5 c 128,-1,4
 462 718 462 718 390 718 c 0,5,6
 317 718 317 718 261 745.5 c 128,-1,7
 205 773 205 773 169 822 c 128,-1,8
 133 871 133 871 119 938 c 128,-1,9
 105 1005 105 1005 116 1084 c 0,10,11
 126 1162 126 1162 158.5 1228.5 c 128,-1,12
 191 1295 191 1295 240 1344.5 c 128,-1,13
 289 1394 289 1394 352 1422 c 128,-1,14
 415 1450 415 1450 487 1450 c 256,15,16
 559 1450 559 1450 615 1422.5 c 128,-1,17
 671 1395 671 1395 707 1346 c 128,-1,18
 743 1297 743 1297 757.5 1230 c 128,-1,19
 772 1163 772 1163 761 1084 c 256,0,1
683 1084 m 0,20,21
 691 1143 691 1143 682.5 1196 c 128,-1,22
 674 1249 674 1249 648 1288.5 c 128,-1,23
 622 1328 622 1328 578.5 1351.5 c 128,-1,24
 535 1375 535 1375 474 1375 c 256,25,26
 413 1375 413 1375 365 1351.5 c 128,-1,27
 317 1328 317 1328 281.5 1288.5 c 128,-1,28
 246 1249 246 1249 224 1196 c 128,-1,29
 202 1143 202 1143 194 1084 c 0,30,31
 186 1024 186 1024 194.5 971.5 c 128,-1,32
 203 919 203 919 228.5 879 c 128,-1,33
 254 839 254 839 297 816 c 128,-1,34
 340 793 340 793 401 793 c 256,35,36
 462 793 462 793 510.5 816 c 128,-1,37
 559 839 559 839 594.5 879 c 128,-1,38
 630 919 630 919 652.5 971.5 c 128,-1,39
 675 1024 675 1024 683 1084 c 0,20,21
266 882 m 1,40,-1
 269 910 l 1,41,42
 289 915 289 915 297 919.5 c 128,-1,43
 305 924 305 924 306 929 c 2,44,-1
 349 1244 l 1,45,46
 340 1242 340 1242 332 1241 c 2,47,-1
 316 1239 l 1,48,-1
 318 1278 l 1,49,50
 345 1285 345 1285 379.5 1290.5 c 128,-1,51
 414 1296 414 1296 451 1296 c 0,52,53
 492 1296 492 1296 520 1286.5 c 128,-1,54
 548 1277 548 1277 564.5 1261.5 c 128,-1,55
 581 1246 581 1246 587 1226 c 128,-1,56
 593 1206 593 1206 590 1186 c 0,57,58
 584 1141 584 1141 554.5 1113 c 128,-1,59
 525 1085 525 1085 483 1073 c 1,60,-1
 561 944 l 1,61,62
 566 933 566 933 576 931.5 c 128,-1,63
 586 930 586 930 606 938 c 1,64,-1
 609 920 l 1,65,-1
 606 918 l 2,66,67
 598 913 598 913 584.5 906 c 128,-1,68
 571 899 571 899 557.5 892.5 c 128,-1,69
 544 886 544 886 532.5 881 c 128,-1,70
 521 876 521 876 516 876 c 0,71,72
 508 876 508 876 500.5 882 c 128,-1,73
 493 888 493 888 491 894 c 2,74,-1
 422 1065 l 1,75,-1
 409 1065 l 2,76,77
 405 1065 405 1065 400 1066 c 1,78,-1
 381 929 l 2,79,80
 379 919 379 919 416 910 c 1,81,-1
 413 882 l 1,82,-1
 266 882 l 1,40,-1
425 1251 m 1,83,-1
 406 1112 l 1,84,-1
 420 1112 l 2,85,86
 458 1112 458 1112 481 1124.5 c 128,-1,87
 504 1137 504 1137 509 1177 c 0,88,89
 513 1206 513 1206 496.5 1228.5 c 128,-1,90
 480 1251 480 1251 436 1251 c 2,91,-1
 425 1251 l 1,83,-1
EndSplineSet
EndChar

